<?xml version="1.0" encoding="UTF-8" standalone="no"?>
<!-- Created with Inkscape (http://www.inkscape.org/) -->

<svg
   version="1.1"
   id="svg1"
   width="251.07892"
   height="381.66064"
   viewBox="0 0 251.07892 381.66065"
   xml:space="preserve"
   xmlns="http://www.w3.org/2000/svg"
   xmlns:svg="http://www.w3.org/2000/svg"><defs
     id="defs1"><rect
       x="474.491"
       y="-0.87690407"
       width="82.658829"
       height="13.434616"
       id="rect161" /><clipPath
       clipPathUnits="userSpaceOnUse"
       id="clipPath2"><path
         d="M 0,0 H 95730 V 142127 H 0 Z"
         id="path2" /></clipPath><clipPath
       clipPathUnits="userSpaceOnUse"
       id="clipPath6"><path
         d="M 0,0 H 95730 V 142127 H 0 Z"
         id="path6" /></clipPath><clipPath
       clipPathUnits="userSpaceOnUse"
       id="clipPath7"><path
         d="M 0,0 H 95730 V 142127 H 0 Z"
         transform="matrix(0.00262467,0,0,0.00262467,-12.970145,-30.99821)"
         id="path7" /></clipPath><clipPath
       clipPathUnits="userSpaceOnUse"
       id="clipPath9"><path
         d="M 0,0 H 95730 V 142127 H 0 Z"
         id="path9" /></clipPath><clipPath
       clipPathUnits="userSpaceOnUse"
       id="clipPath10"><path
         d="M 0,0 H 95730 V 142127 H 0 Z"
         transform="matrix(0.00262467,0,0,0.00262467,-17.106667,-76.512583)"
         id="path10" /></clipPath><clipPath
       clipPathUnits="userSpaceOnUse"
       id="clipPath14"><path
         d="M 0,0 H 95730 V 142127 H 0 Z"
         id="path14" /></clipPath><clipPath
       clipPathUnits="userSpaceOnUse"
       id="clipPath16"><path
         d="M 0,0 H 95730 V 142127 H 0 Z"
         transform="matrix(0.00262467,0,0,0.00262467,-67.842522,-325.01313)"
         id="path16" /></clipPath><clipPath
       clipPathUnits="userSpaceOnUse"
       id="clipPath19"><path
         d="M 0,0 H 95730 V 142127 H 0 Z"
         transform="matrix(0.00262467,0,0,0.00262467,-67.842522,-325.01313)"
         id="path19" /></clipPath><clipPath
       clipPathUnits="userSpaceOnUse"
       id="clipPath21"><path
         d="M 0,0 H 95730 V 142127 H 0 Z"
         id="path21" /></clipPath><clipPath
       clipPathUnits="userSpaceOnUse"
       id="clipPath22"><path
         d="M 0,0 H 95730 V 142127 H 0 Z"
         transform="matrix(0.00262467,0,0,0.00262467,-20.763781,-104.84473)"
         id="path22" /></clipPath><clipPath
       clipPathUnits="userSpaceOnUse"
       id="clipPath24"><path
         d="M 0,0 H 95730 V 142127 H 0 Z"
         id="path24" /></clipPath><clipPath
       clipPathUnits="userSpaceOnUse"
       id="clipPath25"><path
         d="M 0,0 H 95730 V 142127 H 0 Z"
         transform="matrix(0.00262467,0,0,0.00262467,-20.763781,-138.0441)"
         id="path25" /></clipPath><clipPath
       clipPathUnits="userSpaceOnUse"
       id="clipPath26"><path
         d="M 0,0 H 95730 V 142127 H 0 Z"
         transform="matrix(0.00262467,0,0,0.00262467,-20.763781,-156.4441)"
         id="path26" /></clipPath><clipPath
       clipPathUnits="userSpaceOnUse"
       id="clipPath27"><path
         d="M 0,0 H 95730 V 142127 H 0 Z"
         transform="matrix(0.00262467,0,0,0.00262467,-20.763781,-174.8441)"
         id="path27" /></clipPath><clipPath
       clipPathUnits="userSpaceOnUse"
       id="clipPath29"><path
         d="M 0,0 H 95730 V 142127 H 0 Z"
         transform="matrix(0.00262467,0,0,0.00262467,-20.763781,-211.6441)"
         id="path29" /></clipPath><clipPath
       clipPathUnits="userSpaceOnUse"
       id="clipPath30"><path
         d="M 0,0 H 95730 V 142127 H 0 Z"
         transform="matrix(0.00262467,0,0,0.00262467,-20.763781,-230.04409)"
         id="path30" /></clipPath><clipPath
       clipPathUnits="userSpaceOnUse"
       id="clipPath31"><path
         d="M 0,0 H 95730 V 142127 H 0 Z"
         transform="matrix(0.00262467,0,0,0.00262467,-20.763781,-246.04409)"
         id="path31" /></clipPath><clipPath
       clipPathUnits="userSpaceOnUse"
       id="clipPath32"><path
         d="M 0,0 H 95730 V 142127 H 0 Z"
         transform="matrix(0.00262467,0,0,0.00262467,-20.763781,-264.4441)"
         id="path32" /></clipPath><clipPath
       clipPathUnits="userSpaceOnUse"
       id="clipPath33"><path
         d="M 0,0 H 95730 V 142127 H 0 Z"
         transform="matrix(0.00262467,0,0,0.00262467,-20.763781,-282.84409)"
         id="path33" /></clipPath><clipPath
       clipPathUnits="userSpaceOnUse"
       id="clipPath34"><path
         d="M 0,0 H 95730 V 142127 H 0 Z"
         transform="matrix(0.00262467,0,0,0.00262467,-20.763781,-301.24408)"
         id="path34" /></clipPath></defs><g
     id="g1"
     transform="translate(-280.41248,3.068513)"><g
       id="g3"
       transform="matrix(0.90652209,0,0,0.90652209,15.662196,14.643552)"><g
         id="g6"><path
           id="path127"
           d="M 0,0 H 95730 V 142127 H 0 Z"
           style="fill:#000000;fill-opacity:0;fill-rule:evenodd;stroke:none;stroke-width:0.908588"
           transform="matrix(0.00288874,0,0,0.00288874,292.2554,-19.538481)"
           clip-path="url(#clipPath2)" /><rect
           style="fill:#fffdf6;fill-opacity:1;stroke:none;stroke-width:1.61636;stroke-linecap:round;stroke-linejoin:round;stroke-dasharray:1.61636, 3.23271;stroke-dashoffset:0;stroke-opacity:1;paint-order:markers stroke fill"
           id="rect163"
           width="276.96945"
           height="420.95996"
           x="292.05057"
           y="-19.482101"
           ry="16.375546" /><path
           id="path129"
           d="M 5164.4814,1.7620005e-4 H 56064 c 0.125,0 0.242,0.0490288999 0.332,0.13664588995 0.09,0.087617 0.138,0.20645113 0.138,0.33036028 L 56064,13183.115 c 0,2852.265 -2312.22,5164.483 -5164.48,5164.483 H 0 v 0 c -0.25802743,0 -0.4672,-0.211 -0.4672,-0.469 L 0,5164.4814 v 0 C 0,2312.217 2312.217,1.7620005e-4 5164.4814,1.7620005e-4 Z"
           style="fill:#ffd966;fill-opacity:1;fill-rule:evenodd;stroke:none;stroke-width:0.908588"
           transform="matrix(0.00288874,0,0,0.00288874,292.05061,-19.538482)"
           clip-path="url(#clipPath6)" /><text
           id="text129"
           xml:space="preserve"
           transform="matrix(1.1006094,0,0,1.1006094,306.53046,14.578439)"
           clip-path="url(#clipPath7)"
           style="stroke-width:0.908588"><tspan
             style="font-variant:normal;font-weight:500;font-size:18.6667px;font-family:Dosis;writing-mode:lr-tb;fill:#20124d;fill-opacity:1;fill-rule:nonzero;stroke:none;stroke-width:0.908588"
             x="0 9.9866667 14.074666 22.418665 31.789331"
             y="0"
             id="tspan129">Plano Mestre</tspan><tspan
             style="font-variant:normal;font-weight:500;font-size:18.6667px;font-family:Dosis;writing-mode:lr-tb;fill:#20124d;fill-opacity:1;fill-rule:nonzero;stroke:none;stroke-width:0.908588"
             x="0 9.9866667 14.074666 22.418665 31.789331 40.693333"
             y="0"
             id="tspan159" /></text><path
           id="path130"
           d="M 0,18347.506 H 43956 V 33005.64 H 0 Z"
           style="fill:#000000;fill-opacity:0;fill-rule:evenodd;stroke:none;stroke-width:0.908588"
           transform="matrix(0.00288874,0,0,0.00288874,292.2554,-19.538481)"
           clip-path="url(#clipPath9)" /><path
           id="path131"
           d="m 25848,123830 h 43956 v 14112 H 25848 Z"
           style="fill:#000000;fill-opacity:0;fill-rule:evenodd;stroke:none;stroke-width:0.908588"
           transform="matrix(0.00288874,0,0,0.00288874,292.2554,-15.996047)"
           clip-path="url(#clipPath14)" /><path
           id="path132"
           d="M 9,4.8443413 H 96.533646 V 35.238132 H 9 Z"
           style="fill:#000000;fill-opacity:0;fill-rule:nonzero;stroke:none;stroke-width:0.908588"
           transform="matrix(1.1006094,0,0,1.1006094,366.92351,341.71644)"
           clip-path="url(#clipPath16)" /><path
           id="path133"
           d="m 96.533646,-1.5758057 v 0 37.2781057 0 z"
           style="fill:#010000;fill-opacity:0;fill-rule:nonzero;stroke:none;stroke-width:0.908588"
           transform="matrix(1.1006094,0,0,1.1006094,366.92351,341.71644)"
           clip-path="url(#clipPath19)" /><path
           id="path134"
           d="M 4482,30177 H 95478 V 44289 H 4482 Z"
           style="fill:#000000;fill-opacity:0;fill-rule:evenodd;stroke:none;stroke-width:0.908588"
           transform="matrix(0.00288874,0,0,0.00288874,292.2554,-19.538481)"
           clip-path="url(#clipPath21)" /><path
           id="path135"
           d="m 4482,44289 h 89580 v 74592 H 4482 Z"
           style="fill:#000000;fill-opacity:0;fill-rule:evenodd;stroke:none;stroke-width:0.908588"
           transform="matrix(0.00288874,0,0,0.00288874,292.2554,-19.538481)"
           clip-path="url(#clipPath24)" /><text
           id="text135"
           xml:space="preserve"
           transform="matrix(1.323333,0,0,1.323333,303.99474,87.046414)"
           clip-path="url(#clipPath26)"
           style="stroke-width:0.755668"><tspan
             style="font-variant:normal;font-weight:500;font-size:13.3333px;font-family:Dosis;writing-mode:lr-tb;fill:#000000;fill-opacity:1;fill-rule:nonzero;stroke:none;stroke-width:0.755668"
             id="tspan135"
             x="0"
             y="0">Instagram Para Negócios</tspan></text><text
           id="text136"
           xml:space="preserve"
           transform="matrix(1.323333,0,0,1.323333,303.99474,111.90743)"
           clip-path="url(#clipPath27)"
           style="stroke-width:0.755668"><tspan
             style="font-variant:normal;font-weight:500;font-size:13.3333px;font-family:Dosis;writing-mode:lr-tb;fill:#000000;fill-opacity:1;fill-rule:nonzero;stroke:none;stroke-width:0.755668"
             id="tspan136"
             x="0"
             y="0">Destaque-se no Google</tspan></text><text
           id="text137"
           xml:space="preserve"
           transform="matrix(1.323333,0,0,1.323333,304.87955,206.198)"
           clip-path="url(#clipPath29)"
           style="stroke-width:0.755668"><tspan
             style="font-variant:normal;font-weight:500;font-size:13.3333px;font-family:Dosis;writing-mode:lr-tb;fill:#000000;fill-opacity:1;fill-rule:nonzero;stroke:none;stroke-width:0.755668"
             x="0 5.2933331 9.6266661 15.586666 19.586666 25.786667 31.879999 38.239998 40.906666 48.32 52.706665 58.826664 64.786667 71.479996 74.146667 79.639999"
             y="0"
             id="tspan137">Tráfego Orgânico</tspan></text><text
           id="text138"
           xml:space="preserve"
           transform="matrix(1.323333,0,0,1.323333,304.87955,230.54733)"
           clip-path="url(#clipPath30)"
           style="stroke-width:0.755668"><tspan
             style="font-variant:normal;font-weight:500;font-size:13.3333px;font-family:Dosis;writing-mode:lr-tb;fill:#000000;fill-opacity:1;fill-rule:nonzero;stroke:none;stroke-width:0.755668"
             id="tspan138"
             x="0"
             y="0">Tráfego Pago PRO</tspan></text><text
           id="text139"
           xml:space="preserve"
           transform="matrix(1.323333,0,0,1.323333,304.94754,136.25676)"
           clip-path="url(#clipPath31)"
           style="stroke-width:0.755668"><tspan
             style="font-variant:normal;font-weight:500;font-size:13.3333px;font-family:Dosis;writing-mode:lr-tb;fill:#000000;fill-opacity:1;fill-rule:nonzero;stroke:none;stroke-width:0.755668"
             x="0 10.186666 16.386665 22.973333 28.24 30.906666 34.919998"
             y="0"
             id="tspan139">Website PRO</tspan></text><text
           id="text140"
           xml:space="preserve"
           transform="matrix(1.323333,0,0,1.323333,304.11825,254.89666)"
           clip-path="url(#clipPath32)"
           style="stroke-width:0.755668"><tspan
             style="font-variant:normal;font-weight:500;font-size:13.3333px;font-family:Dosis;writing-mode:lr-tb;fill:#000000;fill-opacity:1;fill-rule:nonzero;stroke:none;stroke-width:0.755668"
             x="0 7.2799997 11.84 18.559999 25.146666 31.506666 34.173332 41.026665 46.599998 52.173332 55.09333 61.813332 67.080002 69.746666 75.533333 81.893333 84.559998 89.906662 96.106667 99.026665 105.22666 111.34666 115.68 121.64"
             y="0"
             id="tspan140">Grupo Exclusivo Telegram</tspan></text><text
           id="text141"
           xml:space="preserve"
           transform="matrix(1.323333,0,0,1.323333,305.0629,279.24598)"
           clip-path="url(#clipPath33)"
           style="stroke-width:0.755668"><tspan
             style="font-variant:normal;font-weight:500;font-size:13.3333px;font-family:Dosis;writing-mode:lr-tb;fill:#000000;fill-opacity:1;fill-rule:nonzero;stroke:none;stroke-width:0.755668"
             id="tspan141"
             x="0"
             y="0">2 Consultorias por mês</tspan></text><text
           id="text142"
           xml:space="preserve"
           transform="matrix(1.323333,0,0,1.323333,303.96895,303.59531)"
           clip-path="url(#clipPath34)"
           style="stroke-width:0.755668"><tspan
             style="font-variant:normal;font-weight:500;font-size:13.3333px;font-family:Dosis;writing-mode:lr-tb;fill:#000000;fill-opacity:1;fill-rule:nonzero;stroke:none;stroke-width:0.755668"
             x="0 5.3199997 12.04 18.733334 21.4 24.32 26.986666 33.573334 39.773331 42.439999 48.399998 51.32 55.439999 61.399998 64.066666 71.159996 77.519997 84.119995 89.906662 96.106667 100.62666 105.89333 111.85333"
             y="0"
             id="tspan142">Funil de alta Conversão</tspan></text><text
           id="text143"
           xml:space="preserve"
           transform="matrix(1.323333,0,0,1.323333,303.99474,63.208774)"
           clip-path="url(#clipPath25)"
           style="stroke-width:0.755668"><tspan
             style="font-variant:normal;font-weight:500;font-size:13.3333px;font-family:Dosis;writing-mode:lr-tb;fill:#000000;fill-opacity:1;fill-rule:nonzero;stroke:none;stroke-width:0.755668"
             x="0 8.9866667 15.186666 19.199999 25.559999 32.146667 38.506664 41.173332 48.066666 54.026665 56.946667 62.906666 68.479996 71.146667 77.506668 80.173332 87.68 90.346664 96.466667 99.133331 103.25333 109.21333"
             y="0"
             id="tspan143">Método Palácio Digital</tspan></text><g
           id="g164"
           transform="translate(0,50.781488)"><g
             id="g163"><text
               id="text146"
               xml:space="preserve"
               transform="matrix(1.1006094,0,0,1.1006094,339.54904,299.13204)"
               clip-path="url(#clipPath10)"
               style="fill:#7b1595;fill-opacity:1;stroke-width:0.908588"><tspan
                 style="font-variant:normal;font-weight:normal;font-size:25.3333px;font-family:'Bebas Neue';writing-mode:lr-tb;fill:#7b1595;fill-opacity:1;fill-rule:nonzero;stroke:none;stroke-width:0.908588"
                 x="0 10.209333 20.342667"
                 y="0"
                 id="tspan146">R$ 2.790</tspan></text><g
               id="g147"
               transform="matrix(1.1006094,0,0,1.1006094,321.71274,-32.181592)"
               style="stroke-width:0.908588"><path
                 style="fill:#800080;stroke:#ff0000;stroke-width:0.908588;stroke-linecap:round;stroke-linejoin:round;stroke-dasharray:none;paint-order:markers stroke fill"
                 d="M 11.695435,301.02745 90.302928,283.54747"
                 id="path146" /><path
                 style="fill:#800080;stroke:#ff0000;stroke-width:0.908588;stroke-linecap:round;stroke-linejoin:round;stroke-dasharray:none;paint-order:markers stroke fill"
                 d="m 11.695435,283.54747 78.607493,17.47998"
                 id="path147" /></g></g><text
             id="text147"
             xml:space="preserve"
             transform="matrix(1.1006094,0,0,1.1006094,304.96791,299.51064)"
             clip-path="url(#clipPath22)"
             style="stroke-width:0.908588"><tspan
               style="font-variant:normal;font-weight:700;font-size:17.3333px;font-family:Dosis;writing-mode:lr-tb;fill:#20124d;fill-opacity:1;fill-rule:nonzero;stroke:none;stroke-width:0.908588"
               id="tspan147"
               x="0"
               y="0">De</tspan></text></g><text
           id="text144"
           xml:space="preserve"
           transform="matrix(1.4396181,0,0,1.4396181,338.52034,382.22605)"
           clip-path="url(#clipPath10)"
           style="fill:#008000;stroke-width:0.908588"><tspan
             style="font-variant:normal;font-weight:normal;font-size:25.3333px;font-family:'Bebas Neue';writing-mode:lr-tb;fill:#008000;fill-opacity:1;fill-rule:nonzero;stroke:none;stroke-width:0.908588"
             x="0 10.209333 20.342667"
             y="0"
             id="tspan144">R$ 767</tspan></text><text
           id="text145"
           xml:space="preserve"
           transform="matrix(1.1006094,0,0,1.1006094,417.94903,382.38369)"
           clip-path="url(#clipPath7)"
           style="fill:#20124d;fill-opacity:1;stroke-width:0.908588"><tspan
             style="font-variant:normal;font-weight:500;font-size:18.6667px;font-family:Dosis;writing-mode:lr-tb;fill:#20124d;fill-opacity:1;fill-rule:nonzero;stroke:none;stroke-width:0.908588"
             id="tspan145"
             x="0"
             y="0">mensal</tspan></text><text
           id="text148"
           xml:space="preserve"
           transform="matrix(1.1006094,0,0,1.1006094,304.96791,380.36079)"
           clip-path="url(#clipPath22)"
           style="stroke-width:0.908588"><tspan
             style="font-variant:normal;font-weight:700;font-size:17.3333px;font-family:Dosis;writing-mode:lr-tb;fill:#20124d;fill-opacity:1;fill-rule:nonzero;stroke:none;stroke-width:0.908588"
             id="tspan148"
             x="0"
             y="0">Por</tspan></text><text
           id="text149"
           xml:space="preserve"
           transform="matrix(0.61361153,0,0,0.61361153,523.19743,63.286466)"
           clip-path="url(#clipPath10)"
           style="fill:#7b1595;fill-opacity:1;stroke-width:0.908588"><tspan
             style="font-variant:normal;font-weight:normal;font-size:25.3333px;font-family:'Bebas Neue';writing-mode:lr-tb;fill:#7b1595;fill-opacity:1;fill-rule:nonzero;stroke:none;stroke-width:0.908588"
             x="0 10.209333 20.342667"
             id="tspan149"
             y="0">R$ 97</tspan></text><path
           style="fill:#008000;stroke:#1a1a1a;stroke-width:0.999997;stroke-linecap:round;stroke-linejoin:round;stroke-dasharray:0.999997, 6.00001;stroke-dashoffset:0;paint-order:markers stroke fill"
           d="m 455.79315,62.785721 h 69.29873"
           id="path149" /><path
           style="fill:#008000;stroke:#1a1a1a;stroke-width:0.999991;stroke-linecap:round;stroke-linejoin:round;stroke-dasharray:0.999991, 6.00001;stroke-dashoffset:0;paint-order:markers stroke fill"
           d="m 476.44802,87.138989 h 46.10096"
           id="path150" /><text
           id="text150"
           xml:space="preserve"
           transform="matrix(0.61361153,0,0,0.61361153,522.53624,87.645932)"
           clip-path="url(#clipPath10)"
           style="fill:#7b1595;fill-opacity:1;stroke-width:0.908588"><tspan
             style="font-variant:normal;font-weight:normal;font-size:25.3333px;font-family:'Bebas Neue';writing-mode:lr-tb;fill:#7b1595;fill-opacity:1;fill-rule:nonzero;stroke:none;stroke-width:0.908588"
             x="0 10.209333 20.342667"
             y="0"
             id="tspan150">R$ 357</tspan></text><path
           style="fill:#008000;stroke:#1a1a1a;stroke-width:0.999996;stroke-linecap:round;stroke-linejoin:round;stroke-dasharray:0.999996, 6.00001;stroke-dashoffset:0;paint-order:markers stroke fill"
           d="m 465.74349,111.49226 h 54.9171"
           id="path151" /><text
           id="text151"
           xml:space="preserve"
           transform="matrix(0.61361153,0,0,0.61361153,522.53624,112.00539)"
           clip-path="url(#clipPath10)"
           style="fill:#7b1595;fill-opacity:1;stroke-width:0.908588"><tspan
             style="font-variant:normal;font-weight:normal;font-size:25.3333px;font-family:'Bebas Neue';writing-mode:lr-tb;fill:#7b1595;fill-opacity:1;fill-rule:nonzero;stroke:none;stroke-width:0.908588"
             x="0 10.209333 20.342667"
             y="0"
             id="tspan151">R$ 237</tspan></text><path
           style="fill:#008000;stroke:#1a1a1a;stroke-width:0.999992;stroke-linecap:round;stroke-linejoin:round;stroke-dasharray:0.999992, 6.00001;stroke-dashoffset:0;paint-order:markers stroke fill"
           d="M 394.13182,135.84553 H 517.61206"
           id="path152" /><text
           id="text152"
           xml:space="preserve"
           transform="matrix(0.61361153,0,0,0.61361153,522.53624,136.36486)"
           clip-path="url(#clipPath10)"
           style="fill:#7b1595;fill-opacity:1;stroke-width:0.908588"><tspan
             style="font-variant:normal;font-weight:normal;font-size:25.3333px;font-family:'Bebas Neue';writing-mode:lr-tb;fill:#7b1595;fill-opacity:1;fill-rule:nonzero;stroke:none;stroke-width:0.908588"
             x="0 10.209333 20.342667"
             y="0"
             id="tspan152">R$ 297</tspan></text><text
           id="text153"
           xml:space="preserve"
           transform="matrix(0.61361153,0,0,0.61361153,522.4539,206.31625)"
           clip-path="url(#clipPath10)"
           style="fill:#7b1595;fill-opacity:1;stroke-width:0.908588"><tspan
             style="font-variant:normal;font-weight:normal;font-size:25.3333px;font-family:'Bebas Neue';writing-mode:lr-tb;fill:#7b1595;fill-opacity:1;fill-rule:nonzero;stroke:none;stroke-width:0.908588"
             x="0 10.209333 20.342667"
             id="tspan153"
             y="0">R$ 197</tspan></text><path
           style="fill:#008000;stroke:#1a1a1a;stroke-width:0.999993;stroke-linecap:round;stroke-linejoin:round;stroke-dasharray:0.999993, 6.00001;stroke-dashoffset:0;paint-order:markers stroke fill"
           d="M 421.75601,205.79072 H 519.3768"
           id="path153" /><text
           id="text154"
           xml:space="preserve"
           transform="matrix(0.61361153,0,0,0.61361153,522.46152,230.67571)"
           clip-path="url(#clipPath10)"
           style="fill:#7b1595;fill-opacity:1;stroke-width:0.908588"><tspan
             style="font-variant:normal;font-weight:normal;font-size:25.3333px;font-family:'Bebas Neue';writing-mode:lr-tb;fill:#7b1595;fill-opacity:1;fill-rule:nonzero;stroke:none;stroke-width:0.908588"
             x="0 10.209333 20.342667"
             id="tspan154"
             y="0">R$ 527</tspan></text><path
           style="fill:#008000;stroke:#1a1a1a;stroke-width:0.999999;stroke-linecap:round;stroke-linejoin:round;stroke-dasharray:0.999999, 6.00001;stroke-dashoffset:0;paint-order:markers stroke fill"
           d="m 429.76691,230.144 h 89.25327"
           id="path154" /><text
           id="text156"
           xml:space="preserve"
           transform="matrix(0.61361153,0,0,0.61361153,522.46152,255.03517)"
           clip-path="url(#clipPath10)"
           style="fill:#7b1595;fill-opacity:1;stroke-width:0.908588"><tspan
             style="font-variant:normal;font-weight:normal;font-size:25.3333px;font-family:'Bebas Neue';writing-mode:lr-tb;fill:#7b1595;fill-opacity:1;fill-rule:nonzero;stroke:none;stroke-width:0.908588"
             x="0 10.209333 20.342667"
             id="tspan156"
             y="0">R$ 27</tspan></text><path
           style="fill:#008000;stroke:#1a1a1a;stroke-width:0.999988;stroke-linecap:round;stroke-linejoin:round;stroke-dasharray:0.999988, 6.00001;stroke-dashoffset:0;paint-order:markers stroke fill"
           d="m 483.73437,254.49727 h 37.23112"
           id="path156" /><text
           id="text157"
           xml:space="preserve"
           transform="matrix(0.61361153,0,0,0.61361153,522.46152,279.39464)"
           clip-path="url(#clipPath10)"
           style="fill:#7b1595;fill-opacity:1;stroke-width:0.908588"><tspan
             style="font-variant:normal;font-weight:normal;font-size:25.3333px;font-family:'Bebas Neue';writing-mode:lr-tb;fill:#7b1595;fill-opacity:1;fill-rule:nonzero;stroke:none;stroke-width:0.908588"
             x="0 10.209333 20.342667"
             id="tspan157"
             y="0">R$ 240</tspan></text><path
           style="fill:#008000;stroke:#1a1a1a;stroke-width:0.999997;stroke-linecap:round;stroke-linejoin:round;stroke-dasharray:0.999997, 6.00001;stroke-dashoffset:0;paint-order:markers stroke fill"
           d="m 463.13102,278.85054 h 57.0335"
           id="path157" /><text
           id="text158"
           xml:space="preserve"
           transform="matrix(0.61361153,0,0,0.61361153,522.53624,303.75411)"
           clip-path="url(#clipPath10)"
           style="fill:#7b1595;fill-opacity:1;stroke-width:0.908588"><tspan
             style="font-variant:normal;font-weight:normal;font-size:25.3333px;font-family:'Bebas Neue';writing-mode:lr-tb;fill:#7b1595;fill-opacity:1;fill-rule:nonzero;stroke:none;stroke-width:0.908588"
             x="0 10.209333 20.342667"
             id="tspan158"
             y="0">R$ 187</tspan></text><path
           style="fill:#008000;stroke:#1a1a1a;stroke-width:0.999995;stroke-linecap:round;stroke-linejoin:round;stroke-dasharray:0.999995, 6.00001;stroke-dashoffset:0;paint-order:markers stroke fill"
           d="M 463.39443,303.20381 H 520.4327"
           id="path158" /><rect
           style="fill:#beb7c8;fill-opacity:0;stroke:#bdb2cd;stroke-width:1.7;stroke-linecap:round;stroke-linejoin:round;stroke-dasharray:1.7, 3.4;stroke-dashoffset:0;stroke-opacity:1;paint-order:markers stroke fill"
           id="rect160"
           width="92.886574"
           height="29.403891"
           x="463.28244"
           y="-9.5259743"
           ry="3.6908586" /><text
           xml:space="preserve"
           transform="matrix(1.1770622,0,0,1.2796286,-97.52562,1.2782754)"
           id="text160"
           style="font-size:10.6667px;line-height:0;font-family:Cambo;-inkscape-font-specification:Cambo;text-align:center;letter-spacing:0.5px;word-spacing:-3px;white-space:pre;shape-inside:url(#rect161);display:inline;fill:#1a1a1a;fill-opacity:1;stroke:none;stroke-width:1.38519;stroke-linecap:round;stroke-linejoin:round;stroke-dasharray:1.38519, 4.15555;stroke-dashoffset:0;stroke-opacity:1;paint-order:markers stroke fill"><tspan
             x="481.52073"
             y="7.7126402"
             id="tspan4"><tspan
               style="line-height:1;font-family:Oswald;-inkscape-font-specification:Oswald"
               id="tspan3">RECOMENDADO</tspan></tspan></text><text
           id="text168"
           xml:space="preserve"
           transform="matrix(1.323333,0,0,1.323333,304.94754,181.33699)"
           clip-path="url(#clipPath31)"
           style="stroke-width:0.755668"><tspan
             style="font-variant:normal;font-weight:500;font-size:13.3333px;font-family:Dosis;writing-mode:lr-tb;fill:#000000;fill-opacity:1;fill-rule:nonzero;stroke:none;stroke-width:0.755668"
             id="tspan168"
             x="0"
             y="0">Blog </tspan></text><path
           style="fill:#008000;stroke:#1a1a1a;stroke-width:0.999992;stroke-linecap:round;stroke-linejoin:round;stroke-dasharray:0.999992, 6.00001;stroke-dashoffset:0;paint-order:markers stroke fill"
           d="M 341.18356,180.92576 H 517.61205"
           id="path168" /><text
           id="text169"
           xml:space="preserve"
           transform="matrix(0.61361153,0,0,0.61361153,522.53624,181.44509)"
           clip-path="url(#clipPath10)"
           style="fill:#7b1595;fill-opacity:1;stroke-width:0.908588"><tspan
             style="font-variant:normal;font-weight:normal;font-size:25.3333px;font-family:'Bebas Neue';writing-mode:lr-tb;fill:#7b1595;fill-opacity:1;fill-rule:nonzero;stroke:none;stroke-width:0.908588"
             x="0 10.209333 20.342667"
             y="0"
             id="tspan169">R$ 327</tspan></text><text
           id="text170"
           xml:space="preserve"
           transform="matrix(1.323333,0,0,1.323333,304.94754,159.44164)"
           clip-path="url(#clipPath31)"
           style="stroke-width:0.755668"><tspan
             style="font-variant:normal;font-weight:500;font-size:13.3333px;font-family:Dosis;writing-mode:lr-tb;fill:#000000;fill-opacity:1;fill-rule:nonzero;stroke:none;stroke-width:0.755668"
             id="tspan170"
             x="0"
             y="0">Landing Page</tspan></text><path
           style="fill:#008000;stroke:#1a1a1a;stroke-width:0.99999;stroke-linecap:round;stroke-linejoin:round;stroke-dasharray:0.99999, 6.00001;stroke-dashoffset:0;paint-order:markers stroke fill"
           d="M 398.83315,159.03041 H 517.61206"
           id="path170" /><text
           id="text171"
           xml:space="preserve"
           transform="matrix(0.61361153,0,0,0.61361153,522.53624,159.54974)"
           clip-path="url(#clipPath10)"
           style="fill:#7b1595;fill-opacity:1;stroke-width:0.908588"><tspan
             style="font-variant:normal;font-weight:normal;font-size:25.3333px;font-family:'Bebas Neue';writing-mode:lr-tb;fill:#7b1595;fill-opacity:1;fill-rule:nonzero;stroke:none;stroke-width:0.908588"
             x="0 10.209333 20.342667"
             y="0"
             id="tspan171">R$ 297</tspan></text></g></g></g></svg>
