<?xml version="1.0" encoding="UTF-8" standalone="no"?>
<!-- Created with Inkscape (http://www.inkscape.org/) -->

<svg
   version="1.1"
   id="svg1"
   width="251.66876"
   height="345.05438"
   viewBox="0 0 251.66876 345.05439"
   xml:space="preserve"
   xmlns="http://www.w3.org/2000/svg"
   xmlns:svg="http://www.w3.org/2000/svg"><defs
     id="defs1"><clipPath
       clipPathUnits="userSpaceOnUse"
       id="clipPath2"><path
         d="M 0,0 H 95730 V 142127 H 0 Z"
         id="path2" /></clipPath><clipPath
       clipPathUnits="userSpaceOnUse"
       id="clipPath6"><path
         d="M 0,0 H 95730 V 142127 H 0 Z"
         id="path6" /></clipPath><clipPath
       clipPathUnits="userSpaceOnUse"
       id="clipPath7"><path
         d="M 0,0 H 95730 V 142127 H 0 Z"
         transform="matrix(0.00262467,0,0,0.00262467,-12.970145,-30.99821)"
         id="path7" /></clipPath><clipPath
       clipPathUnits="userSpaceOnUse"
       id="clipPath9"><path
         d="M 0,0 H 95730 V 142127 H 0 Z"
         id="path9" /></clipPath><clipPath
       clipPathUnits="userSpaceOnUse"
       id="clipPath10"><path
         d="M 0,0 H 95730 V 142127 H 0 Z"
         transform="matrix(0.00262467,0,0,0.00262467,-17.106667,-76.512583)"
         id="path10" /></clipPath><clipPath
       clipPathUnits="userSpaceOnUse"
       id="clipPath21"><path
         d="M 0,0 H 95730 V 142127 H 0 Z"
         id="path21" /></clipPath><clipPath
       clipPathUnits="userSpaceOnUse"
       id="clipPath24"><path
         d="M 0,0 H 95730 V 142127 H 0 Z"
         id="path24" /></clipPath><clipPath
       clipPathUnits="userSpaceOnUse"
       id="clipPath25"><path
         d="M 0,0 H 95730 V 142127 H 0 Z"
         transform="matrix(0.00262467,0,0,0.00262467,-20.763781,-138.0441)"
         id="path25" /></clipPath><clipPath
       clipPathUnits="userSpaceOnUse"
       id="clipPath32"><path
         d="M 0,0 H 95730 V 142127 H 0 Z"
         transform="matrix(0.00262467,0,0,0.00262467,-20.763781,-264.4441)"
         id="path32" /></clipPath><clipPath
       clipPathUnits="userSpaceOnUse"
       id="clipPath33"><path
         d="M 0,0 H 95730 V 142127 H 0 Z"
         transform="matrix(0.00262467,0,0,0.00262467,-20.763781,-282.84409)"
         id="path33" /></clipPath></defs><g
     id="g1"
     transform="translate(-625.82471,55.844551)"><path
       id="path171"
       d="M 0,0 H 95730 V 142127 H 0 Z"
       style="fill:#000000;fill-opacity:0;fill-rule:evenodd;stroke:none"
       transform="matrix(0.00262467,0,0,0.00262467,622.77528,-4.1024056)"
       clip-path="url(#clipPath2)" /><g
       id="g272"><rect
         style="fill:#fffdf6;fill-opacity:1;stroke:none;stroke-width:16.2043;stroke-linecap:round;stroke-linejoin:round;paint-order:fill markers stroke"
         id="rect3"
         width="251.66878"
         height="345.00314"
         x="625.82471"
         y="-55.793331"
         ry="13.799943" /><path
         id="path173"
         d="M 5164.4814,1.7620005e-4 H 56064 c 0.125,0 0.242,0.0490288999 0.332,0.13664588995 0.09,0.087617 0.138,0.20645113 0.138,0.33036028 L 56064,13183.115 c 0,2852.265 -2312.22,5164.483 -5164.48,5164.483 H 0 v 0 c -0.25802743,0 -0.4672,-0.211 -0.4672,-0.469 L 0,5164.4814 v 0 C 0,2312.217 2312.217,1.7620005e-4 5164.4814,1.7620005e-4 Z"
         style="fill:#ffd966;fill-opacity:1;fill-rule:evenodd;stroke:none;stroke-width:0.931869"
         transform="matrix(0.00302249,0,0,0.00262467,625.92756,-55.844553)"
         clip-path="url(#clipPath6)" /><text
         id="text173"
         xml:space="preserve"
         transform="translate(639.10181,-24.846343)"
         clip-path="url(#clipPath7)"><tspan
           style="font-variant:normal;font-weight:500;font-size:18.6667px;font-family:Dosis;writing-mode:lr-tb;fill:#20124d;fill-opacity:1;fill-rule:nonzero;stroke:none"
           x="0 9.9866667 14.074666 22.418665 31.789331 40.693333"
           y="0"
           id="tspan173">Plano Personalizado</tspan></text><path
         id="path174"
         d="M 0,18347.506 H 43956 V 33005.64 H 0 Z"
         style="fill:#000000;fill-opacity:0;fill-rule:evenodd;stroke:none"
         transform="matrix(0.00262467,0,0,0.00262467,626.13167,-55.844553)"
         clip-path="url(#clipPath9)" /><path
         id="path178"
         d="M 4482,30177 H 95478 V 44289 H 4482 Z"
         style="fill:#000000;fill-opacity:0;fill-rule:evenodd;stroke:none"
         transform="matrix(0.00262467,0,0,0.00262467,626.13167,-55.844553)"
         clip-path="url(#clipPath21)" /><path
         id="path179"
         d="m 4482,44289 h 89580 v 74592 H 4482 Z"
         style="fill:#000000;fill-opacity:0;fill-rule:evenodd;stroke:none"
         transform="matrix(0.00262467,0,0,0.00262467,626.13167,-55.844553)"
         clip-path="url(#clipPath24)" /><text
         id="text184"
         xml:space="preserve"
         transform="matrix(1.2023639,0,0,1.2023639,636.91011,39.389551)"
         clip-path="url(#clipPath32)"
         style="stroke-width:0.831695"><tspan
           style="font-variant:normal;font-weight:500;font-size:13.3333px;font-family:Dosis;writing-mode:lr-tb;fill:#000000;fill-opacity:1;fill-rule:nonzero;stroke:none;stroke-width:0.831695"
           x="0 7.2799997 11.84 18.559999 25.146666 31.506666 34.173332 41.026665 46.599998 52.173332 55.09333 61.813332 67.080002 69.746666 75.533333 81.893333 84.559998 89.906662 96.106667 99.026665 105.22666 111.34666 115.68 121.64"
           y="0"
           id="tspan184">Grupo Exclusivo Telegram</tspan></text><text
         id="text185"
         xml:space="preserve"
         transform="matrix(1.2023639,0,0,1.2023639,637.7684,60.731193)"
         clip-path="url(#clipPath33)"
         style="stroke-width:0.831695"><tspan
           style="font-variant:normal;font-weight:500;font-size:13.3333px;font-family:Dosis;writing-mode:lr-tb;fill:#000000;fill-opacity:1;fill-rule:nonzero;stroke:none;stroke-width:0.831695"
           id="tspan185"
           x="0"
           y="0">X Consultorias por mês</tspan></text><text
         id="text187"
         xml:space="preserve"
         transform="matrix(1.2023639,0,0,1.2023639,636.79789,19.338575)"
         clip-path="url(#clipPath25)"
         style="stroke-width:0.831695"><tspan
           style="font-variant:normal;font-weight:500;font-size:13.3333px;font-family:Dosis;writing-mode:lr-tb;fill:#000000;fill-opacity:1;fill-rule:nonzero;stroke:none;stroke-width:0.831695"
           x="0 8.9866667 15.186666 19.199999 25.559999 32.146667 38.506664 41.173332 48.066666 54.026665 56.946667 62.906666 68.479996 71.146667 77.506668 80.173332 87.68 90.346664 96.466667 99.133331 103.25333 109.21333"
           y="0"
           id="tspan187">Método Palácio Digital</tspan></text><text
         id="text188"
         xml:space="preserve"
         transform="matrix(1.3080191,0,0,1.3080191,635.88579,267.05428)"
         clip-path="url(#clipPath10)"
         style="fill:#008000"><tspan
           style="font-variant:normal;font-weight:normal;font-size:25.3333px;font-family:'Bebas Neue';writing-mode:lr-tb;fill:#008000;fill-opacity:1;fill-rule:nonzero;stroke:none"
           id="tspan188"
           x="0"
           y="0">cOM O SEU ORÇAMENTO</tspan></text><text
         id="text190"
         xml:space="preserve"
         transform="translate(636.08547,238.0331)"
         clip-path="url(#clipPath10)"
         style="fill:#7b1595;fill-opacity:1"><tspan
           style="font-variant:normal;font-weight:normal;font-size:25.3333px;font-family:'Bebas Neue';writing-mode:lr-tb;fill:#7b1595;fill-opacity:1;fill-rule:nonzero;stroke:none"
           id="tspan190"
           x="0"
           y="0">MONTAMOS SEU PACOTE</tspan></text><text
         id="text193"
         xml:space="preserve"
         transform="matrix(0.55751982,0,0,0.55751982,835.96273,19.409165)"
         clip-path="url(#clipPath10)"
         style="fill:#7b1595;fill-opacity:1"><tspan
           style="font-variant:normal;font-weight:normal;font-size:25.3333px;font-family:'Bebas Neue';writing-mode:lr-tb;fill:#7b1595;fill-opacity:1;fill-rule:nonzero;stroke:none"
           x="0 10.209333 20.342667"
           id="tspan193"
           y="0">R$ 97</tspan></text><path
         style="fill:#008000;stroke:#1a1a1a;stroke-width:0.999997;stroke-linecap:round;stroke-linejoin:round;stroke-dasharray:0.999997, 6;stroke-dashoffset:0;paint-order:markers stroke fill"
         d="m 774.72002,18.954191 h 62.96396"
         id="path193" /><text
         id="text200"
         xml:space="preserve"
         transform="matrix(0.55751982,0,0,0.55751982,835.29409,38.733561)"
         clip-path="url(#clipPath10)"
         style="fill:#7b1595;fill-opacity:1"><tspan
           style="font-variant:normal;font-weight:normal;font-size:25.3333px;font-family:'Bebas Neue';writing-mode:lr-tb;fill:#7b1595;fill-opacity:1;fill-rule:nonzero;stroke:none"
           x="0 10.209333 20.342667"
           id="tspan200"
           y="0">R$ 27</tspan></text><path
         style="fill:#008000;stroke:#1a1a1a;stroke-width:0.999988;stroke-linecap:round;stroke-linejoin:round;stroke-dasharray:0.999988, 6.00001;stroke-dashoffset:0;paint-order:markers stroke fill"
         d="M 800.10706,38.244821 H 833.9348"
         id="path200" /><text
         id="text201"
         xml:space="preserve"
         transform="matrix(0.55751982,0,0,0.55751982,835.29409,60.866263)"
         clip-path="url(#clipPath10)"
         style="fill:#7b1595;fill-opacity:1"><tspan
           style="font-variant:normal;font-weight:normal;font-size:25.3333px;font-family:'Bebas Neue';writing-mode:lr-tb;fill:#7b1595;fill-opacity:1;fill-rule:nonzero;stroke:none"
           x="0 10.209333 20.342667"
           id="tspan201"
           y="0">R$ <tspan
   style="font-size:19.1324px"
   id="tspan203">x</tspan>80</tspan></text><path
         style="fill:#008000;stroke:#1a1a1a;stroke-width:0.999993;stroke-linecap:round;stroke-linejoin:round;stroke-dasharray:0.999993, 6.00001;stroke-dashoffset:0;paint-order:markers stroke fill"
         d="m 773.05483,60.371893 h 60.98551"
         id="path201" /><rect
         style="fill:#fffdf6;fill-opacity:1;stroke:#1a1a1a;stroke-width:3.2;stroke-linecap:round;stroke-linejoin:round;stroke-dasharray:3.2, 6.4;stroke-dashoffset:0;stroke-opacity:1;paint-order:markers stroke fill"
         id="rect205"
         width="220.72174"
         height="133.26877"
         x="638.84674"
         y="70.402832"
         ry="7.2421327" /><g
         id="text230"
         transform="matrix(1.3456468,0,0,1.4314536,-239.22101,-32.416863)"><path
           style="color:#000000;-inkscape-font-specification:Oswald;fill:#000000;stroke-linecap:round;stroke-linejoin:round;-inkscape-stroke:none;paint-order:markers stroke fill"
           d="m 680.42383,135.31445 a 1.1529453,1.1529453 0 0 0 -1.12696,0.91211 l -2,9.33203 a 1.1529453,1.1529453 0 0 0 1.12696,1.39453 h 1.33398 a 1.1529453,1.1529453 0 0 0 1.12696,-0.91015 l 0.20507,-0.96289 0.20703,0.96289 a 1.1529453,1.1529453 0 0 0 1.12696,0.91015 h 1.33398 a 1.1529453,1.1529453 0 0 0 1.12696,-1.39453 l -2,-9.33203 a 1.1529453,1.1529453 0 0 0 -1.12696,-0.91211 z"
           id="path231" /><path
           style="color:#000000;-inkscape-font-specification:Oswald;fill:#fffdf6;stroke-linecap:round;stroke-linejoin:round;-inkscape-stroke:none;paint-order:markers stroke fill"
           d="m 680.42465,142.46719 h 1.33334 l -0.66667,-4.00001 z m -2.00001,3.33335 2.00001,-9.33337 h 1.33334 l 2,9.33337 h -1.33334 l -0.5,-2.33334 h -1.66667 l -0.5,2.33334 z"
           id="path232" /></g><g
         id="text229"
         transform="matrix(1.3456468,0,0,1.4314536,-239.22101,-32.416863)"><path
           style="color:#000000;-inkscape-font-specification:Oswald;fill:#000000;stroke-linecap:round;stroke-linejoin:round;-inkscape-stroke:none;paint-order:markers stroke fill"
           d="m 687.73633,137.88672 c -0.41115,0 -0.78578,0.20354 -1.15235,0.39453 a 1.1529453,1.1529453 0 0 0 -0.30078,-0.30078 h -1.33203 a 1.1529453,1.1529453 0 0 0 -1.15234,1.1543 v 6.66601 a 1.1529453,1.1529453 0 0 0 1.15234,1.15234 h 1.33203 a 1.1529453,1.1529453 0 0 0 1.1543,-1.15234 v -4.21289 c 0.0316,0.009 0.0544,0.006 0.0898,0.0195 a 1.1529453,1.1529453 0 0 0 1.57618,-1.07226 v -1.47461 a 1.1529453,1.1529453 0 0 0 -1.03321,-1.14649 c -0.0675,-0.007 -0.11917,-0.0116 -0.16015,-0.0156 -0.041,-0.004 0.0875,-0.0117 -0.17383,-0.0117 z"
           id="path233" /><path
           style="color:#000000;-inkscape-font-specification:Oswald;fill:#fffdf6;stroke-linecap:round;stroke-linejoin:round;-inkscape-stroke:none;paint-order:markers stroke fill"
           d="m 684.95069,145.80054 v -6.66669 h 1.33333 v 0.89063 q 0.20313,-0.39584 0.58855,-0.6875 0.39062,-0.29688 0.86458,-0.29688 0.0156,0 0.21354,0.0208 v 1.47397 q -0.36979,-0.14584 -0.73958,-0.14584 -0.41667,0 -0.67188,0.25 -0.25521,0.25 -0.25521,0.66146 v 4.50002 z"
           id="path234" /></g><g
         id="text228"
         transform="matrix(1.3456468,0,0,1.4314536,-239.22101,-32.416863)"><path
           style="color:#000000;-inkscape-font-specification:Oswald;fill:#000000;stroke-linecap:round;stroke-linejoin:round;-inkscape-stroke:none;paint-order:markers stroke fill"
           d="m 691.8457,137.88672 c -0.41115,0 -0.78578,0.20355 -1.15234,0.39453 a 1.1529453,1.1529453 0 0 0 -0.30078,-0.30078 h -1.33203 a 1.1529453,1.1529453 0 0 0 -1.15235,1.1543 v 6.66601 a 1.1529453,1.1529453 0 0 0 1.15235,1.15234 h 1.33203 a 1.1529453,1.1529453 0 0 0 1.15429,-1.15234 v -4.21289 c 0.0316,0.009 0.0544,0.006 0.0898,0.0195 a 1.1529453,1.1529453 0 0 0 1.57617,-1.07226 v -1.47461 a 1.1529453,1.1529453 0 0 0 -1.0332,-1.14649 c -0.0676,-0.007 -0.11918,-0.0116 -0.16016,-0.0156 -0.041,-0.004 0.0876,-0.0117 -0.17383,-0.0117 z"
           id="path235" /><path
           style="color:#000000;-inkscape-font-specification:Oswald;fill:#fffdf6;stroke-linecap:round;stroke-linejoin:round;-inkscape-stroke:none;paint-order:markers stroke fill"
           d="m 689.06012,145.80054 v -6.66669 h 1.33334 v 0.89063 q 0.20312,-0.39584 0.58854,-0.6875 0.39063,-0.29688 0.86459,-0.29688 0.0156,0 0.21354,0.0208 v 1.47397 q -0.36979,-0.14584 -0.73958,-0.14584 -0.41667,0 -0.67188,0.25 -0.25521,0.25 -0.25521,0.66146 v 4.50002 z"
           id="path236" /></g><g
         id="text227"
         transform="matrix(1.3456468,0,0,1.4314536,-239.22101,-32.416863)"><path
           style="color:#000000;-inkscape-font-specification:Oswald;fill:#000000;stroke-linecap:round;stroke-linejoin:round;-inkscape-stroke:none;paint-order:markers stroke fill"
           d="m 694.99805,137.88672 c -0.85771,0 -1.72584,0.30858 -2.3086,0.9375 -0.56794,0.61291 -0.83455,1.44955 -0.84375,2.29687 a 1.1529453,1.1529453 0 0 0 0.74414,0.9961 l 0.004,-0.004 c -8.7e-4,0.001 -10e-4,0.003 -0.002,0.004 -0.2065,0.2676 -0.35977,0.55708 -0.4961,0.88086 a 1.1529453,1.1529453 0 0 0 -0.004,0.0137 c -0.16975,0.41615 -0.2461,0.86344 -0.2461,1.31445 0,0.64792 0.23242,1.30098 0.63477,1.80664 a 1.1529453,1.1529453 0 0 0 0.01,0.01 c 0.43007,0.52755 1.13791,0.9043 1.83985,0.90429 a 1.1529453,1.1529453 0 0 0 0.002,0 c 0.26547,0 0.53983,-0.0418 0.80274,-0.13671 0.13839,-0.05 0.27297,-0.12957 0.4082,-0.20704 a 1.1529453,1.1529453 0 0 0 0.29883,0.25 h 1.32812 a 1.1529453,1.1529453 0 0 0 1.11133,-1.45898 c -0.0712,-0.25878 -0.13086,-0.72834 -0.13086,-1.35937 v -3 c 0,-0.84566 -0.2745,-1.68883 -0.8457,-2.30079 -0.58149,-0.62932 -1.4492,-0.94726 -2.30664,-0.94726 z m -1.3711,4.73437 c -0.002,0.002 -0.002,0.005 -0.004,0.008 -0.003,0.004 -0.007,0.006 -0.01,0.01 z"
           id="path237" /><path
           style="color:#000000;-inkscape-font-specification:Oswald;fill:#fffdf6;stroke-linecap:round;stroke-linejoin:round;-inkscape-stroke:none;paint-order:markers stroke fill"
           d="m 694.99763,144.80053 q 0.14062,0 0.27083,-0.0833 0.13542,-0.0833 0.20313,-0.16146 0.0677,-0.0781 0.16666,-0.20833 0.0156,-0.026 0.0261,-0.0365 v -1.84376 q -0.0833,0.0573 -0.27605,0.17709 -0.19271,0.11979 -0.30729,0.19791 -0.11458,0.0729 -0.27604,0.20834 -0.16146,0.13021 -0.25,0.25521 -0.0885,0.11979 -0.15625,0.29687 -0.0677,0.17709 -0.0677,0.3698 0,0.82812 0.66667,0.82812 z m -0.66667,1.09376 q -0.55729,0 -0.94792,-0.47917 -0.38542,-0.48438 -0.38542,-1.08855 0,-0.48437 0.16146,-0.88021 0.16667,-0.39583 0.34896,-0.63021 0.18229,-0.23958 0.60938,-0.48958 0.42708,-0.25521 0.64583,-0.34896 0.21875,-0.0937 0.76042,-0.30729 0.0937,-0.0365 0.14063,-0.0573 v -0.47916 q 0,-0.50521 -0.14063,-0.78126 -0.14062,-0.28125 -0.52604,-0.28125 -0.34375,0 -0.4948,0.23959 -0.14583,0.23437 -0.16666,0.65104 -0.005,0.0573 -0.005,0.17188 h -1.33334 q 0.0104,-0.95834 0.53646,-1.52605 0.52604,-0.56771 1.46355,-0.56771 0.93229,0 1.46354,0.57813 0.53646,0.57291 0.53646,1.51563 v 3.00001 q 0,1.04167 0.17188,1.66667 h -1.32813 l -0.17708,-1.00001 q -0.10417,0.20834 -0.17188,0.32292 -0.0625,0.11459 -0.1875,0.28646 -0.125,0.16667 -0.25,0.26042 -0.125,0.0885 -0.3125,0.15625 -0.1875,0.0677 -0.41146,0.0677 z"
           id="path238" /></g><g
         id="text226"
         transform="matrix(1.3456468,0,0,1.4314536,-239.22101,-32.416863)"><path
           style="color:#000000;-inkscape-font-specification:Oswald;fill:#000000;stroke-linecap:round;stroke-linejoin:round;-inkscape-stroke:none;paint-order:markers stroke fill"
           d="m 700.39258,137.88672 c -0.79868,0 -1.58649,0.21591 -2.19336,0.71875 a 1.1529453,1.1529453 0 0 0 -0.004,0.004 c -0.63455,0.53083 -0.95508,1.37828 -0.95508,2.19141 0,0.29421 0.0415,0.59085 0.13477,0.87695 a 1.1529453,1.1529453 0 0 0 0.008,0.0215 c 0.0975,0.2803 0.24538,0.54911 0.4336,0.78125 0.13542,0.16702 0.27567,0.31915 0.43164,0.45898 a 1.1529453,1.1529453 0 0 0 0.0176,0.0156 c 0.002,0.001 0.004,0.002 0.006,0.004 l -0.24218,0.082 a 1.1529453,1.1529453 0 0 0 -0.75782,1.35546 c 0.16188,0.69371 0.49081,1.33589 0.98829,1.82813 a 1.1529453,1.1529453 0 0 0 0.004,0.004 c 0.55923,0.54758 1.35167,0.81835 2.12891,0.81835 0.79718,0 1.5847,-0.21451 2.18945,-0.71875 0.63862,-0.52914 0.96485,-1.37788 0.96484,-2.19335 0,-0.30075 -0.0396,-0.60398 -0.125,-0.89454 -0.0852,-0.28981 -0.21779,-0.5685 -0.39453,-0.81836 -0.12128,-0.17463 -0.25697,-0.33395 -0.40234,-0.48437 l 0.13281,-0.043 a 1.1529453,1.1529453 0 0 0 0.75781,-1.35937 c -0.0771,-0.32676 -0.18951,-0.63895 -0.33984,-0.93164 -0.15072,-0.30338 -0.34817,-0.58503 -0.58203,-0.83008 -0.27765,-0.29445 -0.62477,-0.51945 -0.99414,-0.66407 -0.38407,-0.1538 -0.79589,-0.22265 -1.20703,-0.22265 z m 0.91211,1.32226 0.0234,0.0137 c -0.003,-0.002 -0.008,-1e-5 -0.0117,-0.002 -0.005,-0.003 -0.007,-0.009 -0.0117,-0.0117 z m 0.67383,0.58985 0.008,0.0117 c -8e-4,-0.001 -0.003,-8.5e-4 -0.004,-0.002 -0.002,-0.003 -0.002,-0.007 -0.004,-0.01 z"
           id="path239" /><path
           style="color:#000000;-inkscape-font-specification:Oswald;fill:#fffdf6;stroke-linecap:round;stroke-linejoin:round;-inkscape-stroke:none;paint-order:markers stroke fill"
           d="m 700.39344,145.89429 q -0.82292,0 -1.32292,-0.48959 -0.49479,-0.48958 -0.67709,-1.27083 l 1.00001,-0.33334 q 0.35937,1 1,1 0.31771,0 0.48958,-0.17187 0.17709,-0.17709 0.17709,-0.49479 0,-0.46355 -0.33334,-0.77084 l -1.33333,-1 q -0.22396,-0.15105 -0.375,-0.28125 -0.15105,-0.13542 -0.3073,-0.32813 -0.15625,-0.19271 -0.23958,-0.43229 -0.0781,-0.23959 -0.0781,-0.52084 0,-0.85417 0.54167,-1.30729 0.54688,-0.45313 1.45834,-0.45313 0.43229,0 0.78125,0.14062 0.34896,0.13542 0.58334,0.38542 0.23958,0.25 0.39062,0.5573 0.15625,0.30208 0.2448,0.67708 l -1.00001,0.33334 q -0.0729,-0.19792 -0.14583,-0.33855 -0.0729,-0.14583 -0.19792,-0.3125 -0.11979,-0.16667 -0.28646,-0.25521 -0.16666,-0.0937 -0.36979,-0.0937 -0.31771,0 -0.49479,0.17709 -0.17188,0.17187 -0.17188,0.48958 0,0.3125 0.33334,0.5625 l 1.33333,1.00001 q 0.22396,0.17708 0.38021,0.34375 0.16146,0.16146 0.3125,0.38021 0.15105,0.21354 0.22917,0.47917 0.0781,0.26562 0.0781,0.56771 0,0.85416 -0.54688,1.30729 -0.54167,0.45313 -1.45313,0.45313 z"
           id="path240" /></g><g
         id="text225"
         transform="matrix(1.3456468,0,0,1.4314536,-239.22101,-32.416863)"><path
           style="color:#000000;-inkscape-font-specification:Oswald;fill:#000000;stroke-linecap:round;stroke-linejoin:round;-inkscape-stroke:none;paint-order:markers stroke fill"
           d="m 704.04492,135.64844 a 1.1529453,1.1529453 0 0 0 -1.15234,1.15234 v 1.66406 a 1.1529453,1.1529453 0 0 0 -0.66797,0.66993 v 1 a 1.1529453,1.1529453 0 0 0 0.66797,0.66796 v 3.47657 a 1.1529453,1.1529453 0 0 0 0,0.0156 c 0.009,0.7067 0.16426,1.40824 0.65234,1.96094 a 1.1529453,1.1529453 0 0 0 0.006,0.006 c 0.51851,0.57863 1.28364,0.78516 2.00391,0.78515 0.28965,0 0.60315,-0.0249 0.96679,-0.0703 a 1.1529453,1.1529453 0 0 0 1.00977,-1.14453 v -1.08398 a 1.1529453,1.1529453 0 0 0 -1,-1.04102 v -2.57422 a 1.1529453,1.1529453 0 0 0 1,-0.99804 v -1 a 1.1529453,1.1529453 0 0 0 -1,-1 v -1.33399 a 1.1529453,1.1529453 0 0 0 -1.1543,-1.15234 z m 0.66602,3.97265 a 1.1529453,1.1529453 0 0 0 0.0137,0.0137 1.1529453,1.1529453 0 0 0 -0.0137,0.0137 1.1529453,1.1529453 0 0 0 -0.0137,-0.0137 1.1529453,1.1529453 0 0 0 0.0137,-0.0137 z"
           id="path241" /><path
           style="color:#000000;-inkscape-font-specification:Oswald;fill:#fffdf6;stroke-linecap:round;stroke-linejoin:round;-inkscape-stroke:none;paint-order:markers stroke fill"
           d="m 705.55496,145.89429 q -0.78646,0 -1.14584,-0.40105 -0.35416,-0.40104 -0.36458,-1.21354 v -4.14585 h -0.66667 v -1 h 0.66667 v -2.33334 h 1.33334 v 2.33334 h 1 v 1 h -1 v 3.89064 q 0,0.40104 0.10937,0.58854 0.10938,0.1875 0.44271,0.1875 0.14583,0 0.44792,-0.0521 v 1.08334 q -0.5,0.0625 -0.82292,0.0625 z"
           id="path242" /></g><g
         id="text224"
         transform="matrix(1.3456468,0,0,1.4314536,-239.22101,-32.416863)"><path
           style="color:#000000;-inkscape-font-specification:Oswald;fill:#000000;stroke-linecap:round;stroke-linejoin:round;-inkscape-stroke:none;paint-order:markers stroke fill"
           d="m 709.69531,137.88672 c -0.43503,0 -0.86758,0.0726 -1.27148,0.24414 -9.8e-4,4.1e-4 -0.003,-4.1e-4 -0.004,0 -0.36236,0.15264 -0.70359,0.38031 -0.97461,0.68359 a 1.1529453,1.1529453 0 0 0 -0.01,0.01 c -0.25739,0.29504 -0.43811,0.63584 -0.56641,0.99609 -0.11657,0.32731 -0.19925,0.66578 -0.24805,1.01172 a 1.1529453,1.1529453 0 0 0 -0.002,0.0117 c -0.0411,0.31601 -0.0649,0.66035 -0.0762,1.03711 -0.0109,0.31056 -0.0106,0.62108 0,0.93164 0.007,0.39842 0.0281,0.75663 0.0645,1.08398 a 1.1529453,1.1529453 0 0 0 0.002,0.0156 c 0.0435,0.34759 0.11904,0.69309 0.22461,1.03516 a 1.1529453,1.1529453 0 0 0 0,0.004 c 0.11781,0.37698 0.28308,0.73186 0.52539,1.04688 a 1.1529453,1.1529453 0 0 0 0.0156,0.0195 c 0.26359,0.32788 0.60578,0.58033 0.97461,0.7539 a 1.1529453,1.1529453 0 0 0 0.006,0.002 c 0.41892,0.19429 0.87493,0.27344 1.33008,0.27343 0.87444,0 1.7598,-0.27744 2.33984,-0.93945 0.5522,-0.63026 0.77406,-1.44908 0.8125,-2.32422 a 1.1529453,1.1529453 0 0 0 0,-0.0508 v -0.26562 a 1.1529453,1.1529453 0 0 0 -0.49414,-0.49414 1.1529453,1.1529453 0 0 0 0.50391,-0.50586 v -0.15625 c 0,-0.35409 -0.011,-0.67465 -0.0352,-0.96875 -0.0208,-0.29333 -0.0582,-0.58895 -0.11328,-0.88477 v -0.004 c -0.0641,-0.34676 -0.1671,-0.67702 -0.33008,-0.98828 -0.14285,-0.27888 -0.32749,-0.53637 -0.54492,-0.76172 -0.27742,-0.29576 -0.6332,-0.51131 -1.00391,-0.63671 -0.36276,-0.127 -0.74118,-0.17969 -1.125,-0.17969 z m 1.61719,7.00781 -0.0117,0.0293 c 0.003,-0.007 0.003,-0.0161 0.006,-0.0234 9.5e-4,-0.002 0.005,-0.003 0.006,-0.006 z"
           id="path243" /><path
           style="color:#000000;-inkscape-font-specification:Oswald;fill:#fffdf6;stroke-linecap:round;stroke-linejoin:round;-inkscape-stroke:none;paint-order:markers stroke fill"
           d="m 709.68517,145.89429 q -0.48438,0 -0.84375,-0.16667 -0.35417,-0.16667 -0.56771,-0.43229 -0.20834,-0.27084 -0.33855,-0.6875 -0.13021,-0.42188 -0.18229,-0.83855 -0.0469,-0.42188 -0.0573,-0.97917 -0.0156,-0.4375 0,-0.875 0.0156,-0.52084 0.0677,-0.92188 0.0573,-0.40625 0.19271,-0.78646 0.13541,-0.38021 0.34896,-0.625 0.21875,-0.24479 0.56771,-0.39063 0.35416,-0.15104 0.82291,-0.15104 0.42709,0 0.75001,0.11458 0.32812,0.10938 0.54167,0.33855 0.21875,0.22395 0.35937,0.5 0.14584,0.27604 0.21875,0.67187 0.0729,0.39063 0.099,0.77084 0.0312,0.38021 0.0312,0.875 v 0.15625 h -2.66667 v 0.33334 q 0,0.0677 0,0.21354 -0.0104,0.19271 -0.005,0.40104 0.0104,0.20313 0.0208,0.40105 0.0104,0.19791 0.0573,0.38021 0.0469,0.17708 0.11459,0.3125 0.0677,0.13541 0.1875,0.21354 0.125,0.0781 0.29166,0.0781 0.20834,0 0.34376,-0.0781 0.13541,-0.0833 0.19791,-0.24479 0.0677,-0.16146 0.0937,-0.32292 0.026,-0.16146 0.0312,-0.40625 v -0.28125 h 1.32292 v 0.26562 q -0.0469,1.06771 -0.52604,1.61459 -0.47917,0.54688 -1.47396,0.54688 z m -0.65625,-4.09377 h 1.32292 v -0.40104 q -0.005,-0.26562 -0.0312,-0.46354 -0.026,-0.19792 -0.0937,-0.39584 -0.0625,-0.19791 -0.19792,-0.30208 -0.13542,-0.10417 -0.33334,-0.10417 -0.20312,0 -0.34375,0.10938 -0.13541,0.10937 -0.20312,0.31771 -0.0625,0.20312 -0.0885,0.40104 -0.026,0.19792 -0.0312,0.47396 z"
           id="path244" /></g><g
         id="text223"
         transform="matrix(1.3456468,0,0,1.4314536,-239.22101,-32.416863)"><path
           style="color:#000000;-inkscape-font-specification:Oswald;fill:#000000;stroke-linecap:round;stroke-linejoin:round;-inkscape-stroke:none;paint-order:markers stroke fill"
           d="m 718.5918,137.88672 c -0.79868,0 -1.58649,0.21591 -2.19336,0.71875 a 1.1529453,1.1529453 0 0 0 -0.006,0.004 c -0.63456,0.53083 -0.95313,1.37828 -0.95313,2.19141 0,0.29421 0.0415,0.59085 0.13477,0.87695 a 1.1529453,1.1529453 0 0 0 0.006,0.0215 c 0.0975,0.2803 0.24538,0.54911 0.43359,0.78125 0.13542,0.16701 0.27765,0.31916 0.4336,0.45898 a 1.1529453,1.1529453 0 0 0 0.0156,0.0156 c 0.002,0.001 0.004,0.002 0.006,0.004 l -0.24219,0.082 a 1.1529453,1.1529453 0 0 0 -0.75781,1.35546 c 0.16187,0.69372 0.49079,1.33589 0.98828,1.82813 a 1.1529453,1.1529453 0 0 0 0.006,0.004 c 0.55923,0.54758 1.35167,0.81836 2.12891,0.81835 0.79654,0 1.58294,-0.21538 2.1875,-0.71875 0.63861,-0.52914 0.96484,-1.37788 0.96484,-2.19335 0,-0.30075 -0.0396,-0.60398 -0.125,-0.89454 -0.0852,-0.28979 -0.21782,-0.56852 -0.39453,-0.81836 -0.12126,-0.17459 -0.25506,-0.33398 -0.40039,-0.48437 l 0.13086,-0.043 a 1.1529453,1.1529453 0 0 0 0.75781,-1.35937 c -0.0767,-0.32473 -0.18704,-0.63466 -0.33594,-0.92579 -0.15031,-0.30417 -0.34625,-0.58622 -0.58008,-0.83203 l -0.002,-0.002 c -0.27815,-0.29603 -0.62733,-0.52087 -0.99805,-0.66602 -0.38406,-0.1538 -0.79393,-0.22265 -1.20507,-0.22265 z m 0.91015,1.32226 0.0234,0.0137 c -0.004,-0.002 -0.008,-1e-5 -0.0117,-0.002 -0.005,-0.003 -0.007,-0.009 -0.0117,-0.0117 z m 0.67383,0.58985 0.008,0.0117 c -7.9e-4,-0.001 -0.003,-8.5e-4 -0.004,-0.002 -0.002,-0.003 -0.002,-0.007 -0.004,-0.01 z"
           id="path245" /><path
           style="color:#000000;-inkscape-font-specification:Oswald;fill:#fffdf6;stroke-linecap:round;stroke-linejoin:round;-inkscape-stroke:none;paint-order:markers stroke fill"
           d="m 718.59144,145.89429 q -0.82292,0 -1.32292,-0.48959 -0.4948,-0.48958 -0.67709,-1.27083 l 1,-0.33334 q 0.35938,1 1.00001,1 0.31771,0 0.48958,-0.17187 0.17709,-0.17709 0.17709,-0.49479 0,-0.46355 -0.33334,-0.77084 l -1.33334,-1 q -0.22395,-0.15105 -0.375,-0.28125 -0.15104,-0.13542 -0.30729,-0.32813 -0.15625,-0.19271 -0.23958,-0.43229 -0.0781,-0.23959 -0.0781,-0.52084 0,-0.85417 0.54167,-1.30729 0.54688,-0.45313 1.45834,-0.45313 0.43229,0 0.78125,0.14062 0.34896,0.13542 0.58334,0.38542 0.23958,0.25 0.39062,0.5573 0.15625,0.30208 0.24479,0.67708 l -1,0.33334 q -0.0729,-0.19792 -0.14583,-0.33855 -0.0729,-0.14583 -0.19792,-0.3125 -0.11979,-0.16667 -0.28646,-0.25521 -0.16667,-0.0937 -0.36979,-0.0937 -0.31771,0 -0.4948,0.17709 -0.17187,0.17187 -0.17187,0.48958 0,0.3125 0.33333,0.5625 l 1.33334,1.00001 q 0.22396,0.17708 0.38021,0.34375 0.16146,0.16146 0.3125,0.38021 0.15104,0.21354 0.22917,0.47917 0.0781,0.26562 0.0781,0.56771 0,0.85416 -0.54687,1.30729 -0.54167,0.45313 -1.45313,0.45313 z"
           id="path246" /></g><g
         id="text222"
         transform="matrix(1.3456468,0,0,1.4314536,-239.22101,-32.416863)"><path
           style="color:#000000;-inkscape-font-specification:Oswald;fill:#000000;stroke-linecap:round;stroke-linejoin:round;-inkscape-stroke:none;paint-order:markers stroke fill"
           d="m 721.88867,137.98047 a 1.1529453,1.1529453 0 0 0 -1.15234,1.1543 v 5.68164 c 0,0.52825 0.18186,1.09733 0.53906,1.51757 a 1.1529453,1.1529453 0 0 0 0.006,0.008 c 0.38186,0.44176 1.01459,0.70507 1.57617,0.70507 0.23683,0 0.47352,-0.0264 0.70508,-0.082 0.18074,-0.0402 0.3516,-0.0866 0.52734,-0.1582 a 1.1529453,1.1529453 0 0 0 0.0176,-0.01 c 0.0689,-0.0295 0.12274,-0.0719 0.18555,-0.10546 a 1.1529453,1.1529453 0 0 0 0.26172,0.26171 h 1.33398 a 1.1529453,1.1529453 0 0 0 1.15235,-1.15234 v -6.66601 a 1.1529453,1.1529453 0 0 0 -1.15235,-1.1543 h -1.33398 a 1.1529453,1.1529453 0 0 0 -0.66602,0.66797 1.1529453,1.1529453 0 0 0 -0.66797,-0.66797 z"
           id="path247" /><path
           style="color:#000000;-inkscape-font-specification:Oswald;fill:#fffdf6;stroke-linecap:round;stroke-linejoin:round;-inkscape-stroke:none;paint-order:markers stroke fill"
           d="m 722.85706,145.89429 q -0.4375,0 -0.70313,-0.3073 -0.26562,-0.3125 -0.26562,-0.77083 v -5.68231 h 1.33334 v 5.27606 q 0,0.20833 0.125,0.33854 0.1302,0.13021 0.33333,0.13021 0.10938,0 0.21354,-0.026 0.10417,-0.026 0.20313,-0.0885 0.10416,-0.0677 0.16146,-0.10417 0.0573,-0.0417 0.16146,-0.13542 0.10937,-0.0937 0.13541,-0.11458 v -5.27606 h 1.33334 v 6.66669 h -1.33334 v -0.71876 q -0.19791,0.17188 -0.29166,0.25001 -0.0886,0.0781 -0.27605,0.21354 -0.1875,0.13021 -0.33333,0.19271 -0.14063,0.0573 -0.35417,0.10416 -0.21354,0.0521 -0.44271,0.0521 z"
           id="path248" /></g><g
         id="text221"
         transform="matrix(1.3456468,0,0,1.4314536,-239.22101,-32.416863)"><path
           style="color:#000000;-inkscape-font-specification:Oswald;fill:#000000;stroke-linecap:round;stroke-linejoin:round;-inkscape-stroke:none;paint-order:markers stroke fill"
           d="m 729.37305,137.88672 c -0.8577,0 -1.72584,0.30859 -2.3086,0.9375 -0.56794,0.61291 -0.83455,1.44955 -0.84375,2.29687 a 1.1529453,1.1529453 0 0 0 0.74414,0.9961 l 0.004,-0.004 c -8.7e-4,0.001 -10e-4,0.003 -0.002,0.004 -0.2065,0.2676 -0.35977,0.55708 -0.4961,0.88086 a 1.1529453,1.1529453 0 0 0 -0.004,0.0137 c -0.16975,0.41615 -0.2461,0.86344 -0.2461,1.31445 0,0.64792 0.23242,1.30098 0.63477,1.80664 a 1.1529453,1.1529453 0 0 0 0.01,0.01 c 0.43007,0.52755 1.13791,0.90429 1.83985,0.90429 a 1.1529453,1.1529453 0 0 0 0.002,0 c 0.26547,0 0.53983,-0.0418 0.80274,-0.13671 0.13839,-0.05 0.27297,-0.12957 0.4082,-0.20704 a 1.1529453,1.1529453 0 0 0 0.29883,0.25 h 1.32812 a 1.1529453,1.1529453 0 0 0 1.11133,-1.45898 c -0.0712,-0.25878 -0.13086,-0.72834 -0.13086,-1.35937 v -3 c 0,-0.84566 -0.2745,-1.68883 -0.8457,-2.30079 -0.58149,-0.62932 -1.4492,-0.94726 -2.30664,-0.94726 z m -1.3711,4.73437 c -0.002,0.002 -0.002,0.005 -0.004,0.008 -0.003,0.004 -0.007,0.006 -0.01,0.01 z"
           id="path249" /><path
           style="color:#000000;-inkscape-font-specification:Oswald;fill:#fffdf6;stroke-linecap:round;stroke-linejoin:round;-inkscape-stroke:none;paint-order:markers stroke fill"
           d="m 729.37269,144.80053 q 0.14062,0 0.27083,-0.0833 0.13542,-0.0833 0.20313,-0.16146 0.0677,-0.0781 0.16667,-0.20833 0.0156,-0.026 0.026,-0.0365 v -1.84376 q -0.0833,0.0573 -0.27605,0.17709 -0.1927,0.11979 -0.30729,0.19791 -0.11458,0.0729 -0.27604,0.20834 -0.16146,0.13021 -0.25,0.25521 -0.0885,0.11979 -0.15625,0.29687 -0.0677,0.17709 -0.0677,0.3698 0,0.82812 0.66667,0.82812 z m -0.66667,1.09376 q -0.55729,0 -0.94792,-0.47917 -0.38542,-0.48438 -0.38542,-1.08855 0,-0.48437 0.16146,-0.88021 0.16667,-0.39583 0.34896,-0.63021 0.18229,-0.23958 0.60938,-0.48958 0.42708,-0.25521 0.64583,-0.34896 0.21875,-0.0937 0.76042,-0.30729 0.0937,-0.0365 0.14063,-0.0573 v -0.47916 q 0,-0.50521 -0.14063,-0.78126 -0.14062,-0.28125 -0.52604,-0.28125 -0.34375,0 -0.49479,0.23959 -0.14584,0.23437 -0.16667,0.65104 -0.005,0.0573 -0.005,0.17188 h -1.33334 q 0.0104,-0.95834 0.53646,-1.52605 0.52605,-0.56771 1.46355,-0.56771 0.93229,0 1.46354,0.57813 0.53646,0.57291 0.53646,1.51563 v 3.00001 q 0,1.04167 0.17188,1.66667 h -1.32813 l -0.17708,-1.00001 q -0.10417,0.20834 -0.17188,0.32292 -0.0625,0.11459 -0.1875,0.28646 -0.125,0.16667 -0.25,0.26042 -0.125,0.0885 -0.3125,0.15625 -0.1875,0.0677 -0.41146,0.0677 z"
           id="path250" /></g><g
         id="text220"
         transform="matrix(1.3456468,0,0,1.4314536,-239.22101,-32.416863)"><path
           style="color:#000000;-inkscape-font-specification:Oswald;fill:#000000;stroke-linecap:round;stroke-linejoin:round;-inkscape-stroke:none;paint-order:markers stroke fill"
           d="m 734.76953,137.88672 c -0.79868,0 -1.58844,0.21591 -2.19531,0.71875 a 1.1529453,1.1529453 0 0 0 -0.004,0.004 c -0.63455,0.53083 -0.95508,1.37828 -0.95508,2.19141 0,0.29421 0.0415,0.59085 0.13477,0.87695 a 1.1529453,1.1529453 0 0 0 0.008,0.0215 c 0.0975,0.28031 0.24537,0.54911 0.4336,0.78125 0.13541,0.16701 0.27569,0.31916 0.43164,0.45898 a 1.1529453,1.1529453 0 0 0 0.0176,0.0156 c 0.002,0.001 0.004,0.002 0.006,0.004 l -0.24218,0.082 a 1.1529453,1.1529453 0 0 0 -0.75782,1.35546 c 0.16187,0.69371 0.49081,1.33589 0.98829,1.82813 a 1.1529453,1.1529453 0 0 0 0.004,0.004 c 0.55666,0.54506 1.3473,0.81196 2.1211,0.81445 0.003,10e-6 0.005,0.004 0.008,0.004 6.4e-4,0 10e-4,1e-5 0.002,0 0.79653,-3.4e-4 1.58324,-0.21491 2.1875,-0.71875 0.63862,-0.52914 0.96484,-1.37788 0.96484,-2.19335 0,-0.30075 -0.0396,-0.60398 -0.125,-0.89454 -0.0852,-0.2898 -0.21781,-0.56851 -0.39453,-0.81836 -0.12126,-0.17459 -0.25506,-0.33399 -0.40039,-0.48437 l 0.13086,-0.043 a 1.1529453,1.1529453 0 0 0 0.75781,-1.35937 c -0.0771,-0.32677 -0.18951,-0.63894 -0.33984,-0.93164 -0.15072,-0.30337 -0.34818,-0.58504 -0.58203,-0.83008 -0.27765,-0.29445 -0.62477,-0.51945 -0.99414,-0.66407 -0.38407,-0.1538 -0.79393,-0.22265 -1.20508,-0.22265 z m 0.91016,1.32226 0.0234,0.0137 c -0.004,-0.002 -0.008,-1e-5 -0.0117,-0.002 -0.005,-0.003 -0.007,-0.009 -0.0117,-0.0117 z m 0.67383,0.58985 0.008,0.0117 c -8e-4,-0.001 -0.003,-8.5e-4 -0.004,-0.002 -0.002,-0.003 -0.002,-0.007 -0.004,-0.01 z"
           id="path251" /><path
           style="color:#000000;-inkscape-font-specification:Oswald;fill:#fffdf6;stroke-linecap:round;stroke-linejoin:round;-inkscape-stroke:none;paint-order:markers stroke fill"
           d="m 734.76856,145.89429 q -0.82292,0 -1.32292,-0.48959 -0.49479,-0.48958 -0.67708,-1.27083 l 1,-0.33334 q 0.35938,1 1,1 0.31771,0 0.48959,-0.17187 0.17708,-0.17709 0.17708,-0.49479 0,-0.46355 -0.33333,-0.77084 l -1.33334,-1 q -0.22396,-0.15105 -0.375,-0.28125 -0.15104,-0.13542 -0.30729,-0.32813 -0.15626,-0.19271 -0.23959,-0.43229 -0.0781,-0.23959 -0.0781,-0.52084 0,-0.85417 0.54166,-1.30729 0.54688,-0.45313 1.45834,-0.45313 0.4323,0 0.78125,0.14062 0.34896,0.13542 0.58334,0.38542 0.23958,0.25 0.39063,0.5573 0.15625,0.30208 0.24479,0.67708 l -1,0.33334 q -0.0729,-0.19792 -0.14584,-0.33855 -0.0729,-0.14583 -0.19792,-0.3125 -0.11979,-0.16667 -0.28646,-0.25521 -0.16666,-0.0937 -0.36979,-0.0937 -0.31771,0 -0.49479,0.17709 -0.17188,0.17187 -0.17188,0.48958 0,0.3125 0.33334,0.5625 l 1.33334,1.00001 q 0.22395,0.17708 0.3802,0.34375 0.16146,0.16146 0.31251,0.38021 0.15104,0.21354 0.22916,0.47917 0.0781,0.26562 0.0781,0.56771 0,0.85416 -0.54688,1.30729 -0.54167,0.45313 -1.45313,0.45313 z"
           id="path252" /></g><g
         id="text219"
         transform="matrix(1.3456468,0,0,1.4314536,-239.22101,-32.416863)"><path
           style="color:#000000;-inkscape-font-specification:Oswald;fill:#000000;stroke-linecap:round;stroke-linejoin:round;-inkscape-stroke:none;paint-order:markers stroke fill"
           d="m 741.80469,135.64844 a 1.1529453,1.1529453 0 0 0 -1.15235,1.15234 v 1.33399 a 1.1529453,1.1529453 0 0 0 0.5,0.5 1.1529453,1.1529453 0 0 0 -0.5,0.5 v 6.66601 a 1.1529453,1.1529453 0 0 0 1.15235,1.15234 h 1.33398 a 1.1529453,1.1529453 0 0 0 1.15235,-1.15234 v -6.66601 a 1.1529453,1.1529453 0 0 0 -0.5,-0.5 1.1529453,1.1529453 0 0 0 0.5,-0.5 v -1.33399 a 1.1529453,1.1529453 0 0 0 -1.15235,-1.15234 z"
           id="path253" /><path
           style="color:#000000;-inkscape-font-specification:Oswald;fill:#fffdf6;stroke-linecap:round;stroke-linejoin:round;-inkscape-stroke:none;paint-order:markers stroke fill"
           d="m 741.80504,138.13385 v -1.33334 h 1.33333 v 1.33334 z m 0,7.66669 v -6.66669 h 1.33333 v 6.66669 z"
           id="path254" /></g><g
         id="text218"
         transform="matrix(1.3456468,0,0,1.4314536,-239.22101,-32.416863)"><path
           style="color:#000000;-inkscape-font-specification:Oswald;fill:#000000;stroke-linecap:round;stroke-linejoin:round;-inkscape-stroke:none;paint-order:markers stroke fill"
           d="m 747.79492,135.32031 a 1.1529453,1.1529453 0 0 0 -1.15234,1.15235 v 1.44531 c -0.0679,-0.005 -0.13575,-0.0312 -0.20313,-0.0312 -0.30271,0 -0.61035,0.0452 -0.90625,0.15039 -0.26781,0.0952 -0.52893,0.23658 -0.75781,0.42969 -0.22627,0.19091 -0.40525,0.42072 -0.54492,0.66406 -9e-4,0.002 -0.003,0.002 -0.004,0.004 -0.1208,0.20786 -0.22087,0.42816 -0.29687,0.65625 a 1.1529453,1.1529453 0 0 0 -0.004,0.0137 c -0.0689,0.21662 -0.12232,0.44352 -0.16406,0.68554 a 1.1529453,1.1529453 0 0 0 -0.002,0.0195 c -0.0356,0.22945 -0.0618,0.45304 -0.0781,0.67382 -0.0155,0.20543 -0.0258,0.42686 -0.0332,0.66993 a 1.1529453,1.1529453 0 0 0 -0.002,0.0234 c -0.007,0.64068 -0.008,1.0169 0.002,1.25977 0.016,0.40344 0.0581,0.79102 0.1289,1.16211 a 1.1529453,1.1529453 0 0 0 0,0.002 c 0.0735,0.38062 0.18412,0.75071 0.33203,1.10742 a 1.1529453,1.1529453 0 0 0 0.006,0.0117 c 0.18769,0.43973 0.48248,0.84454 0.8711,1.14063 a 1.1529453,1.1529453 0 0 0 0.008,0.006 c 0.4182,0.31365 0.95466,0.48046 1.4668,0.48046 0.17512,0 0.33622,-0.10469 0.51172,-0.14062 l 0.004,0.0195 a 1.1529453,1.1529453 0 0 0 0.0195,-0.0254 c 0.2006,-0.043 0.40065,-0.0687 0.58594,-0.16016 a 1.1529453,1.1529453 0 0 0 0.21289,0.21289 h 1.33399 a 1.1529453,1.1529453 0 0 0 1.15234,-1.15234 v -9.32812 a 1.1529453,1.1529453 0 0 0 -1.15234,-1.15235 z m -0.61719,2.67578 0.0352,0.01 c -0.007,-0.002 -0.0144,-0.002 -0.0215,-0.004 -0.005,-0.001 -0.009,-0.004 -0.0137,-0.006 z m -1.37304,1.28907 c -0.005,0.003 -0.005,0.0102 -0.01,0.0137 -0.004,0.003 -0.01,9.1e-4 -0.0137,0.004 z"
           id="path255" /><path
           style="color:#000000;-inkscape-font-specification:Oswald;fill:#fffdf6;stroke-linecap:round;stroke-linejoin:round;-inkscape-stroke:none;paint-order:markers stroke fill"
           d="m 746.79464,144.80053 q 0.48438,0 1.00001,-0.20833 v -4.19272 q -0.44792,-0.26563 -1.00001,-0.26563 -0.19791,0 -0.33333,0.099 -0.13542,0.0937 -0.20313,0.28125 -0.0677,0.18229 -0.099,0.38021 -0.0312,0.19271 -0.0365,0.45834 -0.0208,1.16667 0,1.84896 0.005,0.33333 0.0365,0.59375 0.0312,0.26042 0.099,0.50521 0.0729,0.23959 0.20834,0.3698 0.13542,0.1302 0.32812,0.1302 z m -0.33333,1.09376 q -0.44271,0 -0.77604,-0.25 -0.32813,-0.25 -0.51042,-0.67709 -0.17709,-0.42708 -0.26563,-0.88542 -0.0885,-0.46354 -0.10937,-0.99479 -0.0104,-0.2448 0,-1.19792 0.0104,-0.34375 0.0312,-0.6198 0.0208,-0.28125 0.0677,-0.58333 0.0521,-0.30209 0.125,-0.53125 0.0781,-0.23438 0.20312,-0.44792 0.125,-0.21875 0.29167,-0.35938 0.16667,-0.14062 0.40104,-0.22396 0.23438,-0.0833 0.52084,-0.0833 0.22396,0 0.41667,0.0625 0.19791,0.0573 0.375,0.1875 0.17708,0.125 0.28125,0.22396 0.10937,0.099 0.28125,0.28125 v -3.32293 h 1.33334 v 9.32816 h -1.33334 v -0.60417 q -0.30209,0.3125 -0.61459,0.50521 -0.3125,0.19271 -0.71875,0.19271 z"
           id="path256" /></g><g
         id="text217"
         transform="matrix(1.3456468,0,0,1.4314536,-239.22101,-32.416863)"><path
           style="color:#000000;-inkscape-font-specification:Oswald;fill:#000000;stroke-linecap:round;stroke-linejoin:round;-inkscape-stroke:none;paint-order:markers stroke fill"
           d="m 752.76367,137.88672 c -0.43503,0 -0.86758,0.0726 -1.27148,0.24414 -9.8e-4,4.1e-4 -0.003,-4.1e-4 -0.004,0 -0.36236,0.15264 -0.70359,0.38031 -0.97461,0.68359 a 1.1529453,1.1529453 0 0 0 -0.01,0.01 c -0.25739,0.29504 -0.43811,0.63584 -0.56641,0.99609 -0.11657,0.32731 -0.19925,0.66578 -0.24805,1.01172 a 1.1529453,1.1529453 0 0 0 -0.002,0.0117 c -0.0411,0.31601 -0.0649,0.66035 -0.0762,1.03711 -0.0109,0.31056 -0.0106,0.62108 0,0.93164 0.007,0.39842 0.0281,0.75663 0.0645,1.08398 a 1.1529453,1.1529453 0 0 0 0,0.0156 c 0.0435,0.34759 0.12099,0.69309 0.22656,1.03516 a 1.1529453,1.1529453 0 0 0 0,0.004 c 0.11781,0.37698 0.28308,0.73186 0.52539,1.04688 a 1.1529453,1.1529453 0 0 0 0.0156,0.0195 c 0.26359,0.32788 0.60577,0.58033 0.97461,0.7539 a 1.1529453,1.1529453 0 0 0 0.006,0.002 c 0.41892,0.19429 0.87493,0.27344 1.33008,0.27343 0.87444,0 1.7598,-0.27744 2.33984,-0.93945 0.5522,-0.63026 0.77211,-1.44908 0.81055,-2.32422 a 1.1529453,1.1529453 0 0 0 0.002,-0.0508 v -0.26562 a 1.1529453,1.1529453 0 0 0 -0.49609,-0.49414 1.1529453,1.1529453 0 0 0 0.50586,-0.50586 v -0.15625 c 0,-0.35409 -0.011,-0.67465 -0.0352,-0.96875 -0.0208,-0.2946 -0.0598,-0.59156 -0.11524,-0.88868 -0.0642,-0.34653 -0.16524,-0.67721 -0.32812,-0.98828 -0.14327,-0.2797 -0.33056,-0.53785 -0.54883,-0.76367 -0.27698,-0.2941 -0.63065,-0.50982 -1,-0.63476 -0.36332,-0.12747 -0.74054,-0.17969 -1.125,-0.17969 z m 1.6211,2.2793 0.01,0.0273 c -8.9e-4,-0.003 -0.005,-0.005 -0.006,-0.008 -0.002,-0.006 -0.002,-0.0133 -0.004,-0.0195 z m -0.004,4.72851 -0.0117,0.0293 c 0.003,-0.007 0.003,-0.0161 0.006,-0.0234 9.5e-4,-0.002 0.005,-0.003 0.006,-0.006 z"
           id="path257" /><path
           style="color:#000000;-inkscape-font-specification:Oswald;fill:#fffdf6;stroke-linecap:round;stroke-linejoin:round;-inkscape-stroke:none;paint-order:markers stroke fill"
           d="m 752.75298,145.89429 q -0.48438,0 -0.84375,-0.16667 -0.35417,-0.16667 -0.56771,-0.43229 -0.20834,-0.27084 -0.33855,-0.6875 -0.13021,-0.42188 -0.18229,-0.83855 -0.0469,-0.42188 -0.0573,-0.97917 -0.0156,-0.4375 0,-0.875 0.0156,-0.52084 0.0677,-0.92188 0.0573,-0.40625 0.19271,-0.78646 0.13541,-0.38021 0.34896,-0.625 0.21875,-0.24479 0.56771,-0.39063 0.35416,-0.15104 0.82291,-0.15104 0.42709,0 0.75001,0.11458 0.32812,0.10938 0.54167,0.33855 0.21875,0.22395 0.35937,0.5 0.14584,0.27604 0.21875,0.67187 0.0729,0.39063 0.099,0.77084 0.0312,0.38021 0.0312,0.875 v 0.15625 h -2.66667 v 0.33334 q 0,0.0677 0,0.21354 -0.0104,0.19271 -0.005,0.40104 0.0104,0.20313 0.0208,0.40105 0.0104,0.19791 0.0573,0.38021 0.0469,0.17708 0.11459,0.3125 0.0677,0.13541 0.1875,0.21354 0.125,0.0781 0.29166,0.0781 0.20834,0 0.34376,-0.0781 0.13541,-0.0833 0.19791,-0.24479 0.0677,-0.16146 0.0937,-0.32292 0.026,-0.16146 0.0312,-0.40625 v -0.28125 h 1.32292 v 0.26562 q -0.0469,1.06771 -0.52604,1.61459 -0.47917,0.54688 -1.47396,0.54688 z m -0.65625,-4.09377 h 1.32292 v -0.40104 q -0.005,-0.26562 -0.0312,-0.46354 -0.026,-0.19792 -0.0937,-0.39584 -0.0625,-0.19791 -0.19792,-0.30208 -0.13542,-0.10417 -0.33334,-0.10417 -0.20312,0 -0.34375,0.10938 -0.13541,0.10937 -0.20312,0.31771 -0.0625,0.20312 -0.0885,0.40104 -0.026,0.19792 -0.0312,0.47396 z"
           id="path258" /></g><g
         id="text216"
         transform="matrix(1.3456468,0,0,1.4314536,-239.22101,-32.416863)"><path
           style="color:#000000;-inkscape-font-specification:Oswald;fill:#000000;stroke-linecap:round;stroke-linejoin:round;-inkscape-stroke:none;paint-order:markers stroke fill"
           d="m 756.30078,135.64844 a 1.1529453,1.1529453 0 0 0 -1.1543,1.15234 v 1.33399 a 1.1529453,1.1529453 0 0 0 0.5,0.5 1.1529453,1.1529453 0 0 0 -0.5,0.5 v 6.66601 a 1.1529453,1.1529453 0 0 0 1.1543,1.15234 h 1.33203 a 1.1529453,1.1529453 0 0 0 1.15235,-1.15234 v -6.66601 a 1.1529453,1.1529453 0 0 0 -0.5,-0.5 1.1529453,1.1529453 0 0 0 0.5,-0.5 v -1.33399 a 1.1529453,1.1529453 0 0 0 -1.15235,-1.15234 z"
           id="path259" /><path
           style="color:#000000;-inkscape-font-specification:Oswald;fill:#fffdf6;stroke-linecap:round;stroke-linejoin:round;-inkscape-stroke:none;paint-order:markers stroke fill"
           d="m 756.29985,138.13385 v -1.33334 h 1.33334 v 1.33334 z m 0,7.66669 v -6.66669 h 1.33334 v 6.66669 z"
           id="path260" /></g><g
         id="text215"
         transform="matrix(1.3456468,0,0,1.4314536,-239.22101,-32.416863)"><path
           style="color:#000000;-inkscape-font-specification:Oswald;fill:#000000;stroke-linecap:round;stroke-linejoin:round;-inkscape-stroke:none;paint-order:markers stroke fill"
           d="m 761.23828,137.88672 c -0.8577,0 -1.72779,0.30858 -2.31055,0.9375 -0.56794,0.61291 -0.83455,1.44955 -0.84375,2.29687 a 1.1529453,1.1529453 0 0 0 0.7461,0.9961 l 0.004,-0.004 c -8.7e-4,0.001 -10e-4,0.003 -0.002,0.004 -0.20652,0.26762 -0.35976,0.55707 -0.49609,0.88086 a 1.1529453,1.1529453 0 0 0 -0.004,0.0137 c -0.16974,0.41615 -0.24805,0.86344 -0.24805,1.31445 0,0.64792 0.23438,1.30098 0.63672,1.80664 a 1.1529453,1.1529453 0 0 0 0.008,0.01 c 0.43006,0.52755 1.13986,0.90429 1.84179,0.90429 0.26547,0 0.53984,-0.0418 0.80274,-0.13671 a 1.1529453,1.1529453 0 0 0 0.002,0 c 0.13839,-0.05 0.27298,-0.12958 0.4082,-0.20704 a 1.1529453,1.1529453 0 0 0 0.29883,0.25 h 1.32813 a 1.1529453,1.1529453 0 0 0 1.11132,-1.45898 c -0.0712,-0.25878 -0.13085,-0.72834 -0.13086,-1.35937 v -3 c 0,-0.84566 -0.27449,-1.68883 -0.8457,-2.30079 -0.58149,-0.62932 -1.44919,-0.94726 -2.30664,-0.94726 z m -1.37109,4.73437 c -0.002,0.002 -0.002,0.005 -0.004,0.008 -0.003,0.004 -0.007,0.006 -0.01,0.01 z"
           id="path261" /><path
           style="color:#000000;-inkscape-font-specification:Oswald;fill:#fffdf6;stroke-linecap:round;stroke-linejoin:round;-inkscape-stroke:none;paint-order:markers stroke fill"
           d="m 761.23737,144.80053 q 0.14063,0 0.27084,-0.0833 0.13541,-0.0833 0.20312,-0.16146 0.0677,-0.0781 0.16667,-0.20833 0.0156,-0.026 0.026,-0.0365 v -1.84376 q -0.0833,0.0573 -0.27604,0.17709 -0.19271,0.11979 -0.30729,0.19791 -0.11459,0.0729 -0.27605,0.20834 -0.16145,0.13021 -0.25,0.25521 -0.0885,0.11979 -0.15625,0.29687 -0.0677,0.17709 -0.0677,0.3698 0,0.82812 0.66667,0.82812 z m -0.66667,1.09376 q -0.55729,0 -0.94792,-0.47917 -0.38541,-0.48438 -0.38541,-1.08855 0,-0.48437 0.16146,-0.88021 0.16666,-0.39583 0.34896,-0.63021 0.18229,-0.23958 0.60937,-0.48958 0.42709,-0.25521 0.64584,-0.34896 0.21875,-0.0937 0.76042,-0.30729 0.0937,-0.0365 0.14062,-0.0573 v -0.47916 q 0,-0.50521 -0.14062,-0.78126 -0.14063,-0.28125 -0.52605,-0.28125 -0.34375,0 -0.49479,0.23959 -0.14583,0.23437 -0.16667,0.65104 -0.005,0.0573 -0.005,0.17188 h -1.33333 q 0.0104,-0.95834 0.53646,-1.52605 0.52604,-0.56771 1.46354,-0.56771 0.9323,0 1.46355,0.57813 0.53646,0.57291 0.53646,1.51563 v 3.00001 q 0,1.04167 0.17188,1.66667 h -1.32813 l -0.17709,-1.00001 q -0.10416,0.20834 -0.17187,0.32292 -0.0625,0.11459 -0.1875,0.28646 -0.125,0.16667 -0.25,0.26042 -0.12501,0.0885 -0.31251,0.15625 -0.1875,0.0677 -0.41146,0.0677 z"
           id="path262" /></g><g
         id="text214"
         transform="matrix(1.3456468,0,0,1.4314536,-239.22101,-32.416863)"><path
           style="color:#000000;-inkscape-font-specification:Oswald;fill:#000000;stroke-linecap:round;stroke-linejoin:round;-inkscape-stroke:none;paint-order:markers stroke fill"
           d="m 766.63281,137.88672 c -0.79868,0 -1.58648,0.21591 -2.19336,0.71875 a 1.1529453,1.1529453 0 0 0 -0.004,0.004 c -0.63456,0.53083 -0.95508,1.37828 -0.95508,2.19141 0,0.29421 0.0415,0.59085 0.13476,0.87695 a 1.1529453,1.1529453 0 0 0 0.008,0.0215 c 0.0975,0.2803 0.24342,0.54911 0.43164,0.78125 0.13541,0.16701 0.27764,0.31916 0.43359,0.45898 a 1.1529453,1.1529453 0 0 0 0.0176,0.0156 c 0.002,0.001 0.004,0.002 0.006,0.004 l -0.24219,0.082 a 1.1529453,1.1529453 0 0 0 -0.75976,1.35546 c 0.16186,0.69372 0.49274,1.33589 0.99023,1.82813 a 1.1529453,1.1529453 0 0 0 0.004,0.004 c 0.55923,0.54758 1.35167,0.81835 2.1289,0.81835 0.79719,0 1.58471,-0.21451 2.18946,-0.71875 0.6386,-0.52914 0.96289,-1.37788 0.96289,-2.19335 0,-0.30075 -0.0376,-0.60398 -0.12305,-0.89454 -0.0852,-0.28979 -0.21782,-0.56852 -0.39453,-0.81836 -0.12129,-0.17463 -0.25698,-0.33395 -0.40235,-0.48437 l 0.13282,-0.043 a 1.1529453,1.1529453 0 0 0 0.75781,-1.35937 c -0.0771,-0.32677 -0.18951,-0.63894 -0.33984,-0.93164 -0.15073,-0.30339 -0.34817,-0.58503 -0.58204,-0.83008 -0.27765,-0.29446 -0.62476,-0.51944 -0.99414,-0.66407 -0.38406,-0.1538 -0.79588,-0.22265 -1.20703,-0.22265 z m 0.91016,1.32226 0.0254,0.0137 c -0.004,-0.002 -0.009,-0.002 -0.0137,-0.004 -0.005,-0.002 -0.007,-0.007 -0.0117,-0.01 z m 0.67578,0.58985 0.008,0.0117 c -0.002,-0.003 -0.006,-0.003 -0.008,-0.006 -5.2e-4,-7.2e-4 -10e-4,-0.001 -0.002,-0.002 -2.5e-4,-3.3e-4 2.4e-4,-0.002 0,-0.002 z"
           id="path263" /><path
           style="color:#000000;-inkscape-font-specification:Oswald;fill:#fffdf6;stroke-linecap:round;stroke-linejoin:round;-inkscape-stroke:none;paint-order:markers stroke fill"
           d="m 766.63325,145.89429 q -0.82292,0 -1.32292,-0.48959 -0.4948,-0.48958 -0.67709,-1.27083 l 1,-0.33334 q 0.35938,1 1.00001,1 0.31771,0 0.48958,-0.17187 0.17709,-0.17709 0.17709,-0.49479 0,-0.46355 -0.33334,-0.77084 l -1.33334,-1 q -0.22396,-0.15105 -0.375,-0.28125 -0.15104,-0.13542 -0.30729,-0.32813 -0.15625,-0.19271 -0.23958,-0.43229 -0.0781,-0.23959 -0.0781,-0.52084 0,-0.85417 0.54167,-1.30729 0.54688,-0.45313 1.45834,-0.45313 0.43229,0 0.78125,0.14062 0.34896,0.13542 0.58333,0.38542 0.23959,0.25 0.39063,0.5573 0.15625,0.30208 0.24479,0.67708 l -1,0.33334 q -0.0729,-0.19792 -0.14583,-0.33855 -0.0729,-0.14583 -0.19792,-0.3125 -0.11979,-0.16667 -0.28646,-0.25521 -0.16667,-0.0937 -0.36979,-0.0937 -0.31771,0 -0.4948,0.17709 -0.17187,0.17187 -0.17187,0.48958 0,0.3125 0.33333,0.5625 l 1.33334,1.00001 q 0.22396,0.17708 0.38021,0.34375 0.16146,0.16146 0.3125,0.38021 0.15104,0.21354 0.22917,0.47917 0.0781,0.26562 0.0781,0.56771 0,0.85416 -0.54687,1.30729 -0.54167,0.45313 -1.45313,0.45313 z"
           id="path264" /></g><g
         id="text213"
         transform="matrix(1.3456468,0,0,1.4314536,-239.22101,-32.416863)"><path
           style="color:#000000;-inkscape-font-specification:Oswald;fill:#000000;stroke-linecap:round;stroke-linejoin:round;-inkscape-stroke:none;paint-order:markers stroke fill"
           d="m 775.44141,137.88672 c -0.8577,0 -1.72779,0.30859 -2.31055,0.9375 -0.56795,0.61291 -0.83456,1.44955 -0.84375,2.29687 a 1.1529453,1.1529453 0 0 0 0.74609,0.9961 l 0.004,-0.004 c -8.7e-4,0.001 -10e-4,0.003 -0.002,0.004 -0.2065,0.2676 -0.35977,0.55708 -0.4961,0.88086 a 1.1529453,1.1529453 0 0 0 -0.004,0.0137 c -0.16975,0.41615 -0.24805,0.86344 -0.24805,1.31445 0,0.64792 0.23437,1.30098 0.63672,1.80664 a 1.1529453,1.1529453 0 0 0 0.008,0.01 c 0.43007,0.52755 1.13986,0.90429 1.8418,0.90429 0.26547,0 0.53983,-0.0418 0.80273,-0.13671 a 1.1529453,1.1529453 0 0 0 0.002,0 c 0.1384,-0.05 0.27298,-0.12957 0.40821,-0.20704 a 1.1529453,1.1529453 0 0 0 0.29883,0.25 h 1.32812 a 1.1529453,1.1529453 0 0 0 1.11133,-1.45898 c -0.0712,-0.25879 -0.13086,-0.72833 -0.13086,-1.35937 v -3 c 0,-0.84566 -0.2745,-1.68883 -0.8457,-2.30079 -0.58149,-0.62931 -1.4492,-0.94726 -2.30664,-0.94726 z m -1.3711,4.73437 c -0.002,0.002 -0.002,0.005 -0.004,0.008 -0.003,0.004 -0.007,0.006 -0.01,0.01 z"
           id="path265" /><path
           style="color:#000000;-inkscape-font-specification:Oswald;fill:#fffdf6;stroke-linecap:round;stroke-linejoin:round;-inkscape-stroke:none;paint-order:markers stroke fill"
           d="m 775.44056,144.80053 q 0.14062,0 0.27083,-0.0833 0.13542,-0.0833 0.20313,-0.16146 0.0677,-0.0781 0.16667,-0.20833 0.0156,-0.026 0.026,-0.0365 v -1.84376 q -0.0833,0.0573 -0.27604,0.17709 -0.19271,0.11979 -0.3073,0.19791 -0.11458,0.0729 -0.27604,0.20834 -0.16146,0.13021 -0.25,0.25521 -0.0885,0.11979 -0.15625,0.29687 -0.0677,0.17709 -0.0677,0.3698 0,0.82812 0.66667,0.82812 z m -0.66667,1.09376 q -0.55729,0 -0.94792,-0.47917 -0.38542,-0.48438 -0.38542,-1.08855 0,-0.48437 0.16146,-0.88021 0.16667,-0.39583 0.34896,-0.63021 0.18229,-0.23958 0.60938,-0.48958 0.42708,-0.25521 0.64583,-0.34896 0.21875,-0.0937 0.76042,-0.30729 0.0937,-0.0365 0.14063,-0.0573 v -0.47916 q 0,-0.50521 -0.14063,-0.78126 -0.14062,-0.28125 -0.52604,-0.28125 -0.34375,0 -0.49479,0.23959 -0.14584,0.23437 -0.16667,0.65104 -0.005,0.0573 -0.005,0.17188 h -1.33334 q 0.0104,-0.95834 0.53646,-1.52605 0.52605,-0.56771 1.46355,-0.56771 0.93229,0 1.46355,0.57813 0.53646,0.57291 0.53646,1.51563 v 3.00001 q 0,1.04167 0.17187,1.66667 h -1.32813 l -0.17708,-1.00001 q -0.10417,0.20834 -0.17188,0.32292 -0.0625,0.11459 -0.1875,0.28646 -0.125,0.16667 -0.25,0.26042 -0.125,0.0885 -0.3125,0.15625 -0.1875,0.0677 -0.41146,0.0677 z"
           id="path266" /></g><g
         id="text212"
         transform="matrix(1.3456468,0,0,1.4314536,-239.22101,-32.416863)"><path
           style="color:#000000;-inkscape-font-specification:Oswald;fill:#000000;stroke-linecap:round;stroke-linejoin:round;-inkscape-stroke:none;paint-order:markers stroke fill"
           d="m 780.60156,137.88672 c -0.41085,0 -0.83482,0.0893 -1.21484,0.28711 -0.34395,0.17642 -0.65925,0.43661 -0.88867,0.75781 a 1.1529453,1.1529453 0 0 0 -0.004,0.004 c -0.20615,0.29102 -0.34794,0.61355 -0.44922,0.95117 -0.0926,0.30861 -0.15786,0.62414 -0.19336,0.94336 -0.0334,0.30069 -0.0488,0.61763 -0.0488,0.95508 v 1.01562 c 0,0.32829 0.0167,0.64829 0.0488,0.96094 a 1.1529453,1.1529453 0 0 0 0.002,0.0156 c 0.0383,0.33194 0.10286,0.66485 0.19335,0.99805 a 1.1529453,1.1529453 0 0 0 0.004,0.0156 c 0.10075,0.35041 0.2318,0.67774 0.40625,0.98046 a 1.1529453,1.1529453 0 0 0 0.008,0.0137 c 0.20623,0.34764 0.49366,0.65071 0.83008,0.875 a 1.1529453,1.1529453 0 0 0 0.0195,0.0137 c 0.38881,0.24803 0.85951,0.37305 1.3086,0.37304 0.0614,0 0.11776,-0.0444 0.17968,-0.0488 v 0.80273 a 1.1529453,1.1529453 0 0 0 1.1543,1.15234 h 1.33203 a 1.1529453,1.1529453 0 0 0 1.15235,-1.15234 v -8.66601 a 1.1529453,1.1529453 0 0 0 -1.15235,-1.1543 h -1.33203 a 1.1529453,1.1529453 0 0 0 -0.21484,0.21484 c -0.12932,-0.0673 -0.24757,-0.15145 -0.38867,-0.19336 -0.24659,-0.0773 -0.50257,-0.11523 -0.75196,-0.11523 z m 1.84375,0.77539 0.0449,0.041 c -0.007,-0.007 -0.0146,-0.0108 -0.0215,-0.0176 -0.008,-0.007 -0.0159,-0.0166 -0.0234,-0.0234 z"
           id="path267" /><path
           style="color:#000000;-inkscape-font-specification:Oswald;fill:#fffdf6;stroke-linecap:round;stroke-linejoin:round;-inkscape-stroke:none;paint-order:markers stroke fill"
           d="m 780.95616,144.80053 q 0.52605,0 1.00001,-0.27083 v -4.12501 q -0.0208,-0.0104 -0.10417,-0.0625 -0.0833,-0.0521 -0.11979,-0.0677 -0.0312,-0.0208 -0.10938,-0.0625 -0.0781,-0.0417 -0.13021,-0.0573 -0.0469,-0.0208 -0.125,-0.0417 -0.0729,-0.026 -0.14583,-0.0365 -0.0677,-0.0104 -0.14583,-0.0104 -0.16667,0 -0.29688,0.0781 -0.125,0.0729 -0.20833,0.17708 -0.0833,0.10417 -0.14584,0.29688 -0.0573,0.19271 -0.0833,0.34375 -0.026,0.14583 -0.0417,0.39583 -0.0156,0.2448 -0.0208,0.38021 0,0.13542 0,0.38021 0,0.0104 0,0.0156 0,0.0885 0,0.28646 0,0.19792 0,0.38021 0,0.18229 0,0.34375 0.005,0.34896 0.0312,0.61458 0.0312,0.26042 0.099,0.51563 0.0729,0.25 0.20833,0.39063 0.14063,0.13541 0.33854,0.13541 z m 1.00001,3.00001 v -2.59896 q -0.29688,0.30729 -0.61459,0.5 -0.3125,0.19271 -0.71875,0.19271 -0.38542,0 -0.6875,-0.19271 -0.29688,-0.19792 -0.47917,-0.50521 -0.17708,-0.30729 -0.29688,-0.72396 -0.11458,-0.42188 -0.16146,-0.82813 -0.0417,-0.40625 -0.0417,-0.84375 v -1.01563 q 0,-0.45313 0.0417,-0.82813 0.0417,-0.375 0.15105,-0.73958 0.10937,-0.36459 0.28646,-0.61459 0.18229,-0.25521 0.47916,-0.40625 0.29688,-0.15625 0.68751,-0.15625 0.22396,0 0.41666,0.0625 0.19792,0.0573 0.37501,0.1875 0.18229,0.13021 0.28125,0.22917 0.10416,0.0937 0.28125,0.28125 v -0.66667 h 1.33333 v 8.66669 z"
           id="path268" /></g><g
         id="text211"
         transform="matrix(1.3456468,0,0,1.4314536,-239.22101,-32.416863)"><path
           style="color:#000000;-inkscape-font-specification:Oswald;fill:#000000;stroke-linecap:round;stroke-linejoin:round;-inkscape-stroke:none;paint-order:markers stroke fill"
           d="m 784.8418,137.98047 a 1.1529453,1.1529453 0 0 0 -1.15235,1.1543 v 5.68164 c 0,0.52825 0.18186,1.09733 0.53907,1.51757 a 1.1529453,1.1529453 0 0 0 0.006,0.008 c 0.38186,0.44176 1.01459,0.70508 1.57618,0.70507 0.23683,0 0.47351,-0.0264 0.70507,-0.082 0.18074,-0.0402 0.3516,-0.0866 0.52735,-0.1582 a 1.1529453,1.1529453 0 0 0 0.0176,-0.01 c 0.0688,-0.0295 0.12273,-0.0719 0.18554,-0.10546 a 1.1529453,1.1529453 0 0 0 0.26172,0.26171 h 1.33399 a 1.1529453,1.1529453 0 0 0 1.15234,-1.15234 v -6.66601 a 1.1529453,1.1529453 0 0 0 -1.15234,-1.1543 h -1.33399 a 1.1529453,1.1529453 0 0 0 -0.66601,0.66797 1.1529453,1.1529453 0 0 0 -0.66602,-0.66797 z"
           id="path269" /><path
           style="color:#000000;-inkscape-font-specification:Oswald;fill:#fffdf6;stroke-linecap:round;stroke-linejoin:round;-inkscape-stroke:none;paint-order:markers stroke fill"
           d="m 785.81037,145.89429 q -0.4375,0 -0.70313,-0.3073 -0.26562,-0.3125 -0.26562,-0.77083 v -5.68231 h 1.33333 v 5.27606 q 0,0.20833 0.125,0.33854 0.13021,0.13021 0.33334,0.13021 0.10937,0 0.21354,-0.026 0.10417,-0.026 0.20313,-0.0885 0.10416,-0.0677 0.16145,-0.10417 0.0573,-0.0417 0.16146,-0.13542 0.10938,-0.0937 0.13542,-0.11458 v -5.27606 h 1.33334 v 6.66669 h -1.33334 v -0.71876 q -0.19792,0.17188 -0.29167,0.25001 -0.0885,0.0781 -0.27604,0.21354 -0.1875,0.13021 -0.33333,0.19271 -0.14063,0.0573 -0.35417,0.10416 -0.21354,0.0521 -0.44271,0.0521 z"
           id="path270" /></g><g
         id="text210"
         transform="matrix(1.3456468,0,0,1.4314536,-239.22101,-32.416863)"><path
           style="color:#000000;-inkscape-font-specification:Oswald;fill:#000000;stroke-linecap:round;stroke-linejoin:round;-inkscape-stroke:none;paint-order:markers stroke fill"
           d="m 790.55469,135.64844 a 1.1529453,1.1529453 0 0 0 -1.15235,1.15234 v 1.33399 a 1.1529453,1.1529453 0 0 0 0.5,0.5 1.1529453,1.1529453 0 0 0 -0.5,0.5 v 6.66601 a 1.1529453,1.1529453 0 0 0 1.15235,1.15234 h 1.33398 a 1.1529453,1.1529453 0 0 0 1.15235,-1.15234 v -6.66601 a 1.1529453,1.1529453 0 0 0 -0.5,-0.5 1.1529453,1.1529453 0 0 0 0.5,-0.5 v -1.33399 a 1.1529453,1.1529453 0 0 0 -1.15235,-1.15234 z"
           id="path271" /><path
           style="color:#000000;-inkscape-font-specification:Oswald;fill:#fffdf6;stroke-linecap:round;stroke-linejoin:round;-inkscape-stroke:none;paint-order:markers stroke fill"
           d="m 790.55516,138.13385 v -1.33334 h 1.33334 v 1.33334 z m 0,7.66669 v -6.66669 h 1.33334 v 6.66669 z"
           id="path272" /></g><g
         style="fill:#000000;stroke-width:13.3161"
         id="g206"
         transform="matrix(0.05866969,0,0,0.05866969,718.86158,86.692433)"><path
           d="M 472.032,695.854 A 47.722,47.722 0 0 1 438.12,681.832 c -18.706,-18.69 -18.69,-49.136 0.016,-67.842 a 7.988,7.988 0 0 1 11.304,0 7.986,7.986 0 0 1 0,11.302 c -12.476,12.476 -12.476,32.758 -0.016,45.234 12.444,12.446 32.742,12.46 45.25,0 5.918,-5.934 9.26,-13.788 9.368,-22.11 0.062,-4.418 3.45,-8.166 8.104,-7.884 a 7.99,7.99 0 0 1 7.884,8.104 c -0.172,12.508 -5.168,24.28 -14.052,33.18 -9.354,9.368 -21.658,14.038 -33.946,14.038 z M 424.098,490.516 c -26.45,0 -47.966,-21.508 -47.966,-47.952 0,-26.458 21.516,-47.98 47.966,-47.98 a 47.928,47.928 0 0 1 31.852,12.054 8,8 0 0 1 0.672,11.288 8.016,8.016 0 0 1 -11.29,0.672 31.912,31.912 0 0 0 -21.234,-8.026 c -17.628,0 -31.978,14.35 -31.978,31.992 0,17.622 14.348,31.962 31.978,31.962 a 7.988,7.988 0 0 1 7.994,7.994 7.99,7.99 0 0 1 -7.994,7.996 z m -49.59,91.434 a 8.188,8.188 0 0 1 -3.186,-0.656 31.964,31.964 0 0 1 -19.174,-29.306 c 0,-17.642 14.35,-31.992 31.978,-31.992 4.418,0 7.994,3.576 7.994,7.994 0,4.418 -3.576,7.994 -7.994,7.994 -8.822,0 -15.99,7.182 -15.99,16.004 a 15.936,15.936 0 0 0 9.556,14.63 7.992,7.992 0 0 1 4.136,10.524 7.966,7.966 0 0 1 -7.32,4.808 z"
           fill=""
           id="path1-6"
           style="stroke-width:13.3161" /><path
           d="m 384.126,535.982 c -22.046,0 -39.972,-17.916 -39.972,-39.94 0.016,-24.85 23.686,-44.258 48.356,-39.128 a 7.99,7.99 0 0 1 6.184,9.454 7.948,7.948 0 0 1 -9.462,6.19 c -14.848,-3.06 -29.088,8.564 -29.088,23.484 0,13.208 10.758,23.952 23.984,23.952 4.418,0 7.994,3.576 7.994,7.994 0,4.418 -3.578,7.994 -7.996,7.994 z m 95.93,-95.932 c -22.046,0 -39.97,-17.916 -39.97,-39.94 0,-22.054 17.924,-40.002 39.97,-40.002 22.046,0 39.972,17.948 39.972,40.002 a 7.99,7.99 0 0 1 -7.994,7.994 7.99,7.99 0 0 1 -7.996,-7.994 c 0,-13.24 -10.758,-24.014 -23.984,-24.014 -13.224,0 -23.982,10.774 -23.982,24.014 0,13.208 10.758,23.952 23.982,23.952 a 7.99,7.99 0 0 1 7.996,7.994 7.986,7.986 0 0 1 -7.994,7.994 z m -55.848,223.872 c -16.832,0 -33.274,-6.682 -45.36,-18.752 -24.934,-24.936 -24.918,-65.516 0.032,-90.466 12.086,-12.1 28.136,-18.752 45.188,-18.752 h 0.016 c 17.05,0 33.118,6.652 45.232,18.768 a 7.988,7.988 0 0 1 0,11.304 7.988,7.988 0 0 1 -11.304,0 C 448.926,556.938 436.87,551.94 424.084,551.94 h -0.016 c -12.772,0 -24.81,4.998 -33.882,14.068 -18.72,18.72 -18.736,49.168 -0.032,67.86 10.82,10.804 26.31,15.894 41.362,13.504 4.294,-0.592 8.462,2.312 9.134,6.668 a 8.018,8.018 0 0 1 -6.668,9.134 64.46,64.46 0 0 1 -9.774,0.748 z M 552.03,695.87 c -12.304,0 -24.584,-4.686 -33.938,-14.038 -8.882,-8.916 -13.88,-20.688 -14.052,-33.196 a 7.992,7.992 0 0 1 7.886,-8.104 c 4.48,-0.156 8.026,3.466 8.104,7.884 0.11,8.322 3.45,16.176 9.36,22.124 12.524,12.46 32.82,12.46 45.25,-0.016 12.458,-12.476 12.458,-32.758 0,-45.234 -3.124,-3.122 -3.124,-8.18 0,-11.302 3.124,-3.122 8.182,-3.124 11.304,0 18.706,18.706 18.706,49.152 0,67.842 -9.338,9.354 -21.642,14.04 -33.914,14.04 z m 47.932,-205.354 a 8,8 0 0 1 -7.992,-7.994 7.998,7.998 0 0 1 7.992,-7.994 c 17.644,0 31.978,-14.342 31.978,-31.962 0,-17.642 -14.334,-31.992 -31.978,-31.992 a 31.942,31.942 0 0 0 -21.234,8.026 c -3.308,2.912 -8.37,2.63 -11.274,-0.672 a 8.014,8.014 0 0 1 0.656,-11.288 47.958,47.958 0 0 1 31.852,-12.054 c 26.452,0 47.966,21.524 47.966,47.98 0.002,26.442 -21.514,47.95 -47.966,47.95 z m 49.59,91.434 c -3.058,0 -6.026,-1.794 -7.306,-4.808 a 7.972,7.972 0 0 1 4.124,-10.524 15.94,15.94 0 0 0 9.554,-14.63 c 0,-8.822 -7.15,-16.004 -15.988,-16.004 a 8,8 0 0 1 -7.994,-7.994 8,8 0 0 1 7.994,-7.994 c 17.644,0 31.976,14.35 31.976,31.992 a 31.964,31.964 0 0 1 -19.174,29.306 8.208,8.208 0 0 1 -3.186,0.656 z"
           fill=""
           id="path2-7"
           style="stroke-width:13.3161" /><path
           d="m 639.936,535.982 a 8,8 0 0 1 -7.994,-7.994 8,8 0 0 1 7.994,-7.994 c 13.24,0 23.982,-10.742 23.982,-23.952 0,-14.928 -14.208,-26.59 -29.072,-23.484 a 7.94,7.94 0 0 1 -9.462,-6.19 7.992,7.992 0 0 1 6.184,-9.454 c 24.732,-5.128 48.34,14.28 48.34,39.128 -0.002,22.024 -17.926,39.94 -39.972,39.94 z M 544.004,440.05 a 8,8 0 0 1 -7.994,-7.994 8,8 0 0 1 7.994,-7.994 c 13.24,0 23.982,-10.742 23.982,-23.952 0,-13.24 -10.742,-24.014 -23.982,-24.014 -13.208,0 -23.974,10.774 -23.974,24.014 a 7.99,7.99 0 0 1 -7.994,7.994 7.99,7.99 0 0 1 -7.996,-7.994 c 0,-22.054 17.924,-40.002 39.964,-40.002 22.046,0 39.97,17.948 39.97,40.002 0,22.024 -17.924,39.94 -39.97,39.94 z m 55.834,223.872 a 64.2,64.2 0 0 1 -9.742,-0.748 8.03,8.03 0 0 1 -6.684,-9.134 c 0.688,-4.372 4.842,-7.338 9.15,-6.668 15.084,2.39 30.542,-2.7 41.346,-13.52 18.706,-18.676 18.706,-49.124 -0.032,-67.844 -9.054,-9.07 -21.11,-14.068 -33.882,-14.068 -12.802,0 -24.856,4.998 -33.944,14.084 -3.124,3.124 -8.182,3.124 -11.304,0 -3.122,-3.124 -3.124,-8.182 0,-11.304 12.118,-12.116 28.2,-18.768 45.248,-18.768 17.05,0 33.102,6.652 45.188,18.752 24.952,24.952 24.982,65.532 0.032,90.466 -12.088,12.07 -28.512,18.752 -45.376,18.752 z m 16.084,303.754 H 408.078 a 7.982,7.982 0 0 1 -5.652,-2.344 l -31.978,-31.976 a 7.988,7.988 0 0 1 -2.342,-5.652 v -111.92 a 7.988,7.988 0 0 1 7.994,-7.994 h 271.798 a 7.998,7.998 0 0 1 7.994,7.994 v 111.92 a 7.992,7.992 0 0 1 -2.342,5.652 l -31.976,31.976 a 7.99,7.99 0 0 1 -5.652,2.344 z m -204.534,-15.99 h 201.224 l 27.292,-27.292 V 823.778 h -255.81 v 100.616 z"
           fill=""
           id="path3-5"
           style="stroke-width:13.3161" /><path
           d="m 360.112,871.742 a 7.986,7.986 0 0 1 -7.978,-7.572 8.008,8.008 0 0 1 7.556,-8.416 l 303.76,-15.988 c 4.498,-0.094 8.182,3.17 8.4,7.574 0.25,4.418 -3.152,8.164 -7.556,8.414 l -303.76,15.988 z m 0,47.966 a 7.988,7.988 0 0 1 -7.978,-7.572 8.008,8.008 0 0 1 7.556,-8.416 l 303.76,-15.988 a 7.95,7.95 0 0 1 8.4,7.572 c 0.25,4.418 -3.152,8.166 -7.556,8.416 l -303.76,15.988 z m 287.786,-95.93 H 376.1 a 7.99,7.99 0 0 1 -7.994,-7.994 V 766.226 C 287.93,716.12 240.198,630.386 240.198,535.984 c 0,-149.876 121.928,-271.806 271.806,-271.806 149.854,0 271.796,121.928 271.796,271.806 0,94.418 -47.746,180.152 -127.908,230.242 v 49.558 a 8,8 0 0 1 -7.994,7.994 z M 384.094,807.79 h 255.81 v -46.03 a 7.96,7.96 0 0 1 3.872,-6.84 c 77.664,-46.826 124.038,-128.658 124.038,-218.938 0,-141.054 -114.762,-255.816 -255.808,-255.816 -141.056,0 -255.818,114.762 -255.818,255.816 0,90.248 46.374,172.096 124.038,218.938 a 7.96,7.96 0 0 1 3.872,6.84 v 46.03 z m 127.91,191.862 c -60.208,0 -78.352,-34.914 -79.1,-36.396 a 7.996,7.996 0 0 1 3.576,-10.726 c 3.952,-1.936 8.712,-0.39 10.696,3.514 0.624,1.202 15.146,27.622 64.83,27.622 49.736,0 64.226,-26.498 64.82,-27.636 2.03,-3.874 6.838,-5.434 10.742,-3.436 3.904,1.998 5.496,6.744 3.53,10.664 -0.752,1.48 -18.894,36.394 -79.094,36.394 z M 168.248,543.976 H 8.364 a 7.988,7.988 0 0 1 -7.994,-7.994 7.988,7.988 0 0 1 7.994,-7.994 h 159.884 a 7.99,7.99 0 0 1 7.996,7.994 7.99,7.99 0 0 1 -7.996,7.994 z m 847.388,0 H 855.75 a 7.98,7.98 0 0 1 -7.994,-7.994 7.98,7.98 0 0 1 7.994,-7.994 h 159.886 a 8,8 0 0 1 7.994,7.994 7.998,7.998 0 0 1 -7.994,7.994 z M 75.83,795.796 a 7.976,7.976 0 0 1 -6.916,-3.996 7.996,7.996 0 0 1 2.918,-10.93 l 138.496,-79.944 c 3.826,-2.186 8.728,-0.906 10.914,2.936 a 7.996,7.996 0 0 1 -2.92,10.93 L 79.828,794.734 a 8.06,8.06 0 0 1 -3.998,1.062 z M 809.72,372.1 a 7.99,7.99 0 0 1 -6.934,-3.998 7.978,7.978 0 0 1 2.936,-10.922 l 138.434,-79.942 c 3.808,-2.194 8.712,-0.914 10.898,2.928 a 7.996,7.996 0 0 1 -2.904,10.922 L 813.716,371.03 a 8.072,8.072 0 0 1 -3.996,1.07 z M 683.904,246.284 a 7.916,7.916 0 0 1 -3.998,-1.07 7.978,7.978 0 0 1 -2.936,-10.922 L 756.882,95.828 c 2.186,-3.834 7.056,-5.152 10.93,-2.928 a 7.992,7.992 0 0 1 2.904,10.922 l -79.912,138.464 a 7.952,7.952 0 0 1 -6.9,3.998 z M 512.036,200.192 a 7.99,7.99 0 0 1 -7.996,-7.994 L 504.024,32.342 a 7.996,7.996 0 0 1 15.99,0 l 0.016,159.856 a 7.996,7.996 0 0 1 -7.994,7.994 z m -171.878,46.06 a 7.956,7.956 0 0 1 -6.916,-3.998 L 253.298,103.822 a 7.984,7.984 0 0 1 2.92,-10.922 7.98,7.98 0 0 1 10.914,2.928 l 79.944,138.432 a 7.984,7.984 0 0 1 -6.918,11.992 z m 608.026,549.514 a 8,8 0 0 1 -3.996,-1.06 L 805.724,714.762 a 7.988,7.988 0 0 1 -2.936,-10.93 8.01,8.01 0 0 1 10.93,-2.936 l 138.464,79.944 a 8.004,8.004 0 0 1 2.904,10.93 7.956,7.956 0 0 1 -6.902,3.996 z M 214.326,372.038 a 8.008,8.008 0 0 1 -3.998,-1.07 L 71.88,291.056 a 7.986,7.986 0 0 1 -2.92,-10.922 c 2.202,-3.826 7.104,-5.114 10.914,-2.928 l 138.448,79.912 a 7.984,7.984 0 0 1 2.92,10.922 7.98,7.98 0 0 1 -6.916,3.998 z"
           fill=""
           id="path4-3"
           style="stroke-width:13.3161" /><path
           d="m 512.036,656.522 a 7.99,7.99 0 0 1 -7.996,-7.994 V 400.112 a 7.99,7.99 0 0 1 7.996,-7.994 7.99,7.99 0 0 1 7.994,7.994 v 248.416 a 7.99,7.99 0 0 1 -7.994,7.994 z"
           fill=""
           id="path5-5"
           style="stroke-width:13.3161" /><path
           d="m 535.978,599.938 c -20.71,0 -30.69,-19.58 -31.096,-20.424 a 7.9921602,7.9921602 0 0 1 14.288,-7.166 c 0.094,0.172 6.106,11.602 16.808,11.602 a 8,8 0 0 1 7.994,7.994 8,8 0 0 1 -7.994,7.994 z"
           fill=""
           id="path6-6"
           style="stroke-width:13.3161" /><path
           d="m 488.004,599.938 a 7.99,7.99 0 0 1 -7.994,-7.994 7.988,7.988 0 0 1 7.994,-7.994 c 10.71,0 16.738,-11.492 16.8,-11.602 2.014,-3.888 6.824,-5.48 10.728,-3.514 3.918,1.998 5.528,6.746 3.558,10.68 -0.404,0.844 -10.382,20.424 -31.086,20.424 z m 63.962,-95.932 c -37.918,0 -47.926,-26.146 -47.926,-39.972 a 7.996,7.996 0 0 1 15.99,-0.07 c 0.046,2.466 1.326,24.054 31.938,24.054 a 8,8 0 0 1 7.994,7.994 8.002,8.002 0 0 1 -7.996,7.994 z"
           fill=""
           id="path7-2"
           style="stroke-width:13.3161" /><path
           d="m 472.016,504.006 a 7.99,7.99 0 0 1 -7.994,-7.994 7.99,7.99 0 0 1 7.994,-7.994 c 30.604,0 31.884,-21.594 31.932,-24.054 0.078,-4.396 3.48,-8.228 8.072,-7.884 a 7.956,7.956 0 0 1 7.916,7.956 c 0,13.824 -10.01,39.97 -47.92,39.97 z"
           fill=""
           id="path8-9"
           style="stroke-width:13.3161" /></g></g></g></svg>
