<?xml version="1.0" encoding="UTF-8" standalone="no"?>
<!-- Created with Inkscape (http://www.inkscape.org/) -->

<svg
   version="1.1"
   id="svg1"
   width="251.66878"
   height="329.85748"
   viewBox="0 0 251.66878 329.85749"
   xml:space="preserve"
   xmlns="http://www.w3.org/2000/svg"
   xmlns:svg="http://www.w3.org/2000/svg"><defs
     id="defs1"><clipPath
       clipPathUnits="userSpaceOnUse"
       id="clipPath6"><path
         d="M 0,0 H 95730 V 142127 H 0 Z"
         id="path6" /></clipPath><clipPath
       clipPathUnits="userSpaceOnUse"
       id="clipPath7"><path
         d="M 0,0 H 95730 V 142127 H 0 Z"
         transform="matrix(0.00262467,0,0,0.00262467,-12.970145,-30.99821)"
         id="path7" /></clipPath><clipPath
       clipPathUnits="userSpaceOnUse"
       id="clipPath9"><path
         d="M 0,0 H 95730 V 142127 H 0 Z"
         id="path9" /></clipPath><clipPath
       clipPathUnits="userSpaceOnUse"
       id="clipPath10"><path
         d="M 0,0 H 95730 V 142127 H 0 Z"
         transform="matrix(0.00262467,0,0,0.00262467,-17.106667,-76.512583)"
         id="path10" /></clipPath><clipPath
       clipPathUnits="userSpaceOnUse"
       id="clipPath21"><path
         d="M 0,0 H 95730 V 142127 H 0 Z"
         id="path21" /></clipPath><clipPath
       clipPathUnits="userSpaceOnUse"
       id="clipPath22"><path
         d="M 0,0 H 95730 V 142127 H 0 Z"
         transform="matrix(0.00262467,0,0,0.00262467,-20.763781,-104.84473)"
         id="path22" /></clipPath><clipPath
       clipPathUnits="userSpaceOnUse"
       id="clipPath24"><path
         d="M 0,0 H 95730 V 142127 H 0 Z"
         id="path24" /></clipPath><clipPath
       clipPathUnits="userSpaceOnUse"
       id="clipPath25"><path
         d="M 0,0 H 95730 V 142127 H 0 Z"
         transform="matrix(0.00262467,0,0,0.00262467,-20.763781,-138.0441)"
         id="path25" /></clipPath><clipPath
       clipPathUnits="userSpaceOnUse"
       id="clipPath26"><path
         d="M 0,0 H 95730 V 142127 H 0 Z"
         transform="matrix(0.00262467,0,0,0.00262467,-20.763781,-156.4441)"
         id="path26" /></clipPath><clipPath
       clipPathUnits="userSpaceOnUse"
       id="clipPath27"><path
         d="M 0,0 H 95730 V 142127 H 0 Z"
         transform="matrix(0.00262467,0,0,0.00262467,-20.763781,-174.8441)"
         id="path27" /></clipPath><clipPath
       clipPathUnits="userSpaceOnUse"
       id="clipPath29"><path
         d="M 0,0 H 95730 V 142127 H 0 Z"
         transform="matrix(0.00262467,0,0,0.00262467,-20.763781,-211.6441)"
         id="path29" /></clipPath><clipPath
       clipPathUnits="userSpaceOnUse"
       id="clipPath30"><path
         d="M 0,0 H 95730 V 142127 H 0 Z"
         transform="matrix(0.00262467,0,0,0.00262467,-20.763781,-230.04409)"
         id="path30" /></clipPath><clipPath
       clipPathUnits="userSpaceOnUse"
       id="clipPath31"><path
         d="M 0,0 H 95730 V 142127 H 0 Z"
         transform="matrix(0.00262467,0,0,0.00262467,-20.763781,-246.04409)"
         id="path31" /></clipPath><clipPath
       clipPathUnits="userSpaceOnUse"
       id="clipPath32"><path
         d="M 0,0 H 95730 V 142127 H 0 Z"
         transform="matrix(0.00262467,0,0,0.00262467,-20.763781,-264.4441)"
         id="path32" /></clipPath><clipPath
       clipPathUnits="userSpaceOnUse"
       id="clipPath33"><path
         d="M 0,0 H 95730 V 142127 H 0 Z"
         transform="matrix(0.00262467,0,0,0.00262467,-20.763781,-282.84409)"
         id="path33" /></clipPath><clipPath
       clipPathUnits="userSpaceOnUse"
       id="clipPath34"><path
         d="M 0,0 H 95730 V 142127 H 0 Z"
         transform="matrix(0.00262467,0,0,0.00262467,-20.763781,-301.24408)"
         id="path34" /></clipPath></defs><g
     id="g1"
     transform="translate(-2.5605334e-7,-1.0102923e-5)"><g
       id="g2"
       transform="translate(0.2041114,1.056539e-5)"><rect
         style="fill:#fffdf6;fill-opacity:1;stroke:none;stroke-width:15.8446;stroke-linecap:round;stroke-linejoin:round;paint-order:fill markers stroke"
         id="rect2"
         width="251.66878"
         height="329.85748"
         x="-0.20411114"
         y="-4.6246686e-07"
         ry="13.194124" /><path
         id="path5"
         d="M 5164.4814,1.7620005e-4 H 56064 c 0.125,0 0.242,0.0490288999 0.332,0.13664588995 0.09,0.087617 0.138,0.20645113 0.138,0.33036028 L 56064,13183.115 c 0,2852.265 -2312.22,5164.483 -5164.48,5164.483 H 0 v 0 c -0.25802743,0 -0.4672,-0.211 -0.4672,-0.469 L 0,5164.4814 v 0 C 0,2312.217 2312.217,1.7620005e-4 5164.4814,1.7620005e-4 Z"
         style="fill:#ffd966;fill-opacity:1;fill-rule:evenodd;stroke:none"
         transform="matrix(0.00262467,0,0,0.00262467,-0.20411114,-4.6246699e-7)"
         clip-path="url(#clipPath6)" /><text
         id="text6"
         xml:space="preserve"
         transform="translate(12.970145,30.99821)"
         clip-path="url(#clipPath7)"><tspan
           style="font-variant:normal;font-weight:500;font-size:18.6667px;font-family:Dosis;writing-mode:lr-tb;fill:#20124d;fill-opacity:1;fill-rule:nonzero;stroke:none"
           x="0 9.9866667 14.074666 22.418665 31.789331 40.693333 44.426666 54.935997 58.669331 66.042664 73.845329 77.578667 86.799995 96.208 100.296"
           y="0"
           id="tspan6">Plano Discípulo</tspan></text><path
         id="path8"
         d="M 0,18347.506 H 43956 V 33005.64 H 0 Z"
         style="fill:#000000;fill-opacity:0;fill-rule:evenodd;stroke:none"
         transform="scale(0.00262467)"
         clip-path="url(#clipPath9)" /><path
         id="path20"
         d="M 4482,30177 H 95478 V 44289 H 4482 Z"
         style="fill:#000000;fill-opacity:0;fill-rule:evenodd;stroke:none"
         transform="scale(0.00262467)"
         clip-path="url(#clipPath21)" /><path
         id="path23"
         d="m 4482,44289 h 89580 v 74592 H 4482 Z"
         style="fill:#000000;fill-opacity:0;fill-rule:evenodd;stroke:none"
         transform="scale(0.00262467)"
         clip-path="url(#clipPath24)" /><text
         id="text25"
         xml:space="preserve"
         transform="matrix(1.2023639,0,0,1.2023639,10.666223,96.841713)"
         clip-path="url(#clipPath26)"
         style="stroke-width:0.831695"><tspan
           style="font-variant:normal;font-weight:500;font-size:13.3333px;font-family:Dosis;writing-mode:lr-tb;fill:#000000;fill-opacity:1;fill-rule:nonzero;stroke:none;stroke-width:0.831695"
           id="tspan25"
           x="0"
           y="0">Instagram Básico</tspan></text><text
         id="text26"
         xml:space="preserve"
         transform="matrix(1.2023639,0,0,1.2023639,10.666223,119.43012)"
         clip-path="url(#clipPath27)"
         style="stroke-width:0.831695"><tspan
           style="font-variant:normal;font-weight:500;font-size:13.3333px;font-family:Dosis;writing-mode:lr-tb;fill:#000000;fill-opacity:1;fill-rule:nonzero;stroke:none;stroke-width:0.831695"
           id="tspan26"
           x="0"
           y="0">Destaque-se no Google</tspan></text><text
         id="text28"
         xml:space="preserve"
         transform="matrix(1.2023639,0,0,1.2023639,11.470144,163.67711)"
         clip-path="url(#clipPath29)"
         style="stroke-width:0.831695"><tspan
           style="font-variant:normal;font-weight:500;font-size:13.3333px;font-family:Dosis;writing-mode:lr-tb;fill:#000000;fill-opacity:1;fill-rule:nonzero;stroke:none;stroke-width:0.831695"
           x="0 5.2933331 9.6266661 15.586666 19.586666 25.786667 31.879999 38.239998 40.906666 48.32 52.706665 58.826664 64.786667 71.479996 74.146667 79.639999"
           y="0"
           id="tspan28">Tráfego Orgânico</tspan></text><text
         id="text29"
         xml:space="preserve"
         transform="matrix(1.2023639,0,0,1.2023639,11.470144,185.80061)"
         clip-path="url(#clipPath30)"
         style="stroke-width:0.831695"><tspan
           style="font-variant:normal;font-weight:500;font-size:13.3333px;font-family:Dosis;writing-mode:lr-tb;fill:#000000;fill-opacity:1;fill-rule:nonzero;stroke:none;stroke-width:0.831695"
           id="tspan29"
           x="0"
           y="0">Tráfego Turbinado</tspan></text><text
         id="text30"
         xml:space="preserve"
         transform="matrix(1.2023639,0,0,1.2023639,11.531922,141.55362)"
         clip-path="url(#clipPath31)"
         style="stroke-width:0.831695"><tspan
           style="font-variant:normal;font-weight:500;font-size:13.3333px;font-family:Dosis;writing-mode:lr-tb;fill:#000000;fill-opacity:1;fill-rule:nonzero;stroke:none;stroke-width:0.831695"
           x="0 10.186666 16.386665 22.973333 28.24 30.906666 34.919998"
           y="0"
           id="tspan30">Website</tspan></text><text
         id="text31"
         xml:space="preserve"
         transform="matrix(1.2023639,0,0,1.2023639,10.778443,207.92411)"
         clip-path="url(#clipPath32)"
         style="stroke-width:0.831695"><tspan
           style="font-variant:normal;font-weight:500;font-size:13.3333px;font-family:Dosis;writing-mode:lr-tb;fill:#000000;fill-opacity:1;fill-rule:nonzero;stroke:none;stroke-width:0.831695"
           x="0 7.2799997 11.84 18.559999 25.146666 31.506666 34.173332 41.026665 46.599998 52.173332 55.09333 61.813332 67.080002 69.746666 75.533333 81.893333 84.559998 89.906662 96.106667 99.026665 105.22666 111.34666 115.68 121.64"
           y="0"
           id="tspan31">Grupo Exclusivo Telegram</tspan></text><text
         id="text32"
         xml:space="preserve"
         transform="matrix(1.2023639,0,0,1.2023639,11.636732,230.0476)"
         clip-path="url(#clipPath33)"
         style="stroke-width:0.831695"><tspan
           style="font-variant:normal;font-weight:500;font-size:13.3333px;font-family:Dosis;writing-mode:lr-tb;fill:#000000;fill-opacity:1;fill-rule:nonzero;stroke:none;stroke-width:0.831695"
           x="0 3.3199999 5.9866667 13.08 19.439999 26.133333 31.4 38.119999 41.039997 45.053333 51.413334 55.973331 58.639999 64.599998 67.266663 73.853333 80.213333 84.773331 87.439995 97.906662 104.10667"
           y="0"
           id="tspan32">1 Consultoria por mês</tspan></text><text
         id="text33"
         xml:space="preserve"
         transform="matrix(1.2023639,0,0,1.2023639,10.642781,252.1711)"
         clip-path="url(#clipPath34)"
         style="stroke-width:0.831695"><tspan
           style="font-variant:normal;font-weight:500;font-size:13.3333px;font-family:Dosis;writing-mode:lr-tb;fill:#000000;fill-opacity:1;fill-rule:nonzero;stroke:none;stroke-width:0.831695"
           x="0 5.3199997 12.04 18.733334 21.4 24.32 26.986666 33.573334 39.773331 42.439999 48.399998 51.32 55.439999 61.399998 64.066666 71.159996 77.519997 84.119995 89.906662 96.106667 100.62666 105.89333 111.85333"
           y="0"
           id="tspan33">Funil de alta Conversão</tspan></text><text
         id="text24"
         xml:space="preserve"
         transform="matrix(1.2023639,0,0,1.2023639,10.666222,75.183129)"
         clip-path="url(#clipPath25)"
         style="stroke-width:0.831695"><tspan
           style="font-variant:normal;font-weight:500;font-size:13.3333px;font-family:Dosis;writing-mode:lr-tb;fill:#000000;fill-opacity:1;fill-rule:nonzero;stroke:none;stroke-width:0.831695"
           x="0 8.9866667 15.186666 19.199999 25.559999 32.146667 38.506664 41.173332 48.066666 54.026665 56.946667 62.906666 68.479996 71.146667 77.506668 80.173332 87.68 90.346664 96.466667 99.133331 103.25333 109.21333"
           y="0"
           id="tspan24">Método Palácio Digital</tspan></text><text
         id="text34"
         xml:space="preserve"
         transform="matrix(1.3080191,0,0,1.3080191,42.03575,318.89884)"
         clip-path="url(#clipPath10)"
         style="fill:#008000"><tspan
           style="font-variant:normal;font-weight:normal;font-size:25.3333px;font-family:'Bebas Neue';writing-mode:lr-tb;fill:#008000;fill-opacity:1;fill-rule:nonzero;stroke:none"
           x="0 10.209333 20.342667 20.342667"
           y="0"
           id="tspan34">R$ 429</tspan></text><text
         id="text36"
         xml:space="preserve"
         transform="translate(115.67432,319.04207)"
         clip-path="url(#clipPath7)"
         style="fill:#20124d;fill-opacity:1"><tspan
           style="font-variant:normal;font-weight:500;font-size:18.6667px;font-family:Dosis;writing-mode:lr-tb;fill:#20124d;fill-opacity:1;fill-rule:nonzero;stroke:none"
           id="tspan36"
           x="0"
           y="0">mensal</tspan></text><text
         id="text9"
         xml:space="preserve"
         transform="translate(42.970409,289.54008)"
         clip-path="url(#clipPath10)"
         style="fill:#7b1595;fill-opacity:1"><tspan
           style="font-variant:normal;font-weight:normal;font-size:25.3333px;font-family:'Bebas Neue';writing-mode:lr-tb;fill:#7b1595;fill-opacity:1;fill-rule:nonzero;stroke:none"
           x="0 10.209333 20.342667"
           y="0"
           id="tspan9">R$ 1.336</tspan></text><g
         id="g39"
         transform="translate(26.764576,-11.487374)"><path
           style="fill:#800080;stroke:#ff0000;stroke-width:1;stroke-linecap:round;stroke-linejoin:round;stroke-dasharray:none;paint-order:markers stroke fill"
           d="M 11.695435,301.02745 90.302928,283.54747"
           id="path35" /><path
           style="fill:#800080;stroke:#ff0000;stroke-width:1;stroke-linecap:round;stroke-linejoin:round;stroke-dasharray:none;paint-order:markers stroke fill"
           d="m 11.695435,283.54747 78.607493,17.47998"
           id="path36" /></g><text
         id="text40"
         xml:space="preserve"
         transform="translate(11.550437,289.88407)"
         clip-path="url(#clipPath22)"><tspan
           style="font-variant:normal;font-weight:700;font-size:17.3333px;font-family:Dosis;writing-mode:lr-tb;fill:#20124d;fill-opacity:1;fill-rule:nonzero;stroke:none"
           id="tspan40"
           x="0"
           y="0">De</tspan></text><text
         id="text41"
         xml:space="preserve"
         transform="translate(11.550437,317.20409)"
         clip-path="url(#clipPath22)"><tspan
           style="font-variant:normal;font-weight:700;font-size:17.3333px;font-family:Dosis;writing-mode:lr-tb;fill:#20124d;fill-opacity:1;fill-rule:nonzero;stroke:none"
           id="tspan41"
           x="0"
           y="0">Por</tspan></text><text
         id="text38"
         xml:space="preserve"
         transform="matrix(0.55751982,0,0,0.55751982,209.83106,75.253719)"
         clip-path="url(#clipPath10)"
         style="fill:#7b1595;fill-opacity:1"><tspan
           style="font-variant:normal;font-weight:normal;font-size:25.3333px;font-family:'Bebas Neue';writing-mode:lr-tb;fill:#7b1595;fill-opacity:1;fill-rule:nonzero;stroke:none"
           x="0 10.209333 20.342667"
           id="tspan38"
           y="0">R$ 97</tspan></text><path
         style="fill:#008000;stroke:#1a1a1a;stroke-width:0.999997;stroke-linecap:round;stroke-linejoin:round;stroke-dasharray:0.999997, 6;stroke-dashoffset:0;paint-order:markers stroke fill"
         d="m 148.58835,74.798745 h 62.96396"
         id="path43" /><path
         style="fill:#008000;stroke:#1a1a1a;stroke-width:0.999992;stroke-linecap:round;stroke-linejoin:round;stroke-dasharray:0.999992, 5.99999;stroke-dashoffset:0;paint-order:markers stroke fill"
         d="m 119.21003,96.925818 h 90.03183"
         id="path44" /><text
         id="text44"
         xml:space="preserve"
         transform="matrix(0.55751982,0,0,0.55751982,209.23031,97.386427)"
         clip-path="url(#clipPath10)"
         style="fill:#7b1595;fill-opacity:1"><tspan
           style="font-variant:normal;font-weight:normal;font-size:25.3333px;font-family:'Bebas Neue';writing-mode:lr-tb;fill:#7b1595;fill-opacity:1;fill-rule:nonzero;stroke:none"
           x="0 10.209333 20.342667"
           y="0"
           id="tspan44">R$ 207</tspan></text><path
         style="fill:#008000;stroke:#1a1a1a;stroke-width:0.999995;stroke-linecap:round;stroke-linejoin:round;stroke-dasharray:0.999995, 6;stroke-dashoffset:0;paint-order:markers stroke fill"
         d="m 156.21592,119.0529 h 52.76477"
         id="path45" /><text
         id="text45"
         xml:space="preserve"
         transform="matrix(0.55751982,0,0,0.55751982,209.23031,119.51913)"
         clip-path="url(#clipPath10)"
         style="fill:#7b1595;fill-opacity:1"><tspan
           style="font-variant:normal;font-weight:normal;font-size:25.3333px;font-family:'Bebas Neue';writing-mode:lr-tb;fill:#7b1595;fill-opacity:1;fill-rule:nonzero;stroke:none"
           x="0 10.209333 20.342667"
           y="0"
           id="tspan45">R$ 237</tspan></text><path
         style="fill:#008000;stroke:#1a1a1a;stroke-width:1;stroke-linecap:round;stroke-linejoin:round;stroke-dasharray:1, 6;stroke-dashoffset:0;paint-order:markers stroke fill"
         d="M 64.869819,141.17998 H 204.75624"
         id="path46" /><text
         id="text46"
         xml:space="preserve"
         transform="matrix(0.55751982,0,0,0.55751982,209.23031,141.65184)"
         clip-path="url(#clipPath10)"
         style="fill:#7b1595;fill-opacity:1"><tspan
           style="font-variant:normal;font-weight:normal;font-size:25.3333px;font-family:'Bebas Neue';writing-mode:lr-tb;fill:#7b1595;fill-opacity:1;fill-rule:nonzero;stroke:none"
           x="0 10.209333 20.342667"
           y="0"
           id="tspan46">R$ 137</tspan></text><text
         id="text47"
         xml:space="preserve"
         transform="matrix(0.55751982,0,0,0.55751982,209.1555,163.78455)"
         clip-path="url(#clipPath10)"
         style="fill:#7b1595;fill-opacity:1"><tspan
           style="font-variant:normal;font-weight:normal;font-size:25.3333px;font-family:'Bebas Neue';writing-mode:lr-tb;fill:#7b1595;fill-opacity:1;fill-rule:nonzero;stroke:none"
           x="0 10.209333 20.342667"
           id="tspan47"
           y="0">R$ 197</tspan></text><path
         style="fill:#008000;stroke:#1a1a1a;stroke-width:0.999993;stroke-linecap:round;stroke-linejoin:round;stroke-dasharray:0.999993, 6.00001;stroke-dashoffset:0;paint-order:markers stroke fill"
         d="m 117.66263,163.30706 h 88.69703"
         id="path47" /><text
         id="text48"
         xml:space="preserve"
         transform="matrix(0.55751982,0,0,0.55751982,209.16242,185.91726)"
         clip-path="url(#clipPath10)"
         style="fill:#7b1595;fill-opacity:1"><tspan
           style="font-variant:normal;font-weight:normal;font-size:25.3333px;font-family:'Bebas Neue';writing-mode:lr-tb;fill:#7b1595;fill-opacity:1;fill-rule:nonzero;stroke:none"
           x="0 10.209333 20.342667"
           id="tspan48"
           y="0">R$ 127</tspan></text><path
         style="fill:#008000;stroke:#1a1a1a;stroke-width:0.999999;stroke-linecap:round;stroke-linejoin:round;stroke-dasharray:0.999999, 6.00001;stroke-dashoffset:0;paint-order:markers stroke fill"
         d="m 124.94123,185.43414 h 81.09441"
         id="path48" /><text
         id="text50"
         xml:space="preserve"
         transform="matrix(0.55751982,0,0,0.55751982,209.16242,208.04996)"
         clip-path="url(#clipPath10)"
         style="fill:#7b1595;fill-opacity:1"><tspan
           style="font-variant:normal;font-weight:normal;font-size:25.3333px;font-family:'Bebas Neue';writing-mode:lr-tb;fill:#7b1595;fill-opacity:1;fill-rule:nonzero;stroke:none"
           x="0 10.209333 20.342667"
           id="tspan50"
           y="0">R$ 27</tspan></text><path
         style="fill:#008000;stroke:#1a1a1a;stroke-width:0.999988;stroke-linecap:round;stroke-linejoin:round;stroke-dasharray:0.999988, 6.00001;stroke-dashoffset:0;paint-order:markers stroke fill"
         d="m 173.97539,207.56122 h 33.82774"
         id="path50" /><text
         id="text51"
         xml:space="preserve"
         transform="matrix(0.55751982,0,0,0.55751982,209.16242,230.18267)"
         clip-path="url(#clipPath10)"
         style="fill:#7b1595;fill-opacity:1"><tspan
           style="font-variant:normal;font-weight:normal;font-size:25.3333px;font-family:'Bebas Neue';writing-mode:lr-tb;fill:#7b1595;fill-opacity:1;fill-rule:nonzero;stroke:none"
           x="0 10.209333 20.342667"
           id="tspan51"
           y="0">R$ 120</tspan></text><path
         style="fill:#008000;stroke:#1a1a1a;stroke-width:0.999993;stroke-linecap:round;stroke-linejoin:round;stroke-dasharray:0.999993, 6.00001;stroke-dashoffset:0;paint-order:markers stroke fill"
         d="m 146.92316,229.6883 h 60.98551"
         id="path51" /><text
         id="text52"
         xml:space="preserve"
         transform="matrix(0.55751982,0,0,0.55751982,209.23031,252.31538)"
         clip-path="url(#clipPath10)"
         style="fill:#7b1595;fill-opacity:1"><tspan
           style="font-variant:normal;font-weight:normal;font-size:25.3333px;font-family:'Bebas Neue';writing-mode:lr-tb;fill:#7b1595;fill-opacity:1;fill-rule:nonzero;stroke:none"
           x="0 10.209333 20.342667"
           id="tspan52"
           y="0">R$ 187</tspan></text><path
         style="fill:#008000;stroke:#1a1a1a;stroke-width:0.999995;stroke-linecap:round;stroke-linejoin:round;stroke-dasharray:0.999995, 6.00001;stroke-dashoffset:0;paint-order:markers stroke fill"
         d="m 155.49478,251.81538 h 51.82426"
         id="path52" /></g></g></svg>
