<?xml version="1.0" encoding="UTF-8" standalone="no"?>
<!-- Created with Inkscape (http://www.inkscape.org/) -->

<svg
   version="1.1"
   id="svg1"
   width="251.66876"
   height="345.05438"
   viewBox="0 0 251.66876 345.05439"
   xml:space="preserve"
   xmlns="http://www.w3.org/2000/svg"
   xmlns:svg="http://www.w3.org/2000/svg"><defs
     id="defs1"><rect
       x="631.69269"
       y="137.2117"
       width="207.51027"
       height="116.39461"
       id="rect206" /><clipPath
       clipPathUnits="userSpaceOnUse"
       id="clipPath2"><path
         d="M 0,0 H 95730 V 142127 H 0 Z"
         id="path2" /></clipPath><clipPath
       clipPathUnits="userSpaceOnUse"
       id="clipPath6"><path
         d="M 0,0 H 95730 V 142127 H 0 Z"
         id="path6" /></clipPath><clipPath
       clipPathUnits="userSpaceOnUse"
       id="clipPath7"><path
         d="M 0,0 H 95730 V 142127 H 0 Z"
         transform="matrix(0.00262467,0,0,0.00262467,-12.970145,-30.99821)"
         id="path7" /></clipPath><clipPath
       clipPathUnits="userSpaceOnUse"
       id="clipPath9"><path
         d="M 0,0 H 95730 V 142127 H 0 Z"
         id="path9" /></clipPath><clipPath
       clipPathUnits="userSpaceOnUse"
       id="clipPath10"><path
         d="M 0,0 H 95730 V 142127 H 0 Z"
         transform="matrix(0.00262467,0,0,0.00262467,-17.106667,-76.512583)"
         id="path10" /></clipPath><clipPath
       clipPathUnits="userSpaceOnUse"
       id="clipPath21"><path
         d="M 0,0 H 95730 V 142127 H 0 Z"
         id="path21" /></clipPath><clipPath
       clipPathUnits="userSpaceOnUse"
       id="clipPath24"><path
         d="M 0,0 H 95730 V 142127 H 0 Z"
         id="path24" /></clipPath><clipPath
       clipPathUnits="userSpaceOnUse"
       id="clipPath25"><path
         d="M 0,0 H 95730 V 142127 H 0 Z"
         transform="matrix(0.00262467,0,0,0.00262467,-20.763781,-138.0441)"
         id="path25" /></clipPath><clipPath
       clipPathUnits="userSpaceOnUse"
       id="clipPath32"><path
         d="M 0,0 H 95730 V 142127 H 0 Z"
         transform="matrix(0.00262467,0,0,0.00262467,-20.763781,-264.4441)"
         id="path32" /></clipPath><clipPath
       clipPathUnits="userSpaceOnUse"
       id="clipPath33"><path
         d="M 0,0 H 95730 V 142127 H 0 Z"
         transform="matrix(0.00262467,0,0,0.00262467,-20.763781,-282.84409)"
         id="path33" /></clipPath></defs><g
     id="g1"
     transform="translate(-622.46833,4.1024054)"><path
       id="path171"
       d="M 0,0 H 95730 V 142127 H 0 Z"
       style="fill:#000000;fill-opacity:0;fill-rule:evenodd;stroke:none"
       transform="matrix(0.00262467,0,0,0.00262467,622.77528,-4.1024056)"
       clip-path="url(#clipPath2)" /><g
       id="g4"><rect
         style="fill:#fffdf6;fill-opacity:1;stroke:none;stroke-width:16.2043;stroke-linecap:round;stroke-linejoin:round;paint-order:fill markers stroke"
         id="rect3"
         width="251.66878"
         height="345.00314"
         x="622.46832"
         y="-4.0511799"
         ry="13.799943" /><path
         id="path173"
         d="M 5164.4814,1.7620005e-4 H 56064 c 0.125,0 0.242,0.0490288999 0.332,0.13664588995 0.09,0.087617 0.138,0.20645113 0.138,0.33036028 L 56064,13183.115 c 0,2852.265 -2312.22,5164.483 -5164.48,5164.483 H 0 v 0 c -0.25802743,0 -0.4672,-0.211 -0.4672,-0.469 L 0,5164.4814 v 0 C 0,2312.217 2312.217,1.7620005e-4 5164.4814,1.7620005e-4 Z"
         style="fill:#ffd966;fill-opacity:1;fill-rule:evenodd;stroke:none;stroke-width:0.931869"
         transform="matrix(0.00302249,0,0,0.00262467,622.57117,-4.1024061)"
         clip-path="url(#clipPath6)" /><text
         id="text173"
         xml:space="preserve"
         transform="translate(635.74542,26.895804)"
         clip-path="url(#clipPath7)"><tspan
           style="font-variant:normal;font-weight:500;font-size:18.6667px;font-family:Dosis;writing-mode:lr-tb;fill:#20124d;fill-opacity:1;fill-rule:nonzero;stroke:none"
           x="0 9.9866667 14.074666 22.418665 31.789331 40.693333"
           y="0"
           id="tspan173">Plano Personalizado</tspan></text><path
         id="path174"
         d="M 0,18347.506 H 43956 V 33005.64 H 0 Z"
         style="fill:#000000;fill-opacity:0;fill-rule:evenodd;stroke:none"
         transform="matrix(0.00262467,0,0,0.00262467,622.77528,-4.1024056)"
         clip-path="url(#clipPath9)" /><path
         id="path178"
         d="M 4482,30177 H 95478 V 44289 H 4482 Z"
         style="fill:#000000;fill-opacity:0;fill-rule:evenodd;stroke:none"
         transform="matrix(0.00262467,0,0,0.00262467,622.77528,-4.1024056)"
         clip-path="url(#clipPath21)" /><path
         id="path179"
         d="m 4482,44289 h 89580 v 74592 H 4482 Z"
         style="fill:#000000;fill-opacity:0;fill-rule:evenodd;stroke:none"
         transform="matrix(0.00262467,0,0,0.00262467,622.77528,-4.1024056)"
         clip-path="url(#clipPath24)" /><text
         id="text184"
         xml:space="preserve"
         transform="matrix(1.2023639,0,0,1.2023639,633.55372,91.131698)"
         clip-path="url(#clipPath32)"
         style="stroke-width:0.831695"><tspan
           style="font-variant:normal;font-weight:500;font-size:13.3333px;font-family:Dosis;writing-mode:lr-tb;fill:#000000;fill-opacity:1;fill-rule:nonzero;stroke:none;stroke-width:0.831695"
           x="0 7.2799997 11.84 18.559999 25.146666 31.506666 34.173332 41.026665 46.599998 52.173332 55.09333 61.813332 67.080002 69.746666 75.533333 81.893333 84.559998 89.906662 96.106667 99.026665 105.22666 111.34666 115.68 121.64"
           y="0"
           id="tspan184">Grupo Exclusivo Telegram</tspan></text><text
         id="text185"
         xml:space="preserve"
         transform="matrix(1.2023639,0,0,1.2023639,634.41201,112.47334)"
         clip-path="url(#clipPath33)"
         style="stroke-width:0.831695"><tspan
           style="font-variant:normal;font-weight:500;font-size:13.3333px;font-family:Dosis;writing-mode:lr-tb;fill:#000000;fill-opacity:1;fill-rule:nonzero;stroke:none;stroke-width:0.831695"
           id="tspan185"
           x="0"
           y="0">X Consultorias por mês</tspan></text><text
         id="text187"
         xml:space="preserve"
         transform="matrix(1.2023639,0,0,1.2023639,633.4415,71.080723)"
         clip-path="url(#clipPath25)"
         style="stroke-width:0.831695"><tspan
           style="font-variant:normal;font-weight:500;font-size:13.3333px;font-family:Dosis;writing-mode:lr-tb;fill:#000000;fill-opacity:1;fill-rule:nonzero;stroke:none;stroke-width:0.831695"
           x="0 8.9866667 15.186666 19.199999 25.559999 32.146667 38.506664 41.173332 48.066666 54.026665 56.946667 62.906666 68.479996 71.146667 77.506668 80.173332 87.68 90.346664 96.466667 99.133331 103.25333 109.21333"
           y="0"
           id="tspan187">Método Palácio Digital</tspan></text><text
         id="text188"
         xml:space="preserve"
         transform="matrix(1.3080191,0,0,1.3080191,632.5294,318.79643)"
         clip-path="url(#clipPath10)"
         style="fill:#008000"><tspan
           style="font-variant:normal;font-weight:normal;font-size:25.3333px;font-family:'Bebas Neue';writing-mode:lr-tb;fill:#008000;fill-opacity:1;fill-rule:nonzero;stroke:none"
           id="tspan188"
           x="0"
           y="0">cOM O SEU ORÇAMENTO</tspan></text><text
         id="text190"
         xml:space="preserve"
         transform="translate(632.72908,289.77525)"
         clip-path="url(#clipPath10)"
         style="fill:#7b1595;fill-opacity:1"><tspan
           style="font-variant:normal;font-weight:normal;font-size:25.3333px;font-family:'Bebas Neue';writing-mode:lr-tb;fill:#7b1595;fill-opacity:1;fill-rule:nonzero;stroke:none"
           id="tspan190"
           x="0"
           y="0">MONTAMOS SEU PACOTE</tspan></text><text
         id="text193"
         xml:space="preserve"
         transform="matrix(0.55751982,0,0,0.55751982,832.60634,71.151313)"
         clip-path="url(#clipPath10)"
         style="fill:#7b1595;fill-opacity:1"><tspan
           style="font-variant:normal;font-weight:normal;font-size:25.3333px;font-family:'Bebas Neue';writing-mode:lr-tb;fill:#7b1595;fill-opacity:1;fill-rule:nonzero;stroke:none"
           x="0 10.209333 20.342667"
           id="tspan193"
           y="0">R$ 97</tspan></text><path
         style="fill:#008000;stroke:#1a1a1a;stroke-width:0.999997;stroke-linecap:round;stroke-linejoin:round;stroke-dasharray:0.999997, 6;stroke-dashoffset:0;paint-order:markers stroke fill"
         d="m 771.36363,70.696339 h 62.96396"
         id="path193" /><text
         id="text200"
         xml:space="preserve"
         transform="matrix(0.55751982,0,0,0.55751982,831.9377,90.475708)"
         clip-path="url(#clipPath10)"
         style="fill:#7b1595;fill-opacity:1"><tspan
           style="font-variant:normal;font-weight:normal;font-size:25.3333px;font-family:'Bebas Neue';writing-mode:lr-tb;fill:#7b1595;fill-opacity:1;fill-rule:nonzero;stroke:none"
           x="0 10.209333 20.342667"
           id="tspan200"
           y="0">R$ 27</tspan></text><path
         style="fill:#008000;stroke:#1a1a1a;stroke-width:0.999988;stroke-linecap:round;stroke-linejoin:round;stroke-dasharray:0.999988, 6.00001;stroke-dashoffset:0;paint-order:markers stroke fill"
         d="m 796.75067,89.986968 h 33.82774"
         id="path200" /><text
         id="text201"
         xml:space="preserve"
         transform="matrix(0.55751982,0,0,0.55751982,831.9377,112.60841)"
         clip-path="url(#clipPath10)"
         style="fill:#7b1595;fill-opacity:1"><tspan
           style="font-variant:normal;font-weight:normal;font-size:25.3333px;font-family:'Bebas Neue';writing-mode:lr-tb;fill:#7b1595;fill-opacity:1;fill-rule:nonzero;stroke:none"
           x="0 10.209333 20.342667"
           id="tspan201"
           y="0">R$ <tspan
   style="font-size:19.1324px"
   id="tspan203">x</tspan>80</tspan></text><path
         style="fill:#008000;stroke:#1a1a1a;stroke-width:0.999993;stroke-linecap:round;stroke-linejoin:round;stroke-dasharray:0.999993, 6.00001;stroke-dashoffset:0;paint-order:markers stroke fill"
         d="m 769.69844,112.11404 h 60.98551"
         id="path201" /><rect
         style="fill:#fffdf6;fill-opacity:1;stroke:#1a1a1a;stroke-width:3.2;stroke-linecap:round;stroke-linejoin:round;stroke-dasharray:3.2, 6.4;stroke-dashoffset:0;stroke-opacity:1;paint-order:markers stroke fill"
         id="rect205"
         width="220.72174"
         height="133.26877"
         x="635.49036"
         y="122.14498"
         ry="7.2421327" /><text
         xml:space="preserve"
         transform="matrix(1.3456468,0,0,1.4314536,-242.5774,19.325284)"
         id="text205"
         style="font-style:normal;font-variant:normal;font-weight:normal;font-stretch:normal;font-size:10.6667px;line-height:1;font-family:Oswald;-inkscape-font-specification:Oswald;text-align:center;letter-spacing:0.5px;word-spacing:1px;white-space:pre;shape-inside:url(#rect206);display:inline;fill:#fffdf6;fill-opacity:1;stroke:#000000;stroke-width:2.30566;stroke-linecap:round;stroke-linejoin:round;stroke-dasharray:none;stroke-dashoffset:0;stroke-opacity:1;paint-order:markers stroke fill"><tspan
           x="678.34131"
           y="145.80053"
           id="tspan2"><tspan
             dx="0 0 0 0 0 0 0 -1 0.99999833 0 0 0 -1.0000029 1.0000021 0 0 0 0 0 -0.99999905 0.99999833"
             id="tspan1">Arraste suas ideias aqui</tspan></tspan></text><g
         style="fill:#000000;stroke-width:13.3161"
         id="g206"
         transform="matrix(0.05866969,0,0,0.05866969,715.50519,138.43458)"><path
           d="M 472.032,695.854 A 47.722,47.722 0 0 1 438.12,681.832 c -18.706,-18.69 -18.69,-49.136 0.016,-67.842 a 7.988,7.988 0 0 1 11.304,0 7.986,7.986 0 0 1 0,11.302 c -12.476,12.476 -12.476,32.758 -0.016,45.234 12.444,12.446 32.742,12.46 45.25,0 5.918,-5.934 9.26,-13.788 9.368,-22.11 0.062,-4.418 3.45,-8.166 8.104,-7.884 a 7.99,7.99 0 0 1 7.884,8.104 c -0.172,12.508 -5.168,24.28 -14.052,33.18 -9.354,9.368 -21.658,14.038 -33.946,14.038 z M 424.098,490.516 c -26.45,0 -47.966,-21.508 -47.966,-47.952 0,-26.458 21.516,-47.98 47.966,-47.98 a 47.928,47.928 0 0 1 31.852,12.054 8,8 0 0 1 0.672,11.288 8.016,8.016 0 0 1 -11.29,0.672 31.912,31.912 0 0 0 -21.234,-8.026 c -17.628,0 -31.978,14.35 -31.978,31.992 0,17.622 14.348,31.962 31.978,31.962 a 7.988,7.988 0 0 1 7.994,7.994 7.99,7.99 0 0 1 -7.994,7.996 z m -49.59,91.434 a 8.188,8.188 0 0 1 -3.186,-0.656 31.964,31.964 0 0 1 -19.174,-29.306 c 0,-17.642 14.35,-31.992 31.978,-31.992 4.418,0 7.994,3.576 7.994,7.994 0,4.418 -3.576,7.994 -7.994,7.994 -8.822,0 -15.99,7.182 -15.99,16.004 a 15.936,15.936 0 0 0 9.556,14.63 7.992,7.992 0 0 1 4.136,10.524 7.966,7.966 0 0 1 -7.32,4.808 z"
           fill=""
           id="path1-6"
           style="stroke-width:13.3161" /><path
           d="m 384.126,535.982 c -22.046,0 -39.972,-17.916 -39.972,-39.94 0.016,-24.85 23.686,-44.258 48.356,-39.128 a 7.99,7.99 0 0 1 6.184,9.454 7.948,7.948 0 0 1 -9.462,6.19 c -14.848,-3.06 -29.088,8.564 -29.088,23.484 0,13.208 10.758,23.952 23.984,23.952 4.418,0 7.994,3.576 7.994,7.994 0,4.418 -3.578,7.994 -7.996,7.994 z m 95.93,-95.932 c -22.046,0 -39.97,-17.916 -39.97,-39.94 0,-22.054 17.924,-40.002 39.97,-40.002 22.046,0 39.972,17.948 39.972,40.002 a 7.99,7.99 0 0 1 -7.994,7.994 7.99,7.99 0 0 1 -7.996,-7.994 c 0,-13.24 -10.758,-24.014 -23.984,-24.014 -13.224,0 -23.982,10.774 -23.982,24.014 0,13.208 10.758,23.952 23.982,23.952 a 7.99,7.99 0 0 1 7.996,7.994 7.986,7.986 0 0 1 -7.994,7.994 z m -55.848,223.872 c -16.832,0 -33.274,-6.682 -45.36,-18.752 -24.934,-24.936 -24.918,-65.516 0.032,-90.466 12.086,-12.1 28.136,-18.752 45.188,-18.752 h 0.016 c 17.05,0 33.118,6.652 45.232,18.768 a 7.988,7.988 0 0 1 0,11.304 7.988,7.988 0 0 1 -11.304,0 C 448.926,556.938 436.87,551.94 424.084,551.94 h -0.016 c -12.772,0 -24.81,4.998 -33.882,14.068 -18.72,18.72 -18.736,49.168 -0.032,67.86 10.82,10.804 26.31,15.894 41.362,13.504 4.294,-0.592 8.462,2.312 9.134,6.668 a 8.018,8.018 0 0 1 -6.668,9.134 64.46,64.46 0 0 1 -9.774,0.748 z M 552.03,695.87 c -12.304,0 -24.584,-4.686 -33.938,-14.038 -8.882,-8.916 -13.88,-20.688 -14.052,-33.196 a 7.992,7.992 0 0 1 7.886,-8.104 c 4.48,-0.156 8.026,3.466 8.104,7.884 0.11,8.322 3.45,16.176 9.36,22.124 12.524,12.46 32.82,12.46 45.25,-0.016 12.458,-12.476 12.458,-32.758 0,-45.234 -3.124,-3.122 -3.124,-8.18 0,-11.302 3.124,-3.122 8.182,-3.124 11.304,0 18.706,18.706 18.706,49.152 0,67.842 -9.338,9.354 -21.642,14.04 -33.914,14.04 z m 47.932,-205.354 a 8,8 0 0 1 -7.992,-7.994 7.998,7.998 0 0 1 7.992,-7.994 c 17.644,0 31.978,-14.342 31.978,-31.962 0,-17.642 -14.334,-31.992 -31.978,-31.992 a 31.942,31.942 0 0 0 -21.234,8.026 c -3.308,2.912 -8.37,2.63 -11.274,-0.672 a 8.014,8.014 0 0 1 0.656,-11.288 47.958,47.958 0 0 1 31.852,-12.054 c 26.452,0 47.966,21.524 47.966,47.98 0.002,26.442 -21.514,47.95 -47.966,47.95 z m 49.59,91.434 c -3.058,0 -6.026,-1.794 -7.306,-4.808 a 7.972,7.972 0 0 1 4.124,-10.524 15.94,15.94 0 0 0 9.554,-14.63 c 0,-8.822 -7.15,-16.004 -15.988,-16.004 a 8,8 0 0 1 -7.994,-7.994 8,8 0 0 1 7.994,-7.994 c 17.644,0 31.976,14.35 31.976,31.992 a 31.964,31.964 0 0 1 -19.174,29.306 8.208,8.208 0 0 1 -3.186,0.656 z"
           fill=""
           id="path2-7"
           style="stroke-width:13.3161" /><path
           d="m 639.936,535.982 a 8,8 0 0 1 -7.994,-7.994 8,8 0 0 1 7.994,-7.994 c 13.24,0 23.982,-10.742 23.982,-23.952 0,-14.928 -14.208,-26.59 -29.072,-23.484 a 7.94,7.94 0 0 1 -9.462,-6.19 7.992,7.992 0 0 1 6.184,-9.454 c 24.732,-5.128 48.34,14.28 48.34,39.128 -0.002,22.024 -17.926,39.94 -39.972,39.94 z M 544.004,440.05 a 8,8 0 0 1 -7.994,-7.994 8,8 0 0 1 7.994,-7.994 c 13.24,0 23.982,-10.742 23.982,-23.952 0,-13.24 -10.742,-24.014 -23.982,-24.014 -13.208,0 -23.974,10.774 -23.974,24.014 a 7.99,7.99 0 0 1 -7.994,7.994 7.99,7.99 0 0 1 -7.996,-7.994 c 0,-22.054 17.924,-40.002 39.964,-40.002 22.046,0 39.97,17.948 39.97,40.002 0,22.024 -17.924,39.94 -39.97,39.94 z m 55.834,223.872 a 64.2,64.2 0 0 1 -9.742,-0.748 8.03,8.03 0 0 1 -6.684,-9.134 c 0.688,-4.372 4.842,-7.338 9.15,-6.668 15.084,2.39 30.542,-2.7 41.346,-13.52 18.706,-18.676 18.706,-49.124 -0.032,-67.844 -9.054,-9.07 -21.11,-14.068 -33.882,-14.068 -12.802,0 -24.856,4.998 -33.944,14.084 -3.124,3.124 -8.182,3.124 -11.304,0 -3.122,-3.124 -3.124,-8.182 0,-11.304 12.118,-12.116 28.2,-18.768 45.248,-18.768 17.05,0 33.102,6.652 45.188,18.752 24.952,24.952 24.982,65.532 0.032,90.466 -12.088,12.07 -28.512,18.752 -45.376,18.752 z m 16.084,303.754 H 408.078 a 7.982,7.982 0 0 1 -5.652,-2.344 l -31.978,-31.976 a 7.988,7.988 0 0 1 -2.342,-5.652 v -111.92 a 7.988,7.988 0 0 1 7.994,-7.994 h 271.798 a 7.998,7.998 0 0 1 7.994,7.994 v 111.92 a 7.992,7.992 0 0 1 -2.342,5.652 l -31.976,31.976 a 7.99,7.99 0 0 1 -5.652,2.344 z m -204.534,-15.99 h 201.224 l 27.292,-27.292 V 823.778 h -255.81 v 100.616 z"
           fill=""
           id="path3-5"
           style="stroke-width:13.3161" /><path
           d="m 360.112,871.742 a 7.986,7.986 0 0 1 -7.978,-7.572 8.008,8.008 0 0 1 7.556,-8.416 l 303.76,-15.988 c 4.498,-0.094 8.182,3.17 8.4,7.574 0.25,4.418 -3.152,8.164 -7.556,8.414 l -303.76,15.988 z m 0,47.966 a 7.988,7.988 0 0 1 -7.978,-7.572 8.008,8.008 0 0 1 7.556,-8.416 l 303.76,-15.988 a 7.95,7.95 0 0 1 8.4,7.572 c 0.25,4.418 -3.152,8.166 -7.556,8.416 l -303.76,15.988 z m 287.786,-95.93 H 376.1 a 7.99,7.99 0 0 1 -7.994,-7.994 V 766.226 C 287.93,716.12 240.198,630.386 240.198,535.984 c 0,-149.876 121.928,-271.806 271.806,-271.806 149.854,0 271.796,121.928 271.796,271.806 0,94.418 -47.746,180.152 -127.908,230.242 v 49.558 a 8,8 0 0 1 -7.994,7.994 z M 384.094,807.79 h 255.81 v -46.03 a 7.96,7.96 0 0 1 3.872,-6.84 c 77.664,-46.826 124.038,-128.658 124.038,-218.938 0,-141.054 -114.762,-255.816 -255.808,-255.816 -141.056,0 -255.818,114.762 -255.818,255.816 0,90.248 46.374,172.096 124.038,218.938 a 7.96,7.96 0 0 1 3.872,6.84 v 46.03 z m 127.91,191.862 c -60.208,0 -78.352,-34.914 -79.1,-36.396 a 7.996,7.996 0 0 1 3.576,-10.726 c 3.952,-1.936 8.712,-0.39 10.696,3.514 0.624,1.202 15.146,27.622 64.83,27.622 49.736,0 64.226,-26.498 64.82,-27.636 2.03,-3.874 6.838,-5.434 10.742,-3.436 3.904,1.998 5.496,6.744 3.53,10.664 -0.752,1.48 -18.894,36.394 -79.094,36.394 z M 168.248,543.976 H 8.364 a 7.988,7.988 0 0 1 -7.994,-7.994 7.988,7.988 0 0 1 7.994,-7.994 h 159.884 a 7.99,7.99 0 0 1 7.996,7.994 7.99,7.99 0 0 1 -7.996,7.994 z m 847.388,0 H 855.75 a 7.98,7.98 0 0 1 -7.994,-7.994 7.98,7.98 0 0 1 7.994,-7.994 h 159.886 a 8,8 0 0 1 7.994,7.994 7.998,7.998 0 0 1 -7.994,7.994 z M 75.83,795.796 a 7.976,7.976 0 0 1 -6.916,-3.996 7.996,7.996 0 0 1 2.918,-10.93 l 138.496,-79.944 c 3.826,-2.186 8.728,-0.906 10.914,2.936 a 7.996,7.996 0 0 1 -2.92,10.93 L 79.828,794.734 a 8.06,8.06 0 0 1 -3.998,1.062 z M 809.72,372.1 a 7.99,7.99 0 0 1 -6.934,-3.998 7.978,7.978 0 0 1 2.936,-10.922 l 138.434,-79.942 c 3.808,-2.194 8.712,-0.914 10.898,2.928 a 7.996,7.996 0 0 1 -2.904,10.922 L 813.716,371.03 a 8.072,8.072 0 0 1 -3.996,1.07 z M 683.904,246.284 a 7.916,7.916 0 0 1 -3.998,-1.07 7.978,7.978 0 0 1 -2.936,-10.922 L 756.882,95.828 c 2.186,-3.834 7.056,-5.152 10.93,-2.928 a 7.992,7.992 0 0 1 2.904,10.922 l -79.912,138.464 a 7.952,7.952 0 0 1 -6.9,3.998 z M 512.036,200.192 a 7.99,7.99 0 0 1 -7.996,-7.994 L 504.024,32.342 a 7.996,7.996 0 0 1 15.99,0 l 0.016,159.856 a 7.996,7.996 0 0 1 -7.994,7.994 z m -171.878,46.06 a 7.956,7.956 0 0 1 -6.916,-3.998 L 253.298,103.822 a 7.984,7.984 0 0 1 2.92,-10.922 7.98,7.98 0 0 1 10.914,2.928 l 79.944,138.432 a 7.984,7.984 0 0 1 -6.918,11.992 z m 608.026,549.514 a 8,8 0 0 1 -3.996,-1.06 L 805.724,714.762 a 7.988,7.988 0 0 1 -2.936,-10.93 8.01,8.01 0 0 1 10.93,-2.936 l 138.464,79.944 a 8.004,8.004 0 0 1 2.904,10.93 7.956,7.956 0 0 1 -6.902,3.996 z M 214.326,372.038 a 8.008,8.008 0 0 1 -3.998,-1.07 L 71.88,291.056 a 7.986,7.986 0 0 1 -2.92,-10.922 c 2.202,-3.826 7.104,-5.114 10.914,-2.928 l 138.448,79.912 a 7.984,7.984 0 0 1 2.92,10.922 7.98,7.98 0 0 1 -6.916,3.998 z"
           fill=""
           id="path4-3"
           style="stroke-width:13.3161" /><path
           d="m 512.036,656.522 a 7.99,7.99 0 0 1 -7.996,-7.994 V 400.112 a 7.99,7.99 0 0 1 7.996,-7.994 7.99,7.99 0 0 1 7.994,7.994 v 248.416 a 7.99,7.99 0 0 1 -7.994,7.994 z"
           fill=""
           id="path5-5"
           style="stroke-width:13.3161" /><path
           d="m 535.978,599.938 c -20.71,0 -30.69,-19.58 -31.096,-20.424 a 7.9921602,7.9921602 0 0 1 14.288,-7.166 c 0.094,0.172 6.106,11.602 16.808,11.602 a 8,8 0 0 1 7.994,7.994 8,8 0 0 1 -7.994,7.994 z"
           fill=""
           id="path6-6"
           style="stroke-width:13.3161" /><path
           d="m 488.004,599.938 a 7.99,7.99 0 0 1 -7.994,-7.994 7.988,7.988 0 0 1 7.994,-7.994 c 10.71,0 16.738,-11.492 16.8,-11.602 2.014,-3.888 6.824,-5.48 10.728,-3.514 3.918,1.998 5.528,6.746 3.558,10.68 -0.404,0.844 -10.382,20.424 -31.086,20.424 z m 63.962,-95.932 c -37.918,0 -47.926,-26.146 -47.926,-39.972 a 7.996,7.996 0 0 1 15.99,-0.07 c 0.046,2.466 1.326,24.054 31.938,24.054 a 8,8 0 0 1 7.994,7.994 8.002,8.002 0 0 1 -7.996,7.994 z"
           fill=""
           id="path7-2"
           style="stroke-width:13.3161" /><path
           d="m 472.016,504.006 a 7.99,7.99 0 0 1 -7.994,-7.994 7.99,7.99 0 0 1 7.994,-7.994 c 30.604,0 31.884,-21.594 31.932,-24.054 0.078,-4.396 3.48,-8.228 8.072,-7.884 a 7.956,7.956 0 0 1 7.916,7.956 c 0,13.824 -10.01,39.97 -47.92,39.97 z"
           fill=""
           id="path8-9"
           style="stroke-width:13.3161" /></g></g></g></svg>
