<?xml version="1.0" encoding="UTF-8" standalone="no"?>
<!-- Created with Inkscape (http://www.inkscape.org/) -->

<svg
   width="24.912323mm"
   height="24.912323mm"
   viewBox="0 0 24.912323 24.912323"
   version="1.1"
   id="svg1"
   inkscape:version="1.3 (1:1.3+202307231459+0e150ed6c4)"
   sodipodi:docname="qr-mestreflou-papagaiado.svg"
   xmlns:inkscape="http://www.inkscape.org/namespaces/inkscape"
   xmlns:sodipodi="http://sodipodi.sourceforge.net/DTD/sodipodi-0.dtd"
   xmlns="http://www.w3.org/2000/svg"
   xmlns:svg="http://www.w3.org/2000/svg">
  <sodipodi:namedview
     id="namedview1"
     pagecolor="#ffffff"
     bordercolor="#000000"
     borderopacity="0.25"
     inkscape:showpageshadow="2"
     inkscape:pageopacity="0.0"
     inkscape:pagecheckerboard="0"
     inkscape:deskcolor="#d1d1d1"
     inkscape:document-units="mm"
     inkscape:zoom="3.2353111"
     inkscape:cx="21.790795"
     inkscape:cy="32.454375"
     inkscape:window-width="1600"
     inkscape:window-height="842"
     inkscape:window-x="0"
     inkscape:window-y="22"
     inkscape:window-maximized="1"
     inkscape:current-layer="svg1" />
  <defs
     id="defs1" />
  <g
     inkscape:label="Layer 1"
     inkscape:groupmode="layer"
     id="layer1" />
  <rect
     x="4.6777345e-07"
     y="-3.100586e-07"
     width="24.912323"
     height="24.912323"
     style="fill:#fbf1dd;stroke:none;stroke-width:0.214761;fill-opacity:0.99972546"
     id="rect13"
     ry="2.5025516" />
  <path
     id="rect15"
     style="fill:#140d41;fill-opacity:1;stroke:none;stroke-width:0.191798"
     d="M 2.594095,1.343638 C 1.925132,1.401118 1.400027,1.927024 1.343526,2.596275 v 5.785177 c 0,0.204574 0.165945,0.37052 0.37052,0.37052 h 6.667293 c 0.204575,0 0.37052,-0.165946 0.37052,-0.37052 V 1.714158 c 0,-0.204574 -0.165945,-0.37052 -0.37052,-0.37052 z m 7.586617,0 c -0.204574,0 -0.37052,0.165946 -0.37052,0.37052 v 0.317294 c 0,0.204574 0.165946,0.37052 0.37052,0.37052 h 1.375627 c 0.204575,0 0.37052,-0.165946 0.37052,-0.37052 V 1.714158 c 0,-0.204574 -0.165945,-0.37052 -0.37052,-0.37052 z m 6.35,0 c -0.204574,0 -0.37052,0.165946 -0.37052,0.37052 v 6.667294 c 0,0.204574 0.165946,0.37052 0.37052,0.37052 h 6.667294 c 0.204574,0 0.37052,-0.165946 0.37052,-0.37052 V 2.594208 C 23.511106,1.926011 22.986639,1.401157 22.318473,1.343638 Z M 2.772379,2.401972 h 4.550627 c 0.204574,0 0.37052,0.165945 0.37052,0.37052 v 4.550626 c 0,0.204575 -0.165946,0.37052 -0.37052,0.37052 H 2.772379 c -0.204575,0 -0.37052,-0.165945 -0.37052,-0.37052 V 2.772492 c 0,-0.204575 0.165945,-0.37052 0.37052,-0.37052 z m 9.525,0 c -0.204575,0 -0.37052,0.165945 -0.37052,0.37052 v 0.317293 c 0,0.204575 -0.165945,0.37052 -0.37052,0.37052 h -1.375627 c -0.204574,0 -0.37052,0.165945 -0.37052,0.37052 v 2.43396 c 0,0.204575 0.165946,0.37052 0.37052,0.37052 h 0.317294 c 0.204574,0 0.37052,-0.165945 0.37052,-0.37052 V 4.889158 c 0,-0.204574 0.165945,-0.37052 0.37052,-0.37052 h 0.317293 c 0.204575,0 0.37052,0.165946 0.37052,0.37052 v 0.317294 c 0,0.204574 0.165945,0.37052 0.37052,0.37052 h 0.317293 c 0.204575,0 0.37052,0.165945 0.37052,0.37052 v 0.317293 c 0,0.204575 0.165946,0.37052 0.37052,0.37052 h 1.375627 c 0.204575,0 0.37052,-0.165945 0.37052,-0.37052 V 5.947492 c 0,-0.204575 -0.165945,-0.37052 -0.37052,-0.37052 h -0.317293 c -0.204575,0 -0.37052,-0.165946 -0.37052,-0.37052 V 4.889158 c 0,-0.204574 -0.165946,-0.37052 -0.37052,-0.37052 h -0.317294 c -0.204574,0 -0.37052,-0.165945 -0.37052,-0.37052 V 2.772492 c 0,-0.204575 -0.165945,-0.37052 -0.37052,-0.37052 z m 5.291667,0 h 4.550626 c 0.204575,0 0.37052,0.165945 0.37052,0.37052 v 4.550626 c 0,0.204575 -0.165945,0.37052 -0.37052,0.37052 h -4.550626 c -0.204575,0 -0.37052,-0.165945 -0.37052,-0.37052 V 2.772492 c 0,-0.204575 0.165945,-0.37052 0.37052,-0.37052 z m -3.175,1.058333 c -0.204575,0 -0.37052,0.165945 -0.37052,0.37052 v 0.317293 c 0,0.204575 0.165945,0.37052 0.37052,0.37052 h 0.317293 c 0.204575,0 0.37052,-0.165945 0.37052,-0.37052 V 3.830825 c 0,-0.204575 -0.165945,-0.37052 -0.37052,-0.37052 z m -4.233334,4.233333 c -0.204574,0 -0.37052,0.165946 -0.37052,0.37052 v 0.317294 c 0,0.204574 0.165946,0.37052 0.37052,0.37052 h 0.317294 c 0.204574,0 0.37052,-0.165946 0.37052,-0.37052 V 8.064158 c 0,-0.204574 -0.165946,-0.37052 -0.37052,-0.37052 z m 2.116667,0 c -0.204575,0 -0.37052,0.165946 -0.37052,0.37052 v 0.317294 c 0,0.204574 0.165945,0.37052 0.37052,0.37052 h 0.317293 c 0.204575,0 0.37052,-0.165946 0.37052,-0.37052 V 8.064158 c 0,-0.204574 -0.165945,-0.37052 -0.37052,-0.37052 z m 2.116667,0 c -0.204575,0 -0.37052,0.165946 -0.37052,0.37052 v 0.317294 c 0,0.204574 0.165945,0.37052 0.37052,0.37052 h 0.317293 c 0.204575,0 0.37052,-0.165946 0.37052,-0.37052 V 8.064158 c 0,-0.204574 -0.165945,-0.37052 -0.37052,-0.37052 z m -12.7,2.116667 c -0.204575,0 -0.37052,0.165945 -0.37052,0.37052 v 0.317293 c 0,0.204575 0.165945,0.37052 0.37052,0.37052 h 2.43396 c 0.204574,0 0.37052,0.165946 0.37052,0.37052 v 0.317294 c 0,0.204574 -0.165946,0.37052 -0.37052,0.37052 H 3.830712 c -0.204574,0 -0.37052,0.165945 -0.37052,0.37052 v 0.317293 c 0,0.204575 -0.165945,0.37052 -0.37052,0.37052 H 2.772379 c -0.204575,0 -0.37052,-0.165945 -0.37052,-0.37052 v -0.317293 c 0,-0.204575 -0.165945,-0.37052 -0.37052,-0.37052 H 1.714046 c -0.204575,0 -0.37052,0.165945 -0.37052,0.37052 v 1.375626 c 0,0.204575 0.165945,0.37052 0.37052,0.37052 h 1.375626 c 0.204575,0 0.37052,0.165946 0.37052,0.37052 v 0.317294 c 0,0.204574 0.165946,0.37052 0.37052,0.37052 h 4.550627 c 0.204575,0 0.37052,-0.165946 0.37052,-0.37052 v -0.317294 c 0,-0.204574 -0.165945,-0.37052 -0.37052,-0.37052 H 8.064046 c -0.204575,0 -0.37052,-0.165945 -0.37052,-0.37052 v -0.317293 c 0,-0.204575 -0.165946,-0.37052 -0.37052,-0.37052 H 5.947379 c -0.204575,0 -0.37052,-0.165945 -0.37052,-0.37052 v -0.317293 c 0,-0.204575 0.165945,-0.37052 0.37052,-0.37052 h 0.317293 c 0.204575,0 0.37052,-0.165946 0.37052,-0.37052 v -0.317294 c 0,-0.204574 -0.165945,-0.37052 -0.37052,-0.37052 H 5.947379 c -0.204575,0 -0.37052,-0.165945 -0.37052,-0.37052 v -0.317293 c 0,-0.204575 -0.165945,-0.37052 -0.37052,-0.37052 z m 6.35,0 c -0.204575,0 -0.37052,0.165945 -0.37052,0.37052 v 0.317293 c 0,0.204575 0.165945,0.37052 0.37052,0.37052 h 0.317293 c 0.204575,0 0.37052,-0.165945 0.37052,-0.37052 v -0.317293 c 0,-0.204575 -0.165945,-0.37052 -0.37052,-0.37052 z m 2.116666,0 c -0.204574,0 -0.37052,0.165945 -0.37052,0.37052 v 0.317293 c 0,0.204575 -0.165945,0.37052 -0.37052,0.37052 H 9.122379 c -0.204575,0 -0.37052,0.165946 -0.37052,0.37052 v 0.317294 c 0,0.204574 -0.165945,0.37052 -0.37052,0.37052 H 8.064046 c -0.204575,0 -0.37052,0.165945 -0.37052,0.37052 v 0.317293 c 0,0.204575 0.165945,0.37052 0.37052,0.37052 h 0.317293 c 0.204575,0 0.37052,0.165945 0.37052,0.37052 v 0.317293 c 0,0.204575 0.165945,0.37052 0.37052,0.37052 h 0.317293 c 0.204575,0 0.37052,-0.165945 0.37052,-0.37052 v -0.317293 c 0,-0.204575 0.165946,-0.37052 0.37052,-0.37052 h 1.375627 c 0.204575,0 0.37052,-0.165945 0.37052,-0.37052 v -1.375627 c 0,-0.204574 -0.165945,-0.37052 -0.37052,-0.37052 h -0.317293 c -0.204575,0 -0.37052,-0.165945 -0.37052,-0.37052 v -0.317293 c 0,-0.204575 -0.165946,-0.37052 -0.37052,-0.37052 z m 2.116667,0 c -0.204575,0 -0.37052,0.165945 -0.37052,0.37052 v 0.317293 c 0,0.204575 0.165945,0.37052 0.37052,0.37052 h 2.43396 c 0.204575,0 0.37052,0.165946 0.37052,0.37052 v 0.317294 c 0,0.204574 0.165945,0.37052 0.37052,0.37052 h 0.317293 c 0.204575,0 0.37052,0.165945 0.37052,0.37052 v 0.317293 c 0,0.204575 0.165946,0.37052 0.37052,0.37052 h 1.375627 c 0.204575,0 0.37052,-0.165945 0.37052,-0.37052 v -0.317293 c 0,-0.204575 0.165945,-0.37052 0.37052,-0.37052 h 2.43396 c 0.204575,0 0.37052,-0.165946 0.37052,-0.37052 v -1.375627 c 0,-0.204575 -0.165945,-0.37052 -0.37052,-0.37052 h -2.43396 c -0.204575,0 -0.37052,0.165945 -0.37052,0.37052 v 0.317293 c 0,0.204575 -0.165945,0.37052 -0.37052,0.37052 h -1.375627 c -0.204574,0 -0.37052,-0.165945 -0.37052,-0.37052 v -0.317293 c 0,-0.204575 -0.165945,-0.37052 -0.37052,-0.37052 z m 10.583333,0 c -0.204574,0 -0.37052,0.165945 -0.37052,0.37052 v 1.375627 c 0,0.204574 -0.165945,0.37052 -0.37052,0.37052 h -0.317293 c -0.204575,0 -0.37052,0.165945 -0.37052,0.37052 v 0.317293 c 0,0.204575 0.165945,0.37052 0.37052,0.37052 h 1.375627 c 0.204574,0 0.37052,-0.165945 0.37052,-0.37052 v -2.43396 c 0,-0.204575 -0.165946,-0.37052 -0.37052,-0.37052 z m -9.525,3.175 c -0.204574,0 -0.37052,0.165945 -0.37052,0.37052 v 1.375627 c 0,0.204574 -0.165945,0.37052 -0.37052,0.37052 h -0.317293 c -0.204575,0 -0.37052,0.165945 -0.37052,0.37052 v 0.317293 c 0,0.204575 -0.165945,0.37052 -0.37052,0.37052 h -0.317293 c -0.204575,0 -0.37052,0.165945 -0.37052,0.37052 v 0.317293 c 0,0.204575 0.165945,0.37052 0.37052,0.37052 h 1.375626 c 0.204575,0 0.37052,0.165946 0.37052,0.37052 v 1.375627 c 0,0.204575 0.165946,0.37052 0.37052,0.37052 h 0.317294 c 0.204574,0 0.37052,-0.165945 0.37052,-0.37052 v -2.43396 c 0,-0.204575 0.165945,-0.37052 0.37052,-0.37052 h 1.375626 c 0.204575,0 0.37052,-0.165945 0.37052,-0.37052 v -0.317293 c 0,-0.204575 -0.165945,-0.37052 -0.37052,-0.37052 h -1.375626 c -0.204575,0 -0.37052,-0.165946 -0.37052,-0.37052 v -0.317294 c 0,-0.204574 0.165945,-0.37052 0.37052,-0.37052 h 0.317293 c 0.204575,0 0.37052,-0.165945 0.37052,-0.37052 v -0.317293 c 0,-0.204575 -0.165945,-0.37052 -0.37052,-0.37052 z m 6.35,0 c -0.204574,0 -0.37052,0.165945 -0.37052,0.37052 v 1.375627 c 0,0.204574 -0.165945,0.37052 -0.37052,0.37052 h -0.317293 c -0.204575,0 -0.37052,0.165945 -0.37052,0.37052 v 0.317293 c 0,0.204575 -0.165945,0.37052 -0.37052,0.37052 h -1.375627 c -0.204574,0 -0.37052,0.165945 -0.37052,0.37052 v 0.317293 c 0,0.204575 0.165946,0.37052 0.37052,0.37052 h 2.43396 c 0.204575,0 0.37052,0.165946 0.37052,0.37052 v 0.317294 c 0,0.204574 0.165946,0.37052 0.37052,0.37052 h 0.317294 c 0.204574,0 0.37052,0.165945 0.37052,0.37052 v 0.317293 c 0,0.204575 0.165945,0.37052 0.37052,0.37052 h 0.317293 c 0.204575,0 0.37052,-0.165945 0.37052,-0.37052 v -0.317293 c 0,-0.204575 0.165945,-0.37052 0.37052,-0.37052 h 0.317293 c 0.204575,0 0.37052,-0.165946 0.37052,-0.37052 v -0.317294 c 0,-0.204574 -0.165945,-0.37052 -0.37052,-0.37052 h -0.317293 c -0.204575,0 -0.37052,-0.165945 -0.37052,-0.37052 v -0.317293 c 0,-0.204575 -0.165945,-0.37052 -0.37052,-0.37052 h -0.317293 c -0.204575,0 -0.37052,-0.165945 -0.37052,-0.37052 v -2.43396 c 0,-0.204575 -0.165946,-0.37052 -0.37052,-0.37052 z m -9.525,1.058333 c -0.204574,0 -0.37052,0.165946 -0.37052,0.37052 v 1.375627 c 0,0.204575 0.165946,0.37052 0.37052,0.37052 h 0.317294 c 0.204574,0 0.37052,-0.165945 0.37052,-0.37052 v -0.317293 c 0,-0.204575 0.165945,-0.37052 0.37052,-0.37052 h 0.317293 c 0.204575,0 0.37052,-0.165946 0.37052,-0.37052 v -0.317294 c 0,-0.204574 -0.165945,-0.37052 -0.37052,-0.37052 z m 6.35,0 c -0.204574,0 -0.37052,0.165946 -0.37052,0.37052 v 0.317294 c 0,0.204574 0.165946,0.37052 0.37052,0.37052 h 0.317294 c 0.204574,0 0.37052,-0.165946 0.37052,-0.37052 v -0.317294 c 0,-0.204574 -0.165946,-0.37052 -0.37052,-0.37052 z m 5.291667,0 c -0.204575,0 -0.37052,0.165946 -0.37052,0.37052 v 0.317294 c 0,0.204574 0.165945,0.37052 0.37052,0.37052 h 1.375627 c 0.204574,0 0.37052,-0.165946 0.37052,-0.37052 v -0.317294 c 0,-0.204574 -0.165946,-0.37052 -0.37052,-0.37052 z M 1.714046,16.160305 c -0.204575,0 -0.37052,0.165945 -0.37052,0.37052 v 5.785177 c 0.0565,0.66925 0.581606,1.195155 1.250569,1.252636 h 5.787244 c 0.204575,0 0.37052,-0.165945 0.37052,-0.37052 v -6.667293 c 0,-0.204575 -0.165945,-0.37052 -0.37052,-0.37052 z m 1.058333,1.058333 h 4.550627 c 0.204574,0 0.37052,0.165946 0.37052,0.37052 v 4.550627 c 0,0.204575 -0.165946,0.37052 -0.37052,0.37052 H 2.772379 c -0.204575,0 -0.37052,-0.165945 -0.37052,-0.37052 v -4.550627 c 0,-0.204574 0.165945,-0.37052 0.37052,-0.37052 z m 12.7,0 c -0.204575,0 -0.37052,0.165946 -0.37052,0.37052 v 1.375627 c 0,0.204575 0.165945,0.37052 0.37052,0.37052 h 0.317293 c 0.204575,0 0.37052,-0.165945 0.37052,-0.37052 v -1.375627 c 0,-0.204574 -0.165945,-0.37052 -0.37052,-0.37052 z m -4.233333,1.058334 c -0.204575,0 -0.37052,0.165945 -0.37052,0.37052 v 0.317293 c 0,0.204575 0.165945,0.37052 0.37052,0.37052 h 0.317293 c 0.204575,0 0.37052,-0.165945 0.37052,-0.37052 v -0.317293 c 0,-0.204575 -0.165945,-0.37052 -0.37052,-0.37052 z m 6.35,0 c -0.204575,0 -0.37052,0.165945 -0.37052,0.37052 v 0.317293 c 0,0.204575 0.165945,0.37052 0.37052,0.37052 h 0.317293 c 0.204575,0 0.37052,-0.165945 0.37052,-0.37052 v -0.317293 c 0,-0.204575 -0.165945,-0.37052 -0.37052,-0.37052 z m 5.291666,0 c -0.204574,0 -0.37052,0.165945 -0.37052,0.37052 v 0.317293 c 0,0.204575 0.165946,0.37052 0.37052,0.37052 h 0.317294 c 0.204574,0 0.37052,-0.165945 0.37052,-0.37052 v -0.317293 c 0,-0.204575 -0.165946,-0.37052 -0.37052,-0.37052 z m -12.7,1.058333 c -0.204574,0 -0.37052,0.165945 -0.37052,0.37052 v 3.492293 c 0,0.204575 0.165946,0.37052 0.37052,0.37052 h 0.317294 c 0.204574,0 0.37052,-0.165945 0.37052,-0.37052 v -1.375626 c 0,-0.204575 0.165945,-0.37052 0.37052,-0.37052 h 0.317293 c 0.204575,0 0.37052,-0.165946 0.37052,-0.37052 v -0.317294 c 0,-0.204574 -0.165945,-0.37052 -0.37052,-0.37052 h -0.317293 c -0.204575,0 -0.37052,-0.165945 -0.37052,-0.37052 v -0.317293 c 0,-0.204575 -0.165946,-0.37052 -0.37052,-0.37052 z m 4.233334,0 c -0.204575,0 -0.37052,0.165945 -0.37052,0.37052 v 0.317293 c 0,0.204575 -0.165946,0.37052 -0.37052,0.37052 h -0.317294 c -0.204574,0 -0.37052,0.165946 -0.37052,0.37052 v 0.317294 c 0,0.204574 -0.165945,0.37052 -0.37052,0.37052 h -0.317293 c -0.204575,0 -0.37052,0.165945 -0.37052,0.37052 v 0.317293 c 0,0.204575 0.165945,0.37052 0.37052,0.37052 h 0.317293 c 0.204575,0 0.37052,0.165945 0.37052,0.37052 v 0.317293 c 0,0.204575 0.165946,0.37052 0.37052,0.37052 h 3.492294 c 0.204574,0 0.37052,-0.165945 0.37052,-0.37052 v -1.375626 c 0,-0.204575 -0.165946,-0.37052 -0.37052,-0.37052 h -0.317294 c -0.204574,0 -0.37052,0.165945 -0.37052,0.37052 v 0.317293 c 0,0.204575 -0.165945,0.37052 -0.37052,0.37052 h -0.317293 c -0.204575,0 -0.37052,-0.165945 -0.37052,-0.37052 v -0.317293 c 0,-0.204575 0.165945,-0.37052 0.37052,-0.37052 h 0.317293 c 0.204575,0 0.37052,-0.165946 0.37052,-0.37052 v -0.317294 c 0,-0.204574 -0.165945,-0.37052 -0.37052,-0.37052 h -0.317293 c -0.204575,0 -0.37052,-0.165945 -0.37052,-0.37052 v -0.317293 c 0,-0.204575 -0.165945,-0.37052 -0.37052,-0.37052 z m 5.291666,0 c -0.204574,0 -0.37052,0.165945 -0.37052,0.37052 v 0.317293 c 0,0.204575 0.165946,0.37052 0.37052,0.37052 h 0.317294 c 0.204574,0 0.37052,-0.165945 0.37052,-0.37052 v -0.317293 c 0,-0.204575 -0.165946,-0.37052 -0.37052,-0.37052 z m 1.058334,1.058333 c -0.204575,0 -0.37052,0.165946 -0.37052,0.37052 v 0.317294 c 0,0.204574 0.165945,0.37052 0.37052,0.37052 h 0.317293 c 0.204575,0 0.37052,-0.165946 0.37052,-0.37052 v -0.317294 c 0,-0.204574 -0.165945,-0.37052 -0.37052,-0.37052 z m -2.116667,1.058334 c -0.204575,0 -0.37052,0.165945 -0.37052,0.37052 v 1.375626 c 0,0.204575 0.165945,0.37052 0.37052,0.37052 h 2.43396 c 0.204575,0 0.37052,-0.165945 0.37052,-0.37052 v -0.317293 c 0,-0.204575 -0.165945,-0.37052 -0.37052,-0.37052 h -1.375627 c -0.204574,0 -0.37052,-0.165945 -0.37052,-0.37052 v -0.317293 c 0,-0.204575 -0.165945,-0.37052 -0.37052,-0.37052 z m 4.233333,0 c -0.204574,0 -0.37052,0.165945 -0.37052,0.37052 v 0.317293 c 0,0.204575 0.165946,0.37052 0.37052,0.37052 h 0.317294 c 0.204574,0 0.37052,-0.165945 0.37052,-0.37052 v -0.317293 c 0,-0.204575 -0.165946,-0.37052 -0.37052,-0.37052 z"
     sodipodi:nodetypes="ccsssssscsssssssssssssssccssssssssssssssssssssssssssssssssssssssssssssssssssssssssssssssssssssssssssssssssssssssssssssssssssssssssssssssssssssssssssssssssssssssssssssssssssssssssssssssssssssssssssssssssssssssssssssssssssssssssssssssssssssssssssssssssssssssssssssssssssssssssssssssssssssssssssssssssssssssssssssssssssssssssssssssssssssssssssssccssssssssssssssssssssssssssssssssssssssssssssssssssssssssssssssssssssssssssssssssssssssssssssssssssssssssssssssssssssssssssssssssssssssssssssssss" />
  <rect
     style="fill:#140d41;fill-opacity:1;stroke:#f68232;stroke-width:1.928;stroke-linecap:round;stroke-linejoin:round;stroke-dasharray:none;stroke-dashoffset:1924.07;stroke-opacity:0.79022157;paint-order:markers stroke fill"
     id="rect16"
     width="3.0550721"
     height="3.0522985"
     x="3.504128"
     y="3.5048032" />
  <rect
     style="fill:#140d41;fill-opacity:1;stroke:#f68232;stroke-width:1.928;stroke-linecap:round;stroke-linejoin:round;stroke-dasharray:none;stroke-dashoffset:1924.07;stroke-opacity:0.790222;paint-order:markers stroke fill"
     id="rect18"
     width="3.0550721"
     height="3.0522985"
     x="18.365669"
     y="3.5048032" />
  <rect
     style="fill:#140d41;fill-opacity:1;stroke:#f68232;stroke-width:1.928;stroke-linecap:round;stroke-linejoin:round;stroke-dasharray:none;stroke-dashoffset:1924.07;stroke-opacity:0.790222;paint-order:markers stroke fill"
     id="rect19"
     width="3.0550721"
     height="3.0522985"
     x="3.5572042"
     y="18.398075" />
</svg>
